v 0.178719 3.75 2.76044
v 0.178719 3.75 2.626168
v -0.147542 3.75 2.626168
newmtl 1
Ka 0.25098039215686274 0.25098039215686274 0.25098039215686274
Kd 0.25098039215686274 0.25098039215686274 0.25098039215686274
Ks 0.12549019607843137 0.12549019607843137 0.12549019607843137
d 0.0
endmtl
v 0.178719 3.75 3.298168
v 0.178719 3.75 3.198784
v -0.147542 3.75 3.198784
v -0.27717 3.75 3.639755
v -0.302628 3.75 3.642848
v -0.16786 3.75 3.642848
v 5.3 3.75 0.51
v 3.727543 3.75 0.51
v 3.727543 3.75 2.626168
v -0.518085 3.75 3.600997
v -0.518085 3.75 3.492516
v -0.609627 3.75 3.492516
v -0.538833 3.75 2.762064
v -0.525037 3.75 2.76044
v -0.609627 3.75 2.76044
v -0.942567 3.75 3.063269
v -0.942567 3.75 2.954788
v -1.006035 3.75 2.954788
v 0.472495 3.75 3.375615
v 0.407144 3.75 3.320313
v 0.178719 3.75 3.642848
v 0.739724 3.75 3.642848
v 0.686247 3.75 3.605616
v 0.602012 3.75 3.506561
v 0.556108 3.75 3.415228
v 0.544206 3.75 3.411225
v 1.233117 3.75 3.679182
v 1.121207 3.75 3.71911
v 3.727543 3.75 10.0
v 0.178719 3.75 10.0
v 0.898176 3.75 3.716707
v 0.778744 3.75 3.670014
v 1.014004 3.75 3.730935
v 1.293408 3.75 3.642848
v 3.727543 3.75 3.642848
v 1.303202 3.75 3.636946
v 3.727543 3.75 3.298168
v 1.820865 3.75 3.298168
v 1.799726 3.75 3.345831
v 1.741818 3.75 3.420048
v 1.559579 3.75 3.524006
v 1.46467 3.75 3.535727
v 1.359836 3.75 3.588445
v 1.436956 3.75 3.53422
v 1.409241 3.75 3.530906
v 1.725516 3.75 3.435476
v 1.648856 3.75 3.489353
v 1.679172 3.75 2.81883
v 1.753868 3.75 2.882622
v 3.727543 3.75 2.76044
v 1.592148 3.75 2.776269
v 1.808938 3.75 2.961265
v 1.843446 3.75 3.05099
v 3.727543 3.75 3.198784
v 1.855087 3.75 3.14531
v 1.854401 3.75 3.168506
v 1.848986 3.75 3.198784
v 1.838201 3.75 3.259079
v 1.561069 3.75 2.766943
v 1.55803 3.75 2.76044
v 1.536909 3.75 2.715246
v 1.501069 3.75 2.671014
v 0.178719 3.75 0.51
v 1.273805 3.75 2.610245
v 1.332122 3.75 2.603065
v 1.341426 3.75 2.603239
v 1.398326 3.75 2.612115
v 1.431771 3.75 2.626168
v 1.453928 3.75 2.635479
v 1.106293 3.75 2.76044
v 1.1065 3.75 2.759566
v 1.134996 3.75 2.705842
v 1.172051 3.75 2.664286
v 1.220055 3.75 2.630886
v 1.23234 3.75 2.626168
v 0.328528 3.75 3.178133
v 0.317521 3.75 3.09952
v 0.798579 3.75 2.902613
v 0.782042 3.75 2.909146
v 0.753727 3.75 3.046501
v 0.40669 3.75 2.870573
v 0.472287 3.75 2.815048
v 1.151373 3.75 3.005531
v 0.828436 3.75 3.17423
v 1.193476 3.75 3.04387
v 1.244612 3.75 3.071282
v 0.813398 3.75 2.89211
v 0.358878 3.75 2.937166
v 0.468112 3.75 3.118175
v 0.479419 3.75 3.164466
v 0.497905 3.75 3.198784
v 1.697267 3.75 3.198784
v 0.328592 3.75 3.013457
v 0.763367 3.75 2.911542
v 0.761021 3.75 2.911372
v 0.753791 3.75 2.909771
v 1.683125 3.75 3.054076
v 1.654371 3.75 3.005131
v 1.532003 3.75 2.980252
v 1.611159 3.75 2.960745
v 1.558659 3.75 2.928412
v 1.442872 3.75 3.060031
v 1.492153 3.75 3.025802
v 1.703258 3.75 3.15013
v 1.700389 3.75 3.113066
v 1.389637 3.75 3.080387
v 1.332121 3.75 3.087471
v 1.302784 3.75 3.08573
v 0.838076 3.75 2.836833
v 0.837464 3.75 2.846344
v 1.091124 3.75 2.868163
v 0.832624 3.75 2.864686
v 0.823356 3.75 2.881129
v 0.515846 3.75 2.969654
v 0.489332 3.75 3.007244
v 0.472723 3.75 3.050196
v 0.466939 3.75 3.097111
v 0.781763 3.75 2.764312
v 0.797704 3.75 2.770587
v 0.813334 3.75 2.781699
v 0.818936 3.75 2.787401
v 0.829441 3.75 2.80254
v 0.835789 3.75 2.818882
v 1.09242 3.75 2.819064
v 1.091124 3.75 2.844063
v 0.545822 3.75 2.779072
v 0.625998 3.75 2.762124
v 0.768186 3.75 2.762124
v 0.748907 3.75 2.909132
v 0.640458 3.75 2.909132
v 0.597246 3.75 2.917405
v 0.554717 3.75 2.937094
v 0.519076 3.75 2.966186
v 0.674197 3.75 3.285089
v 1.675437 3.75 3.262197
v 1.696078 3.75 3.208446
v 0.654918 3.75 3.285089
v 0.50182 3.75 3.206053
v 0.529655 3.75 3.237141
v 0.567033 3.75 3.263241
v 0.609096 3.75 3.279438
v 0.726093 3.75 3.429785
v 0.780436 3.75 3.49474
v 1.334531 3.75 3.354978
v 0.786614 3.75 3.500367
v 0.854328 3.75 3.547349
v 1.297733 3.75 3.431183
v 1.650409 3.75 3.298168
v 1.351818 3.75 3.364426
v 0.677071 3.75 3.298168
v 0.688925 3.75 3.352126
v 1.40586 3.75 3.384154
v 1.46226 3.75 3.391128
v 1.487259 3.75 3.389831
v 1.243687 3.75 3.495763
v 0.929904 3.75 3.576298
v 1.179017 3.75 3.543014
v 1.011594 3.75 3.586336
v 1.100282 3.75 3.574917
v 1.546757 3.75 3.375751
v 1.600481 3.75 3.347255
v 1.642037 3.75 3.3102
v 0.391264 3.75 3.298168
v 0.357971 3.75 3.251741
v 0.336789 3.75 3.198784
v -1.073403 3.75 3.10226
v -1.073403 3.75 3.063269
v -1.11313 3.75 3.198784
v -1.081114 3.75 2.801943
v -1.11313 3.75 2.76044
v -1.081114 3.75 2.763299
v -1.006035 3.75 2.76044
v -0.942567 3.75 2.801943
v -1.006035 3.75 2.801943
v -0.942567 3.75 2.91597
v -1.006035 3.75 2.91597
v -1.063785 3.75 2.91597
v -1.063785 3.75 2.954788
v -1.006035 3.75 3.063269
v -1.006035 3.75 2.763299
v -0.89881 3.75 2.763299
v -0.875935 3.75 2.76044
v -0.89881 3.75 3.10226
v -0.283603 3.75 2.76048
v -0.283273 3.75 2.76044
v -0.335088 3.75 2.763299
v -0.200967 3.75 2.879585
v -0.206678 3.75 2.947163
v -0.192251 3.75 2.867591
v -0.186182 3.75 2.852789
v -0.377545 3.75 2.763299
v -0.435078 3.75 2.815634
v -0.377545 3.75 2.91909
v -0.435078 3.75 2.77179
v -0.234394 3.75 2.76053
v -0.218116 3.75 2.766667
v -0.16786 3.75 2.76044
v -0.190305 3.75 2.794389
v -0.185147 3.75 2.808723
v -0.247055 3.75 3.005728
v -0.16786 3.75 3.198784
v -0.215478 3.75 2.993503
v -0.206678 3.75 2.988407
v -0.214351 3.75 2.89075
v -0.233111 3.75 2.899924
v -0.231241 3.75 2.963284
v -0.263345 3.75 2.907132
v -0.300429 3.75 2.974942
v -0.286046 3.75 2.976449
v -0.257712 3.75 2.973129
v -0.335088 3.75 2.80073
v -0.333962 3.75 2.80073
v -0.323566 3.75 2.785901
v -0.203819 3.75 2.776643
v -0.199144 3.75 2.781372
v -0.309655 3.75 2.772831
v -0.300494 3.75 2.767051
v -0.183023 3.75 2.828111
v -0.183227 3.75 2.834806
v -0.452485 3.75 2.804952
v -0.454704 3.75 2.804136
v -0.454704 3.75 2.894248
v -0.437012 3.75 2.955232
v -0.442066 3.75 2.968902
v -0.359487 3.75 2.983614
v -0.290032 3.75 3.010935
v -0.316685 3.75 3.008408
v -0.334319 3.75 3.002838
v -0.335088 3.75 2.917183
v -0.333611 3.75 2.935956
v -0.329222 3.75 2.951074
v -0.324233 3.75 2.959817
v -0.374574 3.75 2.949848
v -0.437163 3.75 2.923573
v -0.368062 3.75 2.969642
v -0.435338 3.75 2.940058
v -0.317814 3.75 2.966645
v -0.310277 3.75 2.971503
v -0.454328 3.75 2.894496
v -0.447382 3.75 2.90176
v -0.441846 3.75 2.910609
v -0.454704 3.75 2.764515
v -0.454704 3.75 2.76044
v -0.460521 3.75 2.762359
v -0.47668 3.75 2.76044
v -0.586969 3.75 3.00019
v -0.586969 3.75 2.958947
v -0.449952 3.75 2.980377
v -0.454704 3.75 2.984649
v -0.454704 3.75 3.198784
v -0.462545 3.75 2.991699
v -0.476653 3.75 2.999963
v -0.596561 3.75 2.812092
v -0.591347 3.75 2.798637
v -0.583433 3.75 2.787439
v -0.500353 3.75 3.007981
v -0.529609 3.75 3.010935
v -0.609627 3.75 3.198784
v -0.559394 3.75 3.008292
v -0.58437 3.75 2.869181
v -0.592294 3.75 2.857486
v -0.596825 3.75 2.844968
v -0.59858 3.75 2.82915
v -0.571286 3.75 2.776816
v -0.561227 3.75 2.770645
v -0.52545 3.75 2.976449
v -0.512883 3.75 2.975507
v -0.479095 3.75 2.94387
v -0.501525 3.75 2.972501
v -0.492005 3.75 2.967438
v -0.479482 3.75 2.938223
v -0.481166 3.75 2.931628
v -0.484225 3.75 2.925899
v -0.488366 3.75 2.921342
v -0.503334 3.75 2.911984
v -0.552251 3.75 2.973532
v -0.529609 3.75 2.900547
v -0.576299 3.75 2.964991
v -0.546049 3.75 2.893895
v -0.574247 3.75 2.878214
v -0.485599 3.75 2.961777
v -0.481959 3.75 2.956374
v -0.479863 3.75 2.950642
v -0.479144 3.75 2.795151
v -0.49963 3.75 2.869701
v -0.474323 3.75 2.881301
v -0.504915 3.75 2.792239
v -0.50679 3.75 2.792251
v -0.527508 3.75 2.858025
v -0.528555 3.75 2.79469
v -0.554997 3.75 2.824991
v -0.554581 3.75 2.830273
v -0.53951 3.75 2.7987
v -0.543381 3.75 2.801048
v -0.548253 3.75 2.805373
v -0.55196 3.75 2.810854
v -0.554117 3.75 2.816892
v -0.552652 3.75 2.836902
v -0.54937 3.75 2.842531
v -0.544079 3.75 2.848039
v -1.237511 3.75 3.393739
v -1.11313 3.75 3.393739
v -1.272083 3.75 3.301027
v -1.11313 3.75 3.298168
v -1.320432 3.75 3.301027
v -5.6 3.75 3.298168
v -5.6 3.75 3.642848
v -1.191329 3.75 3.639988
v -1.11313 3.75 3.642848
v -1.096364 3.75 3.393739
v -1.063785 3.75 3.301027
v -1.006035 3.75 3.298168
v -1.015436 3.75 3.301027
v -1.006035 3.75 3.642848
v -1.11313 3.75 3.557523
v -1.14454 3.75 3.639988
v -0.875935 3.75 3.298168
v -0.87144 3.75 3.308029
v -0.813897 3.75 3.301027
v -0.817362 3.75 3.639988
v -0.875935 3.75 3.642848
v -0.688649 3.75 3.642848
v -0.688649 3.75 3.298168
v -0.720665 3.75 3.301027
v -0.720665 3.75 3.639988
v -0.987401 3.75 3.413556
v -0.970707 3.75 3.378498
v -0.957473 3.75 3.583406
v -0.978455 3.75 3.553852
v -0.945513 3.75 3.34851
v -0.910085 3.75 3.323113
v -0.875935 3.75 3.309783
v -0.945513 3.75 3.595105
v -0.86912 3.75 3.634273
v -0.875935 3.75 3.631783
v -0.910028 3.75 3.619328
v -0.990992 3.75 3.521522
v -0.996634 3.75 3.47484
v -0.995615 3.75 3.453238
v -0.609627 3.75 3.642848
v -0.648922 3.75 3.639988
v -0.609627 3.75 3.639988
v -0.518085 3.75 3.339672
v -0.609627 3.75 3.339672
v -0.518085 3.75 3.453698
v -0.609627 3.75 3.453698
v -0.639304 3.75 3.453698
v -0.656633 3.75 3.339672
v -0.639304 3.75 3.492516
v -0.648922 3.75 3.600997
v -0.609627 3.75 3.600997
v -0.474329 3.75 3.301027
v -0.454704 3.75 3.298168
v -0.609627 3.75 3.298168
v -0.656633 3.75 3.301027
v -0.609627 3.75 3.301027
v -0.474329 3.75 3.639988
v -0.454704 3.75 3.642848
v -5.3 3.75 0.0
v -5.6 3.75 0.0
v -5.3 3.75 0.51
v -5.6 3.75 2.626168
v -1.11313 3.75 0.51
v -0.362553 3.75 3.642848
v -0.370548 3.75 3.642219
v -0.406485 3.75 3.631844
v -0.406485 3.75 3.586094
v -0.406485 3.75 3.357001
v -0.406485 3.75 3.315064
v -0.400702 3.75 3.312183
v -0.36431 3.75 3.300247
v -0.342557 3.75 3.298168
v -0.368328 3.75 3.601214
v -0.326597 3.75 3.606196
v -0.40271 3.75 3.588131
v -0.310108 3.75 3.605357
v -0.281081 3.75 3.599033
v -0.254755 3.75 3.585985
v -0.204204 3.75 3.513262
v -0.19862 3.75 3.466695
v -0.318972 3.75 3.334299
v -0.234232 3.75 3.568592
v -0.231946 3.75 3.566087
v -0.373108 3.75 3.342016
v -0.334765 3.75 3.334887
v -0.215559 3.75 3.542535
v -0.199221 3.75 3.450789
v -0.205166 3.75 3.417646
v -0.216591 3.75 3.390767
v -0.231892 3.75 3.369998
v -0.241738 3.75 3.360613
v -0.28979 3.75 3.337248
v -0.264766 3.75 3.3457
v -0.326163 3.75 3.645707
v -0.16786 3.75 10.0
v -0.454704 3.75 10.0
v -0.177081 3.75 3.563699
v -0.201652 3.75 3.595798
v -0.210018 3.75 3.603783
v -0.241748 3.75 3.626009
v -0.16786 3.75 3.387188
v -0.159381 3.75 3.408919
v -0.147542 3.75 3.298168
v -0.152697 3.75 3.464096
v -0.153294 3.75 3.481796
v -0.147542 3.75 3.642848
v -0.160981 3.75 3.526047
v -0.16786 3.75 3.542135
v -0.223432 3.75 3.31894
v -0.196194 3.75 3.341578
v -0.16786 3.75 3.298168
v -0.193411 3.75 3.344615
v -0.173183 3.75 3.373549
v -0.312647 3.75 3.295308
v -0.292147 3.75 3.296279
v -0.282981 3.75 3.298168
v -0.255418 3.75 3.303849
v -0.348285 3.75 2.994622
v -0.500756 3.75 2.757581
v -0.454704 3.75 2.626168
v -0.16786 3.75 2.626168
v -0.23517 3.75 2.76044
v -0.259792 3.75 2.757581
v -0.809044 3.75 3.005389
v -0.853061 3.75 3.005389
v -0.875935 3.75 3.198784
v -1.006035 3.75 3.10226
v -1.006035 3.75 3.198784
v -0.756482 3.75 2.76044
v -0.731409 3.75 2.823432
v -0.736608 3.75 2.803503
v -0.737734 3.75 2.803503
v -0.688649 3.75 3.198784
v -0.688649 3.75 2.94644
v -0.742933 3.75 2.823085
v -0.739684 3.75 2.8118
v -0.688649 3.75 2.76044
v -0.688649 3.75 2.832477
v -0.620675 3.75 3.005389
v -0.668157 3.75 3.005389
v -0.715639 3.75 2.763819
v -0.714209 3.75 2.76044
v -0.69701 3.75 2.719803
v -0.609627 3.75 2.626168
v -0.629426 3.75 2.652738
v -0.629426 3.75 2.690516
v -0.680638 3.75 2.695563
v -0.688548 3.75 2.704344
v -0.688649 3.75 2.704528
v -0.638112 3.75 2.68767
v -0.653514 3.75 2.685664
v -0.688649 3.75 2.656841
v -0.673959 3.75 2.651245
v -0.688649 3.75 2.626168
v -0.656806 3.75 2.649272
v -0.647434 3.75 2.649609
v -0.664307 3.75 2.686952
v -0.673541 3.75 2.690582
v -0.743193 3.75 2.726734
v -0.723973 3.75 2.689303
v -0.875935 3.75 2.626168
v -0.708437 3.75 2.670644
v -0.705542 3.75 2.667991
v -0.690713 3.75 2.657627
v 5.6 3.75 10.0
v 5.6 3.75 3.642848
v 5.6 3.75 3.298168
v 5.6 3.75 3.198784
v 5.6 3.75 2.76044
v 5.6 3.75 2.626168
v 5.6 3.75 0.0
v 5.3 3.75 0.0
v -0.138834 3.75 3.339672
v -0.138834 3.75 3.301027
v 0.039918 3.75 3.301027
v -0.003838 3.75 3.639988
v -0.003838 3.75 3.339672
v 0.039918 3.75 3.639988
v -0.147542 3.75 2.76044
v -0.142386 3.75 2.763299
v 0.039918 3.75 2.763299
v -0.142386 3.75 2.801943
v -0.134675 3.75 3.063269
v -0.003838 3.75 2.91597
v -0.003838 3.75 2.801943
v -0.125057 3.75 2.91597
v -0.125057 3.75 2.954788
v -0.003838 3.75 2.954788
v -0.003838 3.75 3.063269
v 0.039918 3.75 3.10226
v -0.134675 3.75 3.10226
v -0.147542 3.75 10.0
v -1.006035 3.75 2.626168
v -1.11313 3.75 2.626168
v -0.609627 3.75 10.0
v -0.688649 3.75 10.0
v -0.875935 3.75 10.0
v -1.006035 3.75 10.0
v -1.11313 3.75 10.0
v -5.6 3.75 10.0
v -1.488266 3.75 2.763299
v -1.439917 3.75 2.763299
v -1.696564 3.75 2.763299
v -1.661992 3.75 2.856011
v -1.520845 3.75 2.856011
v -1.744913 3.75 2.763299
v -5.6 3.75 2.76044
v -5.6 3.75 3.198784
v -1.61581 3.75 3.10226
v -1.411882 3.75 2.875828
v -1.420096 3.75 2.91551
v -1.569021 3.75 3.10226
v -1.421115 3.75 2.937112
v -1.415473 3.75 2.983794
v -1.395188 3.75 2.84077
v -1.369994 3.75 2.810781
v -1.334566 3.75 2.785385
v -1.145146 3.75 3.10226
v -1.145146 3.75 2.763299
v -1.238378 3.75 2.763299
v -1.295922 3.75 2.770301
v -1.369994 3.75 3.057377
v -1.381954 3.75 3.045678
v -1.402936 3.75 3.016124
v -1.241844 3.75 3.10226
v -1.293601 3.75 3.096545
v -1.334509 3.75 3.0816
v -1.006035 3.75 0.51
v -0.875935 3.75 0.51
v -0.688649 3.75 0.51
v -0.609627 3.75 0.51
v -0.454704 3.75 0.51
v -0.16786 3.75 0.51
v -0.147542 3.75 0.51
v -2.29 -1.55 0.51
v -5.3 -3.75 0.51
v -0.25 -1.85 0.51
v 0.25 -1.85 0.51
v -2.79 -1.55 0.51
v -2.79 -1.85 0.51
v -2.29 -1.85 0.51
v -0.25 -1.55 0.51
v 2.29 -1.55 0.51
v 2.79 -1.55 0.51
v 2.79 -1.85 0.51
v 5.3 -3.75 0.51
v 2.29 -1.85 0.51
v 0.25 -1.55 0.51
v 5.6 -3.75 0.0
v 5.3 -3.75 0.0
v 5.8 3.55 0.0
v 5.8 -3.55 0.0
v 5.651763 -3.743185 0.0
v 5.773205 -3.65 0.0
v 5.741421 -3.691421 0.0
v 5.7 -3.723205 0.0
v 5.741421 3.691421 0.0
v 5.773205 3.65 0.0
v 5.7 3.723205 0.0
v 5.651763 3.743185 0.0
v 5.793185 3.601764 0.0
v 5.793185 -3.601764 0.0
v -5.8 -3.55 10.0
v -5.8 3.55 10.0
v -5.8 -3.55 0.0
v -5.8 3.55 0.0
v -5.6 -3.75 10.0
v -5.6 -3.75 0.0
v -5.3 -3.75 0.0
v -4.364005 -3.75 1.294987
v -4.495117 -3.75 1.349296
v 5.6 -3.75 10.0
v -3.67968 -3.75 1.820088
v -3.698204 -3.75 1.679388
v -3.752512 -3.75 1.548276
v -3.838904 -3.75 1.435688
v -4.607705 -3.75 1.435688
v -4.694097 -3.75 1.548276
v -4.748405 -3.75 1.679388
v -3.951493 -3.75 1.349296
v -4.082604 -3.75 1.294987
v -4.223305 -3.75 1.276464
v -4.766929 -3.75 1.820088
v -4.748405 -3.75 1.960788
v -4.694097 -3.75 2.0919
v -4.607705 -3.75 2.204489
v -4.495117 -3.75 2.29088
v -4.364005 -3.75 2.345189
v -3.951493 -3.75 2.29088
v -4.082604 -3.75 2.345189
v -4.223305 -3.75 2.363712
v -3.838904 -3.75 2.204489
v -3.752512 -3.75 2.0919
v -3.698204 -3.75 1.960788
v 5.8 -3.55 10.0
v 5.8 3.55 10.0
v -5.6 3.55 10.200001
v -5.6 -3.55 10.200001
v 5.6 3.55 10.200001
v 5.6 -3.55 10.200001
v -5.651763 3.743185 0.0
v -5.773205 3.65 0.0
v -5.741421 3.691421 0.0
v -5.7 3.723205 0.0
v -5.741421 -3.691421 0.0
v -5.773205 -3.65 0.0
v -5.7 -3.723205 0.0
v -5.651763 -3.743185 0.0
v -5.793185 -3.601764 0.0
v -5.793185 3.601764 0.0
v -4.223305 -3.749 2.363712
v -4.364005 -3.749 2.345189
newmtl 2
Ka 0.5019607843137255 0.5019607843137255 0.5019607843137255
Kd 0.5019607843137255 0.5019607843137255 0.5019607843137255
Ks 0.25098039215686274 0.25098039215686274 0.25098039215686274
d 0.0
endmtl
v -4.495117 -3.749 2.29088
v -4.607705 -3.749 2.204489
v -4.694097 -3.749 2.0919
v -4.748405 -3.749 1.960788
v -4.766929 -3.749 1.820088
v -4.748405 -3.749 1.679388
v -4.694097 -3.749 1.548276
v -4.607705 -3.749 1.435688
v -4.495117 -3.749 1.349296
v -4.364005 -3.749 1.294987
v -4.223305 -3.749 1.276464
v -4.082604 -3.749 1.294987
v -3.951493 -3.749 1.349296
v -3.838904 -3.749 1.435688
v -3.752512 -3.749 1.548276
v -3.698204 -3.749 1.679388
v -3.67968 -3.749 1.820088
v -3.698204 -3.749 1.960788
v -3.752512 -3.749 2.0919
v -3.838904 -3.749 2.204489
v -3.951493 -3.749 2.29088
v -4.082604 -3.749 2.345189
v -4.223305 -3.749 1.820088
v 2.79 -1.55 -4.1
v 2.79 -1.85 -4.1
newmtl 3
Ka 1.0 1.0 1.0
Kd 1.0 1.0 1.0
Ks 0.5019607843137255 0.5019607843137255 0.5019607843137255
d 0.0
endmtl
v 2.29 -1.85 -4.1
v 2.29 -1.55 -4.1
v 0.25 -1.85 -4.1
v -0.25 -1.85 -4.1
v 0.25 -1.55 -4.1
v -0.25 -1.55 -4.1
v -2.29 -1.55 -4.1
v -2.29 -1.85 -4.1
v -2.79 -1.85 -4.1
v -2.79 -1.55 -4.1
v 5.651763 -3.743185 10.0
v 5.7 -3.723205 10.0
v 5.741421 -3.691421 10.0
v 5.773205 -3.65 10.0
v 5.793185 -3.601764 10.0
v -5.6 -3.601764 10.193185
v 5.6 -3.601764 10.193185
v -5.6 -3.65 10.173205
v 5.6 -3.65 10.173205
v -5.6 -3.691421 10.141421
v 5.6 -3.691421 10.141421
v -5.6 -3.723205 10.099999
v 5.6 -3.723205 10.099999
v -5.6 -3.743185 10.051764
v 5.6 -3.743185 10.051764
v -5.793185 -3.601764 10.0
v -5.773205 -3.65 10.0
v -5.741421 -3.691421 10.0
v -5.7 -3.723205 10.0
v -5.651763 -3.743185 10.0
v 5.793185 -3.55 10.051764
v 5.786602 -3.6 10.051764
v 5.686603 -3.6 10.173205
v 5.644828 -3.575882 10.193185
v 5.636602 -3.586603 10.193185
v 5.613397 -3.6 10.193185
v 5.65 -3.563398 10.193185
v 5.696592 -3.575882 10.173205
v 5.736602 -3.586603 10.141421
v 5.651763 -3.55 10.193185
v 5.670711 -3.620711 10.173205
v 5.625882 -3.594829 10.193185
v 5.65 -3.636603 10.173205
v 5.625882 -3.646593 10.173205
v 5.7 -3.55 10.173205
v 5.741421 -3.55 10.141421
v 5.773205 -3.55 10.099999
v 5.722474 -3.620711 10.141421
v 5.7 -3.65 10.141421
v 5.670711 -3.672475 10.141421
v 5.636602 -3.686602 10.141421
v 5.767303 -3.594829 10.099999
v 5.75 -3.636603 10.099999
v 5.722474 -3.672475 10.099999
v 5.686603 -3.7 10.099999
v 5.644828 -3.717303 10.099999
v 5.767303 -3.646593 10.051764
v 5.736602 -3.686602 10.051764
v 5.696592 -3.717303 10.051764
v 5.65 -3.736603 10.051764
v -5.65 -3.736603 10.051764
v -5.65 -3.636603 10.173205
v -5.625882 -3.594829 10.193185
v -5.636602 -3.586603 10.193185
v -5.651763 -3.55 10.193185
v -5.65 -3.563398 10.193185
v -5.613397 -3.6 10.193185
v -5.625882 -3.646593 10.173205
v -5.636602 -3.686602 10.141421
v -5.670711 -3.620711 10.173205
v -5.644828 -3.575882 10.193185
v -5.686603 -3.6 10.173205
v -5.696592 -3.575882 10.173205
v -5.7 -3.55 10.173205
v -5.670711 -3.672475 10.141421
v -5.7 -3.65 10.141421
v -5.722474 -3.620711 10.141421
v -5.736602 -3.586603 10.141421
v -5.741421 -3.55 10.141421
v -5.644828 -3.717303 10.099999
v -5.686603 -3.7 10.099999
v -5.722474 -3.672475 10.099999
v -5.75 -3.636603 10.099999
v -5.767303 -3.594829 10.099999
v -5.773205 -3.55 10.099999
v -5.696592 -3.717303 10.051764
v -5.736602 -3.686602 10.051764
v -5.767303 -3.646593 10.051764
v -5.786602 -3.6 10.051764
v -5.793185 -3.55 10.051764
v 5.793185 3.601764 10.0
v 5.773205 3.65 10.0
v 5.741421 3.691421 10.0
v 5.7 3.723205 10.0
v 5.651763 3.743185 10.0
v 5.651763 3.55 10.193185
v 5.7 3.55 10.173205
v 5.741421 3.55 10.141421
v 5.773205 3.55 10.099999
v 5.793185 3.55 10.051764
v -5.651763 3.55 10.193185
v -5.7 3.55 10.173205
v -5.741421 3.55 10.141421
v -5.773205 3.55 10.099999
v -5.793185 3.55 10.051764
v -5.651763 3.743185 10.0
v -5.7 3.723205 10.0
v -5.741421 3.691421 10.0
v -5.773205 3.65 10.0
v -5.793185 3.601764 10.0
v 5.6 3.743185 10.051764
v 5.65 3.736603 10.051764
v 5.65 3.636603 10.173205
v 5.625882 3.594829 10.193185
v 5.636602 3.586603 10.193185
v 5.65 3.563398 10.193185
v 5.613397 3.6 10.193185
v 5.625882 3.646593 10.173205
v 5.636602 3.686602 10.141421
v 5.6 3.601764 10.193185
v 5.670711 3.620711 10.173205
v 5.644828 3.575882 10.193185
v 5.686603 3.6 10.173205
v 5.696592 3.575882 10.173205
v 5.6 3.65 10.173205
v 5.6 3.691421 10.141421
v 5.6 3.723205 10.099999
v 5.670711 3.672475 10.141421
v 5.7 3.65 10.141421
v 5.722474 3.620711 10.141421
v 5.736602 3.586603 10.141421
v 5.644828 3.717303 10.099999
v 5.686603 3.7 10.099999
v 5.722474 3.672475 10.099999
v 5.75 3.636603 10.099999
v 5.767303 3.594829 10.099999
v 5.696592 3.717303 10.051764
v 5.736602 3.686602 10.051764
v 5.767303 3.646593 10.051764
v 5.786602 3.6 10.051764
v -5.786602 3.6 10.051764
v -5.686603 3.6 10.173205
v -5.644828 3.575882 10.193185
v -5.636602 3.586603 10.193185
v -5.6 3.601764 10.193185
v -5.613397 3.6 10.193185
v -5.65 3.563398 10.193185
v -5.696592 3.575882 10.173205
v -5.736602 3.586603 10.141421
v -5.670711 3.620711 10.173205
v -5.625882 3.594829 10.193185
v -5.65 3.636603 10.173205
v -5.625882 3.646593 10.173205
v -5.6 3.65 10.173205
v -5.722474 3.620711 10.141421
v -5.7 3.65 10.141421
v -5.670711 3.672475 10.141421
v -5.636602 3.686602 10.141421
v -5.6 3.691421 10.141421
v -5.767303 3.594829 10.099999
v -5.75 3.636603 10.099999
v -5.722474 3.672475 10.099999
v -5.686603 3.7 10.099999
v -5.644828 3.717303 10.099999
v -5.6 3.723205 10.099999
v -5.767303 3.646593 10.051764
v -5.736602 3.686602 10.051764
v -5.696592 3.717303 10.051764
v -5.65 3.736603 10.051764
v -5.6 3.743185 10.051764
v -0.138834 3.76 3.339672
v -0.138834 3.76 3.301027
v -0.003838 3.76 3.339672
v -0.003838 3.76 3.639988
v 0.039918 3.76 3.639988
v 0.039918 3.76 3.301027
v -0.312647 3.76 3.295308
v -0.36431 3.76 3.300247
v -0.400702 3.76 3.312183
v -0.406485 3.76 3.315064
v -0.406485 3.76 3.357001
v -0.373108 3.76 3.342016
v -0.334765 3.76 3.334887
v -0.318972 3.76 3.334299
v -0.28979 3.76 3.337248
v -0.264766 3.76 3.3457
v -0.241738 3.76 3.360613
v -0.231892 3.76 3.369998
v -0.216591 3.76 3.390767
v -0.205166 3.76 3.417646
v -0.199221 3.76 3.450789
v -0.19862 3.76 3.466695
v -0.204204 3.76 3.513262
v -0.215559 3.76 3.542535
v -0.231946 3.76 3.566087
v -0.234232 3.76 3.568592
v -0.254755 3.76 3.585985
v -0.281081 3.76 3.599033
v -0.310108 3.76 3.605357
v -0.326597 3.76 3.606196
v -0.368328 3.76 3.601214
v -0.40271 3.76 3.588131
v -0.406485 3.76 3.586094
v -0.406485 3.76 3.631844
v -0.326163 3.76 3.645707
v -0.370548 3.76 3.642219
v -0.27717 3.76 3.639755
v -0.241748 3.76 3.626009
v -0.210018 3.76 3.603783
v -0.201652 3.76 3.595798
v -0.160981 3.76 3.526047
v -0.177081 3.76 3.563699
v -0.153294 3.76 3.481796
v -0.152697 3.76 3.464096
v -0.173183 3.76 3.373549
v -0.159381 3.76 3.408919
v -0.193411 3.76 3.344615
v -0.196194 3.76 3.341578
v -0.223432 3.76 3.31894
v -0.292147 3.76 3.296279
v -0.255418 3.76 3.303849
v -0.656633 3.76 3.339672
v -0.656633 3.76 3.301027
v -0.518085 3.76 3.339672
v -0.518085 3.76 3.453698
v -0.639304 3.76 3.453698
v -0.639304 3.76 3.492516
v -0.518085 3.76 3.492516
v -0.518085 3.76 3.600997
v -0.648922 3.76 3.600997
v -0.648922 3.76 3.639988
v -0.474329 3.76 3.639988
v -0.474329 3.76 3.301027
v -0.945513 3.76 3.34851
v -0.91045 3.76 3.371335
v -0.910085 3.76 3.323113
v -0.88859 3.76 3.356142
v -0.87144 3.76 3.308029
v -0.860599 3.76 3.345282
v -0.813897 3.76 3.301027
v -0.813637 3.76 3.339672
v -0.720665 3.76 3.301027
v -0.764421 3.76 3.339672
v -0.720665 3.76 3.639988
v -0.764421 3.76 3.600997
v -0.817362 3.76 3.639988
v -0.815629 3.76 3.600997
v -0.819674 3.76 3.600961
v -0.86912 3.76 3.634273
v -0.862853 3.76 3.595273
v -0.910028 3.76 3.619328
v -0.891633 3.76 3.584045
v -0.945513 3.76 3.595105
v -0.913453 3.76 3.569111
v -0.957473 3.76 3.583406
v -0.92291 3.76 3.559791
v -0.978455 3.76 3.553852
v -0.936047 3.76 3.54079
v -0.990992 3.76 3.521522
v -0.945601 3.76 3.516036
v -0.996634 3.76 3.47484
v -0.950625 3.76 3.473627
v -0.995615 3.76 3.453238
v -0.949241 3.76 3.449885
v -0.987401 3.76 3.413556
v -0.94233 3.76 3.419339
v -0.970707 3.76 3.378498
v -0.930343 3.76 3.394476
v -0.914406 3.76 3.375023
v -0.815629 3.75 3.600997
v -0.764421 3.75 3.600997
v -0.764421 3.75 3.339672
v -0.813637 3.75 3.339672
v -0.914406 3.75 3.375023
v -0.91045 3.75 3.371335
v -0.88859 3.75 3.356142
v -0.860599 3.75 3.345282
v -0.950625 3.75 3.473627
v -0.949241 3.75 3.449885
v -0.94233 3.75 3.419339
v -0.930343 3.75 3.394476
v -0.913453 3.75 3.569111
v -0.92291 3.75 3.559791
v -0.936047 3.75 3.54079
v -0.945601 3.75 3.516036
v -0.819674 3.75 3.600961
v -0.862853 3.75 3.595273
v -0.891633 3.75 3.584045
v -1.110228 3.76 3.432037
v -1.096364 3.76 3.393739
v -1.223994 3.76 3.432037
v -1.237511 3.76 3.393739
v -1.160916 3.76 3.572924
v -1.14454 3.76 3.639988
v -1.015436 3.76 3.301027
v -1.063785 3.76 3.301027
v -1.163851 3.76 3.58304
v -1.166461 3.76 3.596665
v -1.191329 3.76 3.639988
v -1.167501 3.76 3.596665
v -1.170241 3.76 3.582325
v -1.172786 3.76 3.572924
v -1.320432 3.76 3.301027
v -1.272083 3.76 3.301027
v -1.110228 3.75 3.432037
v -1.223994 3.75 3.432037
v -1.172786 3.75 3.572924
v -1.167501 3.75 3.596665
v -1.170241 3.75 3.582325
v -1.166461 3.75 3.596665
v -1.160916 3.75 3.572924
v -1.163851 3.75 3.58304
v -0.142386 3.76 2.801943
v -0.142386 3.76 2.763299
v -0.003838 3.76 2.801943
v -0.003838 3.76 2.91597
v -0.125057 3.76 2.91597
v -0.125057 3.76 2.954788
v -0.003838 3.76 2.954788
v -0.003838 3.76 3.063269
v -0.134675 3.76 3.063269
v -0.134675 3.76 3.10226
v 0.039918 3.76 3.10226
v 0.039918 3.76 2.763299
v -0.335088 3.76 2.763299
v -0.377545 3.76 2.763299
v -0.335088 3.76 2.80073
v -0.377545 3.76 2.91909
v -0.278421 3.76 2.877152
v -0.335088 3.76 2.884778
v -0.335088 3.76 2.861556
v -0.333962 3.76 2.80073
v -0.311568 3.76 2.806965
v -0.323566 3.76 2.785901
v -0.29957 3.76 2.798869
v -0.335047 3.76 2.858739
v -0.332313 3.76 2.839795
v -0.326086 3.76 2.824648
v -0.316892 3.76 2.812168
v -0.233111 3.76 2.899924
v -0.214351 3.76 2.89075
v -0.241103 3.76 2.865324
v -0.237351 3.76 2.862249
v -0.335088 3.76 2.917183
v -0.333611 3.76 2.935956
v -0.374574 3.76 2.949848
v -0.329222 3.76 2.951074
v -0.368062 3.76 2.969642
v -0.324233 3.76 2.959817
v -0.359487 3.76 2.983614
v -0.317814 3.76 2.966645
v -0.348285 3.76 2.994622
v -0.310277 3.76 2.971503
v -0.334319 3.76 3.002838
v -0.300429 3.76 2.974942
v -0.316685 3.76 3.008408
v -0.286046 3.76 2.976449
v -0.290032 3.76 3.010935
v -0.257712 3.76 2.973129
v -0.247055 3.76 3.005728
v -0.231241 3.76 2.963284
v -0.215478 3.76 2.993503
v -0.206678 3.76 2.947163
v -0.206678 3.76 2.988407
v -0.232269 3.76 2.855958
v -0.200967 3.76 2.879585
v -0.228543 3.76 2.848038
v -0.192251 3.76 2.867591
v -0.226447 3.76 2.838315
v -0.23478 3.76 2.806959
v -0.203819 3.76 2.776643
v -0.238391 3.76 2.80333
v -0.218116 3.76 2.766667
v -0.246851 3.76 2.797552
v -0.234394 3.76 2.76053
v -0.256456 3.76 2.794028
v -0.259792 3.76 2.757581
v -0.270796 3.76 2.792412
v -0.283603 3.76 2.76048
v -0.286689 3.76 2.79419
v -0.300494 3.76 2.767051
v -0.309655 3.76 2.772831
v -0.249955 3.76 2.870099
v -0.263345 3.76 2.907132
v -0.186182 3.76 2.852789
v -0.183227 3.76 2.834806
v -0.226087 3.76 2.831576
v -0.183023 3.76 2.828111
v -0.227165 3.76 2.821829
v -0.185147 3.76 2.808723
v -0.229955 3.76 2.814116
v -0.190305 3.76 2.794389
v -0.199144 3.76 2.781372
v -0.237351 3.75 2.862249
v -0.241103 3.75 2.865324
v -0.249955 3.75 2.870099
v -0.278421 3.75 2.877152
v -0.226087 3.75 2.831576
v -0.226447 3.75 2.838315
v -0.228543 3.75 2.848038
v -0.232269 3.75 2.855958
v -0.238391 3.75 2.80333
v -0.23478 3.75 2.806959
v -0.229955 3.75 2.814116
v -0.227165 3.75 2.821829
v -0.270796 3.75 2.792412
v -0.256456 3.75 2.794028
v -0.246851 3.75 2.797552
v -0.316892 3.75 2.812168
v -0.311568 3.75 2.806965
v -0.29957 3.75 2.798869
v -0.286689 3.75 2.79419
v -0.335088 3.75 2.861556
v -0.335047 3.75 2.858739
v -0.332313 3.75 2.839795
v -0.326086 3.75 2.824648
v -0.335088 3.75 2.884778
v -0.435078 3.76 2.815634
v -0.452485 3.76 2.804952
v -0.504915 3.76 2.792239
v -0.479144 3.76 2.795151
v -0.435078 3.76 2.77179
v -0.460521 3.76 2.762359
v -0.500756 3.76 2.757581
v -0.538833 3.76 2.762064
v -0.561227 3.76 2.770645
v -0.571286 3.76 2.776816
v -0.583433 3.76 2.787439
v -0.591347 3.76 2.798637
v -0.596561 3.76 2.812092
v -0.59858 3.76 2.82915
v -0.596825 3.76 2.844968
v -0.592294 3.76 2.857486
v -0.58437 3.76 2.869181
v -0.574247 3.76 2.878214
v -0.546049 3.76 2.893895
v -0.529609 3.76 2.900547
v -0.503334 3.76 2.911984
v -0.488366 3.76 2.921342
v -0.484225 3.76 2.925899
v -0.481166 3.76 2.931628
v -0.479482 3.76 2.938223
v -0.479095 3.76 2.94387
v -0.479863 3.76 2.950642
v -0.481959 3.76 2.956374
v -0.485599 3.76 2.961777
v -0.492005 3.76 2.967438
v -0.501525 3.76 2.972501
v -0.512883 3.76 2.975507
v -0.52545 3.76 2.976449
v -0.552251 3.76 2.973532
v -0.576299 3.76 2.964991
v -0.586969 3.76 2.958947
v -0.586969 3.76 3.00019
v -0.559394 3.76 3.008292
v -0.529609 3.76 3.010935
v -0.500353 3.76 3.007981
v -0.476653 3.76 2.999963
v -0.462545 3.76 2.991699
v -0.449952 3.76 2.980377
v -0.442066 3.76 2.968902
v -0.437012 3.76 2.955232
v -0.435338 3.76 2.940058
v -0.437163 3.76 2.923573
v -0.441846 3.76 2.910609
v -0.447382 3.76 2.90176
v -0.49963 3.76 2.869701
v -0.474323 3.76 2.881301
v -0.454328 3.76 2.894496
v -0.527508 3.76 2.858025
v -0.544079 3.76 2.848039
v -0.54937 3.76 2.842531
v -0.552652 3.76 2.836902
v -0.554581 3.76 2.830273
v -0.554997 3.76 2.824991
v -0.554117 3.76 2.816892
v -0.55196 3.76 2.810854
v -0.548253 3.76 2.805373
v -0.543381 3.76 2.801048
v -0.53951 3.76 2.7987
v -0.528555 3.76 2.79469
v -0.50679 3.76 2.792251
v -0.809044 3.76 3.005389
v -0.853061 3.76 3.005389
v -0.742933 3.76 2.823085
v -0.739684 3.76 2.8118
v -0.737734 3.76 2.803503
v -0.736608 3.76 2.803503
v -0.731409 3.76 2.823432
v -0.668157 3.76 3.005389
v -0.620675 3.76 3.005389
v -0.715639 3.76 2.763819
v -0.69701 3.76 2.719803
v -0.688548 3.76 2.704344
v -0.680638 3.76 2.695563
v -0.673541 3.76 2.690582
v -0.664307 3.76 2.686952
v -0.653514 3.76 2.685664
v -0.638112 3.76 2.68767
v -0.629426 3.76 2.690516
v -0.629426 3.76 2.652738
v -0.647434 3.76 2.649609
v -0.656806 3.76 2.649272
v -0.673959 3.76 2.651245
v -0.690713 3.76 2.657627
v -0.705542 3.76 2.667991
v -0.708437 3.76 2.670644
v -0.723973 3.76 2.689303
v -0.743193 3.76 2.726734
v -1.081114 3.76 2.801943
v -1.081114 3.76 2.763299
v -0.942567 3.76 2.801943
v -0.942567 3.76 2.91597
v -1.063785 3.76 2.91597
v -1.063785 3.76 2.954788
v -0.942567 3.76 2.954788
v -0.942567 3.76 3.063269
v -1.073403 3.76 3.063269
v -1.073403 3.76 3.10226
v -0.89881 3.76 3.10226
v -0.89881 3.76 2.763299
v -1.369994 3.76 2.810781
v -1.334931 3.76 2.833606
v -1.334566 3.76 2.785385
v -1.313071 3.76 2.818414
v -1.295922 3.76 2.770301
v -1.28508 3.76 2.807553
v -1.238378 3.76 2.763299
v -1.238118 3.76 2.801943
v -1.145146 3.76 2.763299
v -1.188902 3.76 2.801943
v -1.145146 3.76 3.10226
v -1.188902 3.76 3.063269
v -1.241844 3.76 3.10226
v -1.240111 3.76 3.063269
v -1.244156 3.76 3.063233
v -1.293601 3.76 3.096545
v -1.287334 3.76 3.057545
v -1.334509 3.76 3.0816
v -1.316114 3.76 3.046317
v -1.369994 3.76 3.057377
v -1.337934 3.76 3.031383
v -1.381954 3.76 3.045678
v -1.347391 3.76 3.022062
v -1.402936 3.76 3.016124
v -1.360528 3.76 3.003062
v -1.415473 3.76 2.983794
v -1.370082 3.76 2.978307
v -1.421115 3.76 2.937112
v -1.375106 3.76 2.935899
v -1.420096 3.76 2.91551
v -1.373722 3.76 2.912157
v -1.411882 3.76 2.875828
v -1.366811 3.76 2.881611
v -1.395188 3.76 2.84077
v -1.354824 3.76 2.856748
v -1.338888 3.76 2.837295
v -1.240111 3.75 3.063269
v -1.188902 3.75 3.063269
v -1.188902 3.75 2.801943
v -1.238118 3.75 2.801943
v -1.338888 3.75 2.837295
v -1.334931 3.75 2.833606
v -1.313071 3.75 2.818414
v -1.28508 3.75 2.807553
v -1.375106 3.75 2.935899
v -1.373722 3.75 2.912157
v -1.366811 3.75 2.881611
v -1.354824 3.75 2.856748
v -1.337934 3.75 3.031383
v -1.347391 3.75 3.022062
v -1.360528 3.75 3.003062
v -1.370082 3.75 2.978307
v -1.244156 3.75 3.063233
v -1.287334 3.75 3.057545
v -1.316114 3.75 3.046317
v -1.534709 3.76 2.894309
v -1.520845 3.76 2.856011
v -1.648476 3.76 2.894309
v -1.661992 3.76 2.856011
v -1.585397 3.76 3.035196
v -1.569021 3.76 3.10226
v -1.439917 3.76 2.763299
v -1.488266 3.76 2.763299
v -1.588332 3.76 3.045312
v -1.590942 3.76 3.058937
v -1.61581 3.76 3.10226
v -1.591982 3.76 3.058937
v -1.594722 3.76 3.044597
v -1.597268 3.76 3.035196
v -1.744913 3.76 2.763299
v -1.696564 3.76 2.763299
v -1.534709 3.75 2.894309
v -1.648476 3.75 2.894309
v -1.597268 3.75 3.035196
v -1.591982 3.75 3.058937
v -1.594722 3.75 3.044597
v -1.590942 3.75 3.058937
v -1.585397 3.75 3.035196
v -1.588332 3.75 3.045312
v 1.536909 3.76 2.715246
v 1.501069 3.76 2.671014
v 1.558659 3.76 2.928412
v 1.600481 3.76 3.347255
v 1.546757 3.76 3.375751
v 1.559579 3.76 3.524006
v 1.409241 3.76 3.530906
v 1.334531 3.76 3.354978
v 1.297733 3.76 3.431183
v 1.091124 3.76 2.844063
v 1.091124 3.76 2.868163
v 1.295219 3.76 2.926971
v 1.317909 3.76 2.934152
v 1.611159 3.76 2.960745
v 1.592148 3.76 2.776269
v 1.561069 3.76 2.766943
v 1.46467 3.76 3.535727
v 1.25918 3.76 2.897814
v 1.247985 3.76 2.878412
v 1.09242 3.76 2.819064
v 0.753727 3.76 3.046501
v 0.828436 3.76 3.17423
v 1.151373 3.76 3.005531
v 1.334531 3.76 2.935642
v 1.357089 3.76 2.932877
v 1.389637 3.76 3.080387
v 1.378206 3.76 2.924814
v 1.442872 3.76 3.060031
v 1.397177 3.76 2.911645
v 1.492153 3.76 3.025802
v 1.409551 3.76 2.898254
v 1.532003 3.76 2.980252
v 1.421332 3.76 2.877808
v 1.427607 3.76 2.854862
v 1.244612 3.76 3.071282
v 1.302784 3.76 3.08573
v 1.332121 3.76 3.087471
v 1.275304 3.76 2.914554
v 1.397171 3.76 2.771655
v 1.377956 3.76 2.75836
v 1.453928 3.76 2.635479
v 1.355681 3.76 2.750089
v 0.674197 3.76 3.285089
v 0.654918 3.76 3.285089
v 0.556108 3.76 3.415228
v 0.609096 3.76 3.279438
v 0.544206 3.76 3.411225
v 0.567033 3.76 3.263241
v 0.472495 3.76 3.375615
v 0.407144 3.76 3.320313
v 1.359836 3.76 3.588445
v 1.243687 3.76 3.495763
v 1.303202 3.76 3.636946
v 1.179017 3.76 3.543014
v 1.233117 3.76 3.679182
v 1.487259 3.76 3.389831
v 1.46226 3.76 3.391128
v 1.436956 3.76 3.53422
v 1.40586 3.76 3.384154
v 1.351818 3.76 3.364426
v 1.193476 3.76 3.04387
v 0.40669 3.76 2.870573
v 0.519076 3.76 2.966186
v 0.472287 3.76 2.815048
v 0.554717 3.76 2.937094
v 0.545822 3.76 2.779072
v 0.597246 3.76 2.917405
v 0.625998 3.76 2.762124
v 0.640458 3.76 2.909132
v 0.768186 3.76 2.762124
v 0.748907 3.76 2.909132
v 0.781763 3.76 2.764312
v 1.412504 3.76 2.789168
v 1.422739 3.76 2.809073
v 1.427967 3.76 2.83135
v 0.529655 3.76 3.237141
v 0.50182 3.76 3.206053
v 0.357971 3.76 3.251741
v 0.479419 3.76 3.164466
v 0.328528 3.76 3.178133
v 0.468112 3.76 3.118175
v 0.317521 3.76 3.09952
v 0.466939 3.76 3.097111
v 0.328592 3.76 3.013457
v 0.472723 3.76 3.050196
v 0.358878 3.76 2.937166
v 0.489332 3.76 3.007244
v 0.515846 3.76 2.969654
v 0.686247 3.76 3.605616
v 0.780436 3.76 3.49474
v 0.602012 3.76 3.506561
v 0.726093 3.76 3.429785
v 0.688925 3.76 3.352126
v 1.696078 3.76 3.208446
v 1.854401 3.76 3.168506
v 1.703258 3.76 3.15013
v 1.855087 3.76 3.14531
v 1.700389 3.76 3.113066
v 1.843446 3.76 3.05099
v 1.683125 3.76 3.054076
v 1.808938 3.76 2.961265
v 1.654371 3.76 3.005131
v 1.753868 3.76 2.882622
v 1.679172 3.76 2.81883
v 1.241692 3.76 2.85645
v 1.240935 3.76 2.833088
v 1.1065 3.76 2.759566
v 1.246136 3.76 2.809816
v 1.134996 3.76 2.705842
v 1.256897 3.76 2.788788
v 1.172051 3.76 2.664286
v 1.272296 3.76 2.771264
v 1.220055 3.76 2.630886
v 1.290781 3.76 2.758436
v 1.273805 3.76 2.610245
v 1.311784 3.76 2.75042
v 1.332122 3.76 2.603065
v 1.334531 3.76 2.747663
v 1.341426 3.76 2.603239
v 1.398326 3.76 2.612115
v 1.121207 3.76 3.71911
v 1.100282 3.76 3.574917
v 1.014004 3.76 3.730935
v 1.011594 3.76 3.586336
v 0.898176 3.76 3.716707
v 0.929904 3.76 3.576298
v 0.778744 3.76 3.670014
v 0.854328 3.76 3.547349
v 0.786614 3.76 3.500367
v 1.648856 3.76 3.489353
v 1.725516 3.76 3.435476
v 1.642037 3.76 3.3102
v 1.741818 3.76 3.420048
v 1.675437 3.76 3.262197
v 1.799726 3.76 3.345831
v 1.838201 3.76 3.259079
v 0.761021 3.76 2.911372
v 0.818936 3.76 2.787401
v 0.813334 3.76 2.781699
v 0.753791 3.76 2.909771
v 0.797704 3.76 2.770587
v 0.838076 3.76 2.836833
v 0.835789 3.76 2.818882
v 0.829441 3.76 2.80254
v 0.782042 3.76 2.909146
v 0.798579 3.76 2.902613
v 0.837464 3.76 2.846344
v 0.813398 3.76 2.89211
v 0.823356 3.76 2.881129
v 0.832624 3.76 2.864686
v 0.763367 3.76 2.911542
v 1.334531 3.75 2.935642
v 1.317909 3.75 2.934152
v 1.295219 3.75 2.926971
v 1.275304 3.75 2.914554
v 1.25918 3.75 2.897814
v 1.247985 3.75 2.878412
v 1.241692 3.75 2.85645
v 1.240935 3.75 2.833088
v 1.246136 3.75 2.809816
v 1.256897 3.75 2.788788
v 1.272296 3.75 2.771264
v 1.290781 3.75 2.758436
v 1.311784 3.75 2.75042
v 1.334531 3.75 2.747663
v 1.355681 3.75 2.750089
v 1.377956 3.75 2.75836
v 1.397171 3.75 2.771655
v 1.412504 3.75 2.789168
v 1.422739 3.75 2.809073
v 1.427967 3.75 2.83135
v 1.427607 3.75 2.854862
v 1.421332 3.75 2.877808
v 1.409551 3.75 2.898254
v 1.397177 3.75 2.911645
v 1.378206 3.75 2.924814
v 1.357089 3.75 2.932877
usemtl 1
f 1// 2// 3//
f 4// 5// 6//
f 7// 8// 9//
f 10// 11// 12//
f 13// 14// 15//
f 16// 17// 18//
f 19// 20// 21//
f 22// 23// 24//
f 24// 23// 4//
f 25// 26// 24//
f 24// 26// 27//
f 27// 28// 24//
f 24// 28// 29//
f 24// 29// 22//
f 30// 31// 32//
f 33// 34// 35//
f 32// 31// 33//
f 33// 31// 36//
f 33// 36// 34//
f 30// 32// 37//
f 37// 32// 38//
f 37// 38// 39//
f 40// 41// 38//
f 38// 41// 42//
f 38// 42// 43//
f 38// 44// 39//
f 39// 44// 45//
f 39// 45// 46//
f 46// 45// 47//
f 46// 47// 48//
f 43// 49// 38//
f 38// 49// 50//
f 38// 50// 44//
f 51// 52// 53//
f 51// 53// 54//
f 52// 55// 53//
f 53// 55// 56//
f 53// 56// 57//
f 57// 56// 58//
f 58// 59// 57//
f 57// 59// 60//
f 57// 60// 40//
f 40// 60// 61//
f 40// 61// 41//
f 62// 54// 63//
f 63// 54// 53//
f 63// 53// 64//
f 64// 53// 65//
f 66// 67// 68//
f 66// 68// 11//
f 68// 69// 11//
f 11// 69// 70//
f 11// 70// 12//
f 12// 70// 71//
f 12// 71// 53//
f 53// 71// 72//
f 53// 72// 65//
f 1// 73// 2//
f 2// 73// 74//
f 2// 74// 75//
f 75// 76// 2//
f 2// 76// 77//
f 2// 77// 78//
f 79// 80// 5//
f 81// 82// 83//
f 84// 85// 1//
f 86// 87// 88//
f 88// 87// 89//
f 81// 83// 90//
f 84// 1// 91//
f 92// 93// 87//
f 87// 93// 94//
f 87// 94// 95//
f 5// 80// 1//
f 1// 80// 96//
f 1// 96// 91//
f 82// 97// 83//
f 83// 97// 98//
f 83// 98// 99//
f 100// 101// 102//
f 102// 101// 103//
f 102// 103// 104//
f 105// 95// 106//
f 106// 95// 107//
f 106// 107// 102//
f 102// 107// 108//
f 102// 108// 100//
f 105// 109// 95//
f 95// 109// 110//
f 95// 110// 87//
f 87// 110// 111//
f 87// 111// 89//
f 112// 113// 114//
f 114// 113// 115//
f 114// 115// 83//
f 83// 115// 116//
f 83// 116// 90//
f 117// 118// 83//
f 83// 118// 119//
f 83// 119// 87//
f 87// 119// 120//
f 87// 120// 92//
f 121// 122// 73//
f 73// 122// 123//
f 73// 123// 124//
f 124// 125// 73//
f 73// 125// 126//
f 73// 126// 127//
f 127// 126// 112//
f 127// 112// 128//
f 128// 112// 114//
f 85// 129// 1//
f 1// 129// 130//
f 1// 130// 73//
f 73// 130// 131//
f 73// 131// 121//
f 99// 132// 83//
f 83// 132// 133//
f 83// 133// 134//
f 134// 135// 83//
f 83// 135// 136//
f 83// 136// 117//
f 137// 138// 139//
f 139// 95// 137//
f 137// 95// 94//
f 137// 94// 140//
f 140// 94// 141//
f 141// 142// 140//
f 140// 142// 143//
f 140// 143// 144//
f 145// 146// 147//
f 146// 148// 147//
f 147// 148// 149//
f 147// 149// 150//
f 151// 147// 152//
f 138// 137// 151//
f 151// 137// 153//
f 151// 153// 147//
f 147// 153// 154//
f 147// 154// 145//
f 152// 155// 151//
f 151// 155// 156//
f 151// 156// 157//
f 150// 149// 158//
f 158// 149// 159//
f 158// 159// 160//
f 160// 159// 161//
f 160// 161// 162//
f 163// 164// 157//
f 157// 164// 165//
f 157// 165// 151//
f 23// 166// 4//
f 4// 166// 167//
f 4// 167// 5//
f 5// 167// 168//
f 5// 168// 79//
f 169// 170// 171//
f 171// 170// 172//
f 171// 172// 173//
f 173// 172// 174//
f 173// 174// 175//
f 176// 177// 178//
f 178// 177// 179//
f 179// 177// 180//
f 180// 177// 172//
f 180// 172// 181//
f 181// 172// 170//
f 181// 170// 21//
f 21// 170// 182//
f 21// 182// 19//
f 174// 183// 175//
f 175// 183// 184//
f 175// 184// 185//
f 185// 184// 186//
f 187// 188// 189//
f 190// 191// 192//
f 192// 191// 193//
f 189// 188// 194//
f 195// 196// 197//
f 197// 196// 194//
f 198// 199// 200//
f 200// 201// 202//
f 203// 204// 205//
f 205// 204// 206//
f 190// 207// 191//
f 191// 207// 208//
f 191// 208// 209//
f 209// 208// 210//
f 211// 212// 210//
f 210// 212// 213//
f 210// 213// 209//
f 214// 215// 189//
f 189// 215// 216//
f 199// 217// 200//
f 200// 217// 218//
f 200// 218// 201//
f 216// 219// 189//
f 189// 219// 220//
f 189// 220// 187//
f 202// 221// 200//
f 200// 221// 222//
f 200// 222// 204//
f 204// 222// 193//
f 204// 193// 206//
f 206// 193// 191//
f 223// 224// 225//
f 226// 227// 228//
f 203// 229// 204//
f 204// 229// 230//
f 204// 230// 231//
f 232// 233// 210//
f 210// 233// 234//
f 210// 234// 235//
f 236// 196// 237//
f 223// 225// 195//
f 228// 238// 226//
f 226// 238// 236//
f 226// 236// 239//
f 239// 236// 237//
f 235// 240// 210//
f 210// 240// 241//
f 210// 241// 211//
f 225// 242// 195//
f 195// 242// 243//
f 195// 243// 196//
f 196// 243// 244//
f 196// 244// 237//
f 245// 246// 247//
f 247// 246// 248//
f 249// 250// 18//
f 251// 252// 253//
f 253// 252// 254//
f 253// 254// 255//
f 256// 257// 18//
f 18// 257// 258//
f 255// 259// 253//
f 253// 259// 260//
f 253// 260// 261//
f 261// 260// 262//
f 261// 262// 249//
f 263// 264// 250//
f 250// 264// 265//
f 250// 265// 18//
f 18// 265// 266//
f 18// 266// 256//
f 258// 267// 18//
f 18// 267// 268//
f 18// 268// 16//
f 269// 270// 271//
f 271// 270// 272//
f 271// 272// 273//
f 271// 274// 269//
f 269// 274// 275//
f 269// 275// 276//
f 276// 277// 269//
f 269// 277// 278//
f 269// 278// 279//
f 279// 278// 280//
f 279// 280// 281//
f 281// 280// 282//
f 281// 282// 250//
f 250// 282// 283//
f 250// 283// 263//
f 284// 285// 273//
f 273// 285// 286//
f 273// 286// 271//
f 287// 288// 224//
f 224// 288// 289//
f 224// 289// 225//
f 287// 290// 288//
f 288// 290// 291//
f 288// 291// 292//
f 292// 291// 293//
f 292// 294// 295//
f 293// 296// 292//
f 292// 296// 297//
f 292// 297// 298//
f 298// 299// 292//
f 292// 299// 300//
f 292// 300// 294//
f 295// 301// 292//
f 292// 301// 302//
f 292// 302// 303//
f 304// 305// 306//
f 306// 305// 307//
f 306// 307// 308//
f 309// 310// 311//
f 311// 310// 312//
f 305// 313// 307//
f 307// 313// 314//
f 307// 314// 315//
f 315// 314// 316//
f 315// 316// 317//
f 317// 316// 318//
f 317// 318// 312//
f 312// 318// 319//
f 312// 319// 311//
f 320// 321// 322//
f 323// 324// 325//
f 320// 322// 326//
f 326// 322// 327//
f 326// 327// 325//
f 325// 327// 328//
f 325// 328// 323//
f 329// 330// 315//
f 331// 332// 317//
f 330// 333// 315//
f 315// 333// 334//
f 315// 334// 320//
f 320// 334// 335//
f 320// 335// 321//
f 331// 317// 336//
f 323// 337// 324//
f 324// 337// 338//
f 324// 338// 317//
f 317// 338// 339//
f 317// 339// 336//
f 332// 340// 317//
f 317// 340// 341//
f 317// 341// 315//
f 315// 341// 342//
f 315// 342// 329//
f 325// 343// 344//
f 344// 343// 345//
f 346// 347// 348//
f 348// 347// 349//
f 349// 347// 350//
f 350// 347// 351//
f 350// 351// 352//
f 352// 351// 353//
f 352// 353// 15//
f 15// 353// 354//
f 15// 354// 13//
f 355// 356// 357//
f 344// 353// 325//
f 325// 353// 351//
f 325// 351// 326//
f 326// 351// 358//
f 326// 358// 357//
f 357// 358// 359//
f 357// 359// 355//
f 345// 343// 360//
f 360// 343// 361//
f 360// 361// 355//
f 362// 363// 364//
f 364// 363// 365//
f 364// 365// 366//
f 367// 368// 361//
f 361// 368// 369//
f 361// 369// 370//
f 371// 372// 356//
f 372// 373// 356//
f 356// 373// 374//
f 356// 374// 375//
f 376// 377// 371//
f 355// 361// 356//
f 356// 361// 370//
f 356// 370// 371//
f 371// 370// 378//
f 371// 378// 376//
f 377// 379// 371//
f 371// 379// 380//
f 371// 380// 381//
f 382// 383// 384//
f 381// 385// 371//
f 371// 385// 386//
f 371// 386// 387//
f 387// 386// 388//
f 388// 386// 384//
f 384// 386// 389//
f 384// 389// 382//
f 383// 390// 384//
f 384// 390// 391//
f 384// 391// 392//
f 392// 393// 384//
f 384// 393// 394//
f 384// 394// 395//
f 395// 394// 396//
f 8// 397// 398//
f 398// 397// 367//
f 398// 367// 399//
f 9// 400// 401//
f 401// 402// 9//
f 9// 402// 403//
f 9// 403// 7//
f 404// 405// 406//
f 407// 408// 409//
f 409// 408// 410//
f 409// 410// 9//
f 9// 410// 411//
f 9// 411// 400//
f 412// 413// 414//
f 414// 413// 415//
f 414// 415// 416//
f 417// 418// 204//
f 204// 418// 419//
f 204// 419// 414//
f 414// 419// 420//
f 414// 420// 412//
f 375// 417// 253//
f 253// 417// 204//
f 253// 204// 251//
f 251// 204// 231//
f 251// 231// 227//
f 227// 231// 421//
f 227// 421// 228//
f 422// 248// 423//
f 423// 248// 246//
f 423// 246// 424//
f 198// 200// 425//
f 425// 200// 424//
f 425// 424// 426//
f 426// 424// 188//
f 188// 424// 246//
f 188// 246// 194//
f 194// 246// 245//
f 194// 245// 197//
f 427// 428// 429//
f 169// 171// 430//
f 430// 171// 431//
f 430// 431// 186//
f 186// 431// 429//
f 186// 429// 185//
f 185// 429// 428//
f 185// 428// 432//
f 433// 434// 435//
f 429// 436// 427//
f 427// 436// 437//
f 427// 437// 438//
f 438// 437// 433//
f 438// 433// 439//
f 439// 433// 435//
f 440// 441// 18//
f 18// 441// 442//
f 249// 18// 261//
f 261// 18// 442//
f 261// 442// 436//
f 436// 442// 443//
f 436// 443// 437//
f 444// 441// 445//
f 445// 441// 440//
f 445// 440// 446//
f 447// 448// 449//
f 450// 451// 440//
f 440// 451// 452//
f 440// 452// 446//
f 422// 423// 17//
f 17// 423// 447//
f 17// 447// 18//
f 18// 447// 449//
f 18// 449// 440//
f 440// 449// 453//
f 440// 453// 454//
f 455// 456// 457//
f 457// 456// 458//
f 457// 458// 447//
f 447// 458// 459//
f 447// 459// 448//
f 454// 460// 440//
f 440// 460// 461//
f 440// 461// 450//
f 462// 463// 464//
f 462// 464// 432//
f 463// 465// 464//
f 464// 465// 466//
f 464// 466// 457//
f 457// 466// 467//
f 457// 467// 455//
f 32// 468// 38//
f 38// 468// 469//
f 38// 469// 40//
f 40// 469// 470//
f 40// 470// 57//
f 57// 470// 471//
f 57// 471// 53//
f 53// 471// 472//
f 53// 472// 12//
f 12// 472// 473//
f 12// 473// 10//
f 10// 473// 474//
f 10// 474// 475//
f 476// 477// 406//
f 406// 477// 478//
f 479// 409// 24//
f 405// 407// 406//
f 406// 407// 409//
f 406// 409// 476//
f 476// 409// 479//
f 476// 479// 480//
f 6// 406// 4//
f 4// 406// 478//
f 4// 478// 24//
f 24// 478// 481//
f 24// 481// 479//
f 482// 483// 484//
f 483// 482// 485//
f 485// 482// 6//
f 485// 6// 486//
f 487// 488// 489//
f 489// 488// 485//
f 489// 485// 490//
f 490// 485// 486//
f 490// 486// 491//
f 491// 486// 492//
f 3// 482// 1//
f 1// 482// 484//
f 1// 484// 5//
f 5// 484// 493//
f 5// 493// 6//
f 6// 493// 494//
f 6// 494// 486//
f 8// 398// 9//
f 9// 398// 495//
f 9// 495// 409//
f 409// 495// 33//
f 409// 33// 24//
f 24// 33// 35//
f 24// 35// 25//
f 3// 424// 482//
f 482// 424// 200//
f 482// 200// 6//
f 6// 200// 204//
f 6// 204// 406//
f 406// 204// 414//
f 406// 414// 404//
f 404// 414// 416//
f 375// 253// 356//
f 356// 253// 261//
f 356// 261// 357//
f 357// 261// 436//
f 357// 436// 326//
f 326// 436// 429//
f 326// 429// 320//
f 320// 429// 431//
f 320// 431// 315//
f 315// 431// 171//
f 315// 171// 307//
f 432// 464// 185//
f 185// 464// 496//
f 185// 496// 175//
f 175// 496// 497//
f 175// 497// 173//
f 367// 361// 399//
f 399// 361// 343//
f 399// 343// 498//
f 498// 343// 325//
f 498// 325// 499//
f 499// 325// 324//
f 499// 324// 500//
f 500// 324// 317//
f 500// 317// 501//
f 501// 317// 312//
f 501// 312// 502//
f 502// 312// 310//
f 502// 310// 503//
f 504// 505// 173//
f 506// 507// 508//
f 508// 504// 506//
f 506// 504// 173//
f 506// 173// 509//
f 510// 511// 512//
f 513// 505// 514//
f 514// 505// 515//
f 514// 515// 516//
f 516// 515// 517//
f 513// 518// 505//
f 505// 518// 519//
f 505// 519// 520//
f 521// 171// 522//
f 522// 171// 173//
f 522// 173// 523//
f 523// 173// 505//
f 523// 505// 524//
f 524// 505// 520//
f 311// 308// 309//
f 309// 308// 307//
f 309// 307// 511//
f 511// 307// 171//
f 511// 171// 512//
f 512// 171// 515//
f 525// 526// 515//
f 515// 526// 527//
f 515// 527// 517//
f 521// 528// 171//
f 171// 528// 529//
f 171// 529// 515//
f 515// 529// 530//
f 515// 530// 525//
f 512// 509// 510//
f 510// 509// 173//
f 510// 173// 365//
f 365// 173// 497//
f 365// 497// 366//
f 366// 497// 496//
f 366// 496// 531//
f 531// 496// 464//
f 531// 464// 532//
f 532// 464// 457//
f 532// 457// 533//
f 533// 457// 447//
f 533// 447// 534//
f 534// 447// 423//
f 534// 423// 535//
f 535// 423// 424//
f 535// 424// 536//
f 536// 424// 3//
f 536// 3// 537//
f 537// 3// 2//
f 537// 2// 66//
f 66// 2// 78//
f 66// 78// 67//
f 66// 11// 538//
f 539// 540// 541//
f 542// 543// 539//
f 539// 543// 544//
f 539// 544// 540//
f 540// 544// 545//
f 546// 11// 547//
f 547// 11// 10//
f 547// 10// 548//
f 548// 10// 549//
f 548// 549// 550//
f 549// 539// 550//
f 550// 539// 541//
f 550// 541// 546//
f 546// 541// 551//
f 546// 551// 11//
f 11// 551// 545//
f 11// 545// 538//
f 538// 545// 544//
f 535// 536// 538//
f 538// 536// 537//
f 538// 537// 66//
f 532// 533// 538//
f 538// 533// 534//
f 538// 534// 535//
f 539// 364// 542//
f 542// 364// 366//
f 542// 366// 538//
f 538// 366// 531//
f 538// 531// 532//
f 552// 553// 475//
f 475// 554// 552//
f 552// 554// 555//
f 552// 555// 556//
f 557// 558// 559//
f 560// 561// 562//
f 562// 561// 563//
f 475// 474// 554//
f 554// 474// 563//
f 554// 563// 564//
f 564// 563// 561//
f 556// 555// 559//
f 559// 555// 565//
f 559// 565// 557//
f 566// 567// 568//
f 568// 567// 569//
f 570// 571// 539//
f 539// 571// 572//
f 573// 574// 539//
f 553// 552// 549//
f 549// 552// 575//
f 576// 577// 549//
f 549// 577// 578//
f 549// 578// 579//
f 574// 580// 539//
f 539// 580// 581//
f 539// 581// 582//
f 579// 583// 549//
f 549// 583// 584//
f 549// 584// 539//
f 539// 584// 585//
f 539// 585// 573//
f 582// 586// 539//
f 539// 586// 587//
f 539// 587// 570//
f 570// 587// 588//
f 588// 589// 570//
f 570// 589// 590//
f 570// 590// 591//
f 592// 575// 593//
f 593// 575// 570//
f 593// 570// 594//
f 594// 570// 591//
f 592// 595// 575//
f 575// 595// 596//
f 575// 596// 549//
f 549// 596// 597//
f 549// 597// 576//
f 555// 554// 598//
f 598// 554// 599//
f 600// 601// 602//
f 602// 601// 603//
f 363// 362// 572//
f 572// 568// 363//
f 363// 568// 569//
f 363// 569// 604//
f 605// 606// 607//
f 608// 609// 610//
f 610// 609// 611//
f 572// 571// 568//
f 568// 571// 611//
f 568// 611// 612//
f 612// 611// 609//
f 604// 569// 607//
f 607// 569// 613//
f 607// 613// 605//
f 549// 10// 553//
f 553// 10// 475//
f 364// 539// 362//
f 362// 539// 572//
usemtl 2
f 614// 594// 615//
f 615// 594// 591//
f 615// 591// 616//
f 616// 591// 590//
f 616// 590// 617//
f 617// 590// 589//
f 617// 589// 618//
f 618// 589// 588//
f 618// 588// 619//
f 619// 588// 587//
f 619// 587// 620//
f 620// 587// 586//
f 620// 586// 621//
f 621// 586// 582//
f 621// 582// 622//
f 622// 582// 581//
f 622// 581// 623//
f 623// 581// 580//
f 623// 580// 624//
f 624// 580// 574//
f 624// 574// 625//
f 625// 574// 573//
f 625// 573// 626//
f 626// 573// 585//
f 626// 585// 627//
f 627// 585// 584//
f 627// 584// 628//
f 628// 584// 583//
f 628// 583// 629//
f 629// 583// 579//
f 629// 579// 630//
f 630// 579// 578//
f 630// 578// 631//
f 631// 578// 577//
f 631// 577// 632//
f 632// 577// 576//
f 632// 576// 633//
f 633// 576// 597//
f 633// 597// 634//
f 634// 597// 596//
f 634// 596// 635//
f 635// 596// 595//
f 635// 595// 636//
f 636// 595// 592//
f 636// 592// 637//
f 637// 592// 593//
f 637// 593// 614//
f 614// 593// 594//
f 624// 625// 638//
f 638// 625// 626//
f 638// 626// 627//
f 621// 622// 638//
f 638// 622// 623//
f 638// 623// 624//
f 618// 619// 638//
f 638// 619// 620//
f 638// 620// 621//
f 615// 616// 638//
f 638// 616// 617//
f 638// 617// 618//
f 636// 637// 638//
f 638// 637// 614//
f 638// 614// 615//
f 633// 634// 638//
f 638// 634// 635//
f 638// 635// 636//
f 630// 631// 638//
f 638// 631// 632//
f 638// 632// 633//
f 627// 628// 638//
f 638// 628// 629//
f 638// 629// 630//
usemtl 3
f 639// 547// 640//
f 640// 547// 548//
f 640// 548// 641//
f 641// 548// 550//
f 550// 546// 641//
f 641// 546// 642//
f 546// 547// 642//
f 642// 547// 639//
f 642// 639// 641//
f 641// 639// 640//
f 643// 541// 644//
f 644// 541// 540//
f 645// 551// 643//
f 643// 551// 541//
f 545// 551// 646//
f 646// 551// 645//
f 540// 545// 644//
f 644// 545// 646//
f 645// 643// 646//
f 646// 643// 644//
f 647// 538// 648//
f 648// 538// 544//
f 648// 544// 649//
f 649// 544// 543//
f 543// 542// 649//
f 649// 542// 650//
f 542// 538// 650//
f 650// 538// 647//
f 650// 647// 649//
f 649// 647// 648//
usemtl 1
f 575// 552// 556//
f 575// 556// 651//
f 651// 556// 559//
f 651// 559// 652//
f 652// 559// 558//
f 652// 558// 653//
f 653// 558// 557//
f 653// 557// 654//
f 654// 557// 565//
f 654// 565// 655//
f 655// 565// 555//
f 655// 555// 598//
f 603// 601// 656//
f 603// 656// 657//
f 657// 656// 658//
f 657// 658// 659//
f 659// 658// 660//
f 659// 660// 661//
f 661// 660// 662//
f 661// 662// 663//
f 663// 662// 664//
f 663// 664// 665//
f 665// 664// 570//
f 665// 570// 575//
f 566// 568// 612//
f 566// 612// 666//
f 666// 612// 609//
f 666// 609// 667//
f 667// 609// 608//
f 667// 608// 668//
f 668// 608// 610//
f 668// 610// 669//
f 669// 610// 611//
f 669// 611// 670//
f 670// 611// 571//
f 670// 571// 570//
f 598// 671// 672//
f 673// 674// 675//
f 603// 657// 676//
f 675// 674// 603//
f 677// 603// 674//
f 677// 674// 678//
f 678// 674// 673//
f 678// 673// 679//
f 680// 603// 677//
f 681// 682// 683//
f 683// 682// 676//
f 683// 676// 684//
f 684// 676// 657//
f 684// 657// 659//
f 680// 677// 685//
f 685// 677// 678//
f 685// 678// 686//
f 686// 678// 679//
f 686// 679// 687//
f 688// 681// 689//
f 689// 681// 683//
f 689// 683// 690//
f 690// 683// 684//
f 690// 684// 691//
f 691// 684// 659//
f 691// 659// 661//
f 692// 688// 693//
f 693// 688// 689//
f 693// 689// 694//
f 694// 689// 690//
f 694// 690// 695//
f 695// 690// 691//
f 695// 691// 696//
f 696// 691// 661//
f 696// 661// 663//
f 671// 692// 672//
f 672// 692// 693//
f 672// 693// 697//
f 697// 693// 694//
f 697// 694// 698//
f 698// 694// 695//
f 698// 695// 699//
f 699// 695// 696//
f 699// 696// 700//
f 700// 696// 663//
f 700// 663// 665//
f 598// 672// 655//
f 655// 672// 697//
f 655// 697// 654//
f 654// 697// 698//
f 654// 698// 653//
f 653// 698// 699//
f 653// 699// 652//
f 652// 699// 700//
f 652// 700// 651//
f 651// 700// 665//
f 651// 665// 575//
f 682// 603// 676//
f 671// 687// 692//
f 692// 687// 679//
f 692// 679// 688//
f 688// 679// 673//
f 688// 673// 681//
f 681// 673// 675//
f 681// 675// 682//
f 682// 675// 603//
f 570// 664// 701//
f 702// 703// 704//
f 601// 705// 706//
f 704// 703// 601//
f 707// 601// 703//
f 707// 703// 708//
f 708// 703// 702//
f 708// 702// 709//
f 656// 601// 707//
f 710// 711// 712//
f 712// 711// 706//
f 712// 706// 713//
f 713// 706// 705//
f 713// 705// 714//
f 656// 707// 658//
f 658// 707// 708//
f 658// 708// 660//
f 660// 708// 709//
f 660// 709// 662//
f 715// 710// 716//
f 716// 710// 712//
f 716// 712// 717//
f 717// 712// 713//
f 717// 713// 718//
f 718// 713// 714//
f 718// 714// 719//
f 720// 715// 721//
f 721// 715// 716//
f 721// 716// 722//
f 722// 716// 717//
f 722// 717// 723//
f 723// 717// 718//
f 723// 718// 724//
f 724// 718// 719//
f 724// 719// 725//
f 664// 720// 701//
f 701// 720// 721//
f 701// 721// 726//
f 726// 721// 722//
f 726// 722// 727//
f 727// 722// 723//
f 727// 723// 728//
f 728// 723// 724//
f 728// 724// 729//
f 729// 724// 725//
f 729// 725// 730//
f 570// 701// 670//
f 670// 701// 726//
f 670// 726// 669//
f 669// 726// 727//
f 669// 727// 668//
f 668// 727// 728//
f 668// 728// 667//
f 667// 728// 729//
f 667// 729// 666//
f 666// 729// 730//
f 666// 730// 566//
f 711// 601// 706//
f 664// 662// 720//
f 720// 662// 709//
f 720// 709// 715//
f 715// 709// 702//
f 715// 702// 710//
f 710// 702// 704//
f 710// 704// 711//
f 711// 704// 601//
f 599// 554// 564//
f 474// 473// 563//
f 563// 473// 472//
f 599// 564// 731//
f 731// 564// 561//
f 731// 561// 732//
f 732// 561// 560//
f 732// 560// 733//
f 733// 560// 562//
f 733// 562// 734//
f 734// 562// 563//
f 734// 563// 735//
f 735// 563// 472//
f 735// 472// 471//
f 471// 470// 735//
f 735// 470// 469//
f 735// 469// 468//
f 602// 603// 680//
f 602// 680// 736//
f 736// 680// 685//
f 736// 685// 737//
f 737// 685// 686//
f 737// 686// 738//
f 738// 686// 687//
f 738// 687// 739//
f 739// 687// 671//
f 739// 671// 740//
f 740// 671// 598//
f 740// 598// 599//
f 601// 600// 741//
f 601// 741// 705//
f 705// 741// 742//
f 705// 742// 714//
f 714// 742// 743//
f 714// 743// 719//
f 719// 743// 744//
f 719// 744// 725//
f 725// 744// 745//
f 725// 745// 730//
f 730// 745// 567//
f 730// 567// 566//
f 746// 503// 310//
f 310// 309// 604//
f 604// 309// 511//
f 511// 510// 604//
f 604// 510// 365//
f 604// 365// 363//
f 310// 604// 746//
f 746// 604// 607//
f 746// 607// 747//
f 747// 607// 606//
f 747// 606// 748//
f 748// 606// 605//
f 748// 605// 749//
f 749// 605// 613//
f 749// 613// 750//
f 750// 613// 569//
f 750// 569// 567//
f 468// 751// 752//
f 753// 754// 755//
f 602// 736// 756//
f 755// 754// 602//
f 757// 602// 754//
f 757// 754// 758//
f 758// 754// 753//
f 758// 753// 759//
f 760// 602// 757//
f 761// 762// 763//
f 763// 762// 756//
f 763// 756// 764//
f 764// 756// 736//
f 764// 736// 737//
f 760// 757// 765//
f 765// 757// 758//
f 765// 758// 766//
f 766// 758// 759//
f 766// 759// 767//
f 768// 761// 769//
f 769// 761// 763//
f 769// 763// 770//
f 770// 763// 764//
f 770// 764// 771//
f 771// 764// 737//
f 771// 737// 738//
f 772// 768// 773//
f 773// 768// 769//
f 773// 769// 774//
f 774// 769// 770//
f 774// 770// 775//
f 775// 770// 771//
f 775// 771// 776//
f 776// 771// 738//
f 776// 738// 739//
f 751// 772// 752//
f 752// 772// 773//
f 752// 773// 777//
f 777// 773// 774//
f 777// 774// 778//
f 778// 774// 775//
f 778// 775// 779//
f 779// 775// 776//
f 779// 776// 780//
f 780// 776// 739//
f 780// 739// 740//
f 468// 752// 735//
f 735// 752// 777//
f 735// 777// 734//
f 734// 777// 778//
f 734// 778// 733//
f 733// 778// 779//
f 733// 779// 732//
f 732// 779// 780//
f 732// 780// 731//
f 731// 780// 740//
f 731// 740// 599//
f 762// 602// 756//
f 751// 767// 772//
f 772// 767// 759//
f 772// 759// 768//
f 768// 759// 753//
f 768// 753// 761//
f 761// 753// 755//
f 761// 755// 762//
f 762// 755// 602//
f 567// 745// 781//
f 782// 783// 784//
f 600// 785// 786//
f 784// 783// 600//
f 787// 600// 783//
f 787// 783// 788//
f 788// 783// 782//
f 788// 782// 789//
f 741// 600// 787//
f 790// 791// 792//
f 792// 791// 786//
f 792// 786// 793//
f 793// 786// 785//
f 793// 785// 794//
f 741// 787// 742//
f 742// 787// 788//
f 742// 788// 743//
f 743// 788// 789//
f 743// 789// 744//
f 795// 790// 796//
f 796// 790// 792//
f 796// 792// 797//
f 797// 792// 793//
f 797// 793// 798//
f 798// 793// 794//
f 798// 794// 799//
f 800// 795// 801//
f 801// 795// 796//
f 801// 796// 802//
f 802// 796// 797//
f 802// 797// 803//
f 803// 797// 798//
f 803// 798// 804//
f 804// 798// 799//
f 804// 799// 805//
f 745// 800// 781//
f 781// 800// 801//
f 781// 801// 806//
f 806// 801// 802//
f 806// 802// 807//
f 807// 802// 803//
f 807// 803// 808//
f 808// 803// 804//
f 808// 804// 809//
f 809// 804// 805//
f 809// 805// 810//
f 567// 781// 750//
f 750// 781// 806//
f 750// 806// 749//
f 749// 806// 807//
f 749// 807// 748//
f 748// 807// 808//
f 748// 808// 747//
f 747// 808// 809//
f 747// 809// 746//
f 746// 809// 810//
f 746// 810// 503//
f 791// 600// 786//
f 745// 744// 800//
f 800// 744// 789//
f 800// 789// 795//
f 795// 789// 782//
f 795// 782// 790//
f 790// 782// 784//
f 790// 784// 791//
f 791// 784// 600//
f 600// 602// 760//
f 600// 760// 785//
f 785// 760// 765//
f 785// 765// 794//
f 794// 765// 766//
f 794// 766// 799//
f 799// 766// 767//
f 799// 767// 805//
f 805// 767// 751//
f 805// 751// 810//
f 751// 468// 32//
f 32// 33// 751//
f 751// 33// 495//
f 751// 495// 810//
f 810// 495// 398//
f 810// 398// 399//
f 399// 498// 810//
f 810// 498// 499//
f 810// 499// 500//
f 500// 501// 810//
f 810// 501// 502//
f 810// 502// 503//
usemtl 3
f 811// 812// 476//
f 476// 812// 477//
f 813// 811// 480//
f 480// 811// 476//
f 814// 813// 479//
f 479// 813// 480//
f 815// 814// 481//
f 481// 814// 479//
f 816// 815// 478//
f 478// 815// 481//
f 812// 816// 477//
f 477// 816// 478//
f 814// 815// 813//
f 813// 815// 816//
f 813// 816// 811//
f 811// 816// 812//
f 817// 417// 818//
f 818// 417// 375//
f 375// 374// 818//
f 818// 374// 373//
f 818// 373// 819//
f 819// 373// 372//
f 819// 372// 820//
f 821// 820// 371//
f 371// 820// 372//
f 821// 371// 387//
f 821// 387// 822//
f 822// 387// 388//
f 822// 388// 823//
f 823// 388// 384//
f 823// 384// 824//
f 824// 384// 395//
f 824// 395// 825//
f 825// 395// 396//
f 825// 396// 826//
f 826// 396// 394//
f 826// 394// 827//
f 827// 394// 393//
f 827// 393// 828//
f 828// 393// 392//
f 828// 392// 829//
f 829// 392// 391//
f 829// 391// 830//
f 830// 391// 390//
f 830// 390// 831//
f 831// 390// 383//
f 831// 383// 832//
f 832// 383// 382//
f 832// 382// 833//
f 833// 382// 389//
f 833// 389// 834//
f 834// 389// 386//
f 834// 386// 835//
f 835// 386// 385//
f 835// 385// 836//
f 836// 385// 381//
f 836// 381// 837//
f 837// 381// 380//
f 837// 380// 838//
f 838// 380// 379//
f 838// 379// 839//
f 839// 379// 377//
f 839// 377// 840//
f 840// 377// 376//
f 840// 376// 841//
f 841// 376// 378//
f 841// 378// 842//
f 842// 378// 370//
f 842// 370// 843//
f 844// 843// 369//
f 369// 843// 370//
f 397// 845// 367//
f 367// 845// 846//
f 367// 846// 368//
f 368// 846// 844//
f 368// 844// 369//
f 845// 397// 8//
f 845// 8// 847//
f 8// 7// 847//
f 847// 7// 403//
f 847// 403// 848//
f 848// 403// 402//
f 848// 402// 849//
f 849// 402// 401//
f 849// 401// 850//
f 850// 401// 400//
f 411// 851// 400//
f 400// 851// 852//
f 400// 852// 850//
f 411// 410// 851//
f 851// 410// 408//
f 851// 408// 853//
f 853// 408// 407//
f 853// 407// 854//
f 854// 407// 405//
f 404// 855// 405//
f 405// 855// 856//
f 405// 856// 854//
f 404// 416// 855//
f 855// 416// 415//
f 855// 415// 857//
f 857// 415// 413//
f 857// 413// 858//
f 420// 859// 412//
f 412// 859// 858//
f 412// 858// 413//
f 419// 860// 420//
f 420// 860// 861//
f 420// 861// 859//
f 419// 418// 860//
f 860// 418// 417//
f 860// 417// 817//
f 837// 838// 847//
f 833// 834// 852//
f 852// 834// 850//
f 847// 838// 845//
f 854// 832// 853//
f 853// 832// 833//
f 853// 833// 851//
f 851// 833// 852//
f 838// 839// 845//
f 845// 839// 840//
f 845// 840// 846//
f 846// 840// 841//
f 846// 841// 844//
f 844// 841// 842//
f 844// 842// 843//
f 820// 821// 819//
f 819// 821// 822//
f 819// 822// 818//
f 818// 822// 823//
f 818// 823// 817//
f 817// 823// 824//
f 817// 824// 860//
f 860// 824// 825//
f 860// 825// 861//
f 861// 825// 826//
f 861// 826// 859//
f 859// 826// 827//
f 859// 827// 858//
f 858// 827// 828//
f 858// 828// 857//
f 857// 828// 829//
f 857// 829// 855//
f 855// 829// 856//
f 856// 829// 830//
f 856// 830// 854//
f 854// 830// 831//
f 854// 831// 832//
f 834// 835// 850//
f 850// 835// 836//
f 850// 836// 849//
f 849// 836// 837//
f 849// 837// 848//
f 848// 837// 847//
f 862// 863// 351//
f 351// 863// 358//
f 346// 864// 347//
f 347// 864// 862//
f 347// 862// 351//
f 865// 864// 348//
f 348// 864// 346//
f 865// 348// 866//
f 866// 348// 349//
f 866// 349// 350//
f 867// 866// 352//
f 352// 866// 350//
f 14// 868// 15//
f 15// 868// 867//
f 15// 867// 352//
f 869// 868// 13//
f 13// 868// 14//
f 353// 870// 354//
f 354// 870// 869//
f 354// 869// 13//
f 871// 870// 344//
f 344// 870// 353//
f 360// 872// 345//
f 345// 872// 871//
f 345// 871// 344//
f 873// 872// 355//
f 355// 872// 360//
f 358// 863// 359//
f 359// 863// 873//
f 359// 873// 355//
f 873// 863// 862//
f 862// 864// 873//
f 873// 864// 865//
f 873// 865// 872//
f 870// 871// 869//
f 869// 871// 872//
f 869// 872// 868//
f 868// 872// 865//
f 868// 865// 867//
f 867// 865// 866//
f 874// 875// 876//
f 876// 875// 877//
f 876// 877// 878//
f 878// 877// 879//
f 878// 879// 880//
f 880// 879// 881//
f 880// 881// 882//
f 882// 881// 883//
f 882// 883// 884//
f 884// 883// 885//
f 884// 885// 886//
f 885// 887// 886//
f 886// 887// 888//
f 886// 888// 889//
f 889// 888// 890//
f 889// 890// 891//
f 891// 890// 892//
f 891// 892// 893//
f 893// 892// 894//
f 893// 894// 895//
f 895// 894// 896//
f 895// 896// 897//
f 897// 896// 898//
f 897// 898// 899//
f 899// 898// 900//
f 899// 900// 901//
f 901// 900// 902//
f 901// 902// 903//
f 903// 902// 904//
f 903// 904// 905//
f 905// 904// 906//
f 905// 906// 907//
f 907// 906// 908//
f 907// 908// 874//
f 874// 908// 909//
f 874// 909// 875//
f 880// 882// 322//
f 322// 882// 327//
f 333// 874// 876//
f 880// 322// 321//
f 880// 321// 878//
f 878// 321// 335//
f 878// 335// 876//
f 876// 335// 334//
f 876// 334// 333//
f 874// 333// 330//
f 874// 330// 907//
f 907// 330// 329//
f 907// 329// 905//
f 905// 329// 342//
f 905// 342// 903//
f 903// 342// 341//
f 903// 341// 901//
f 901// 341// 340//
f 901// 340// 899//
f 899// 340// 332//
f 899// 332// 897//
f 897// 332// 331//
f 897// 331// 895//
f 895// 331// 336//
f 895// 336// 893//
f 893// 336// 339//
f 338// 889// 339//
f 339// 889// 891//
f 339// 891// 893//
f 338// 337// 889//
f 889// 337// 323//
f 889// 323// 886//
f 884// 886// 328//
f 328// 886// 323//
f 882// 884// 327//
f 327// 884// 328//
f 887// 885// 910//
f 910// 885// 911//
f 885// 883// 911//
f 911// 883// 912//
f 883// 881// 912//
f 912// 881// 913//
f 909// 914// 915//
f 909// 915// 875//
f 875// 915// 916//
f 875// 916// 877//
f 877// 916// 917//
f 877// 917// 879//
f 879// 917// 913//
f 879// 913// 881//
f 902// 918// 919//
f 902// 919// 904//
f 904// 919// 920//
f 904// 920// 906//
f 906// 920// 921//
f 906// 921// 908//
f 908// 921// 914//
f 908// 914// 909//
f 894// 922// 923//
f 894// 923// 896//
f 896// 923// 924//
f 896// 924// 898//
f 898// 924// 925//
f 898// 925// 900//
f 900// 925// 918//
f 900// 918// 902//
f 887// 910// 926//
f 887// 926// 888//
f 888// 926// 927//
f 888// 927// 890//
f 890// 927// 928//
f 890// 928// 892//
f 892// 928// 922//
f 892// 922// 894//
usemtl 1
f 916// 915// 926//
f 911// 912// 910//
f 910// 912// 913//
f 910// 913// 926//
f 926// 913// 917//
f 926// 917// 916//
f 915// 914// 926//
f 926// 914// 921//
f 926// 921// 920//
f 918// 922// 928//
f 925// 924// 918//
f 918// 924// 923//
f 918// 923// 922//
f 920// 919// 926//
f 926// 919// 918//
f 926// 918// 927//
f 927// 918// 928//
usemtl 3
f 929// 930// 931//
f 931// 930// 932//
f 933// 934// 929//
f 929// 934// 935//
f 929// 935// 930//
f 930// 935// 936//
f 933// 937// 934//
f 934// 937// 938//
f 934// 938// 939//
f 939// 938// 940//
f 939// 940// 941//
f 941// 942// 939//
f 939// 942// 931//
f 939// 931// 943//
f 943// 931// 932//
f 943// 932// 944//
f 939// 943// 311//
f 311// 943// 308//
f 934// 939// 319//
f 319// 939// 311//
f 316// 935// 318//
f 318// 935// 934//
f 318// 934// 319//
f 936// 935// 314//
f 314// 935// 316//
f 930// 936// 313//
f 313// 936// 314//
f 304// 932// 305//
f 305// 932// 930//
f 305// 930// 313//
f 944// 932// 306//
f 306// 932// 304//
f 943// 944// 308//
f 308// 944// 306//
f 929// 931// 945//
f 945// 931// 946//
f 931// 942// 946//
f 946// 942// 947//
f 940// 948// 949//
f 940// 949// 941//
f 941// 949// 947//
f 941// 947// 942//
f 940// 938// 948//
f 948// 938// 950//
f 933// 951// 952//
f 933// 952// 937//
f 937// 952// 950//
f 937// 950// 938//
f 933// 929// 951//
f 951// 929// 945//
usemtl 1
f 948// 950// 949//
f 949// 950// 952//
f 949// 952// 947//
f 947// 952// 951//
f 947// 951// 946//
f 946// 951// 945//
usemtl 3
f 953// 954// 485//
f 485// 954// 483//
f 955// 953// 488//
f 488// 953// 485//
f 956// 955// 487//
f 487// 955// 488//
f 957// 956// 489//
f 489// 956// 487//
f 958// 957// 490//
f 490// 957// 489//
f 959// 958// 491//
f 491// 958// 490//
f 960// 959// 492//
f 492// 959// 491//
f 961// 960// 486//
f 486// 960// 492//
f 962// 961// 494//
f 494// 961// 486//
f 963// 962// 493//
f 493// 962// 494//
f 964// 963// 484//
f 484// 963// 493//
f 954// 964// 483//
f 483// 964// 484//
f 964// 954// 953//
f 953// 955// 964//
f 964// 955// 956//
f 964// 956// 963//
f 961// 962// 960//
f 960// 962// 963//
f 960// 963// 959//
f 959// 963// 956//
f 959// 956// 958//
f 958// 956// 957//
f 965// 966// 967//
f 967// 966// 968//
f 969// 970// 968//
f 968// 970// 971//
f 972// 973// 974//
f 974// 973// 975//
f 971// 976// 968//
f 968// 976// 977//
f 968// 977// 967//
f 967// 977// 978//
f 967// 978// 972//
f 972// 978// 979//
f 972// 979// 973//
f 980// 981// 982//
f 982// 981// 983//
f 984// 968// 985//
f 985// 968// 986//
f 985// 986// 987//
f 987// 986// 988//
f 987// 988// 989//
f 989// 988// 990//
f 989// 990// 991//
f 991// 990// 992//
f 991// 992// 993//
f 993// 992// 994//
f 993// 994// 995//
f 995// 994// 996//
f 995// 996// 997//
f 997// 996// 998//
f 997// 998// 999//
f 999// 998// 1000//
f 999// 1000// 1001//
f 1001// 1000// 1002//
f 1001// 1002// 1003//
f 1003// 1002// 1004//
f 983// 981// 1005//
f 1005// 981// 1006//
f 1005// 1006// 1007//
f 1007// 1006// 1008//
f 1007// 1008// 1009//
f 1010// 1011// 1012//
f 1012// 1011// 1013//
f 1012// 1013// 1014//
f 1014// 1013// 1015//
f 1014// 1015// 1016//
f 1016// 1015// 1017//
f 1016// 1017// 1018//
f 1018// 1017// 1019//
f 1018// 1019// 1020//
f 1020// 1019// 1021//
f 1020// 1021// 975//
f 975// 1021// 1022//
f 975// 1022// 974//
f 969// 968// 1023//
f 1023// 968// 984//
f 1023// 984// 982//
f 982// 984// 1024//
f 982// 1024// 980//
f 1008// 1025// 1009//
f 1009// 1025// 1026//
f 1009// 1026// 1027//
f 1027// 1026// 1028//
f 1027// 1028// 1029//
f 1029// 1028// 1030//
f 1029// 1030// 1031//
f 1031// 1030// 1032//
f 1031// 1032// 1010//
f 1010// 1032// 1033//
f 1010// 1033// 1011//
f 998// 229// 203//
f 998// 203// 1000//
f 1000// 203// 205//
f 1000// 205// 1002//
f 1002// 205// 206//
f 1002// 206// 1004//
f 1003// 1004// 191//
f 191// 1004// 206//
f 1003// 191// 209//
f 1003// 209// 1001//
f 1001// 209// 213//
f 1001// 213// 999//
f 999// 213// 212//
f 999// 212// 997//
f 997// 212// 211//
f 997// 211// 995//
f 995// 211// 241//
f 995// 241// 993//
f 993// 241// 240//
f 993// 240// 991//
f 991// 240// 235//
f 991// 235// 989//
f 989// 235// 234//
f 989// 234// 987//
f 987// 234// 233//
f 987// 233// 985//
f 985// 233// 232//
f 985// 232// 984//
f 1024// 984// 210//
f 210// 984// 232//
f 1024// 210// 208//
f 1024// 208// 980//
f 980// 208// 207//
f 980// 207// 981//
f 981// 207// 190//
f 981// 190// 1006//
f 1006// 190// 192//
f 1006// 192// 1008//
f 1008// 192// 193//
f 1008// 193// 1025//
f 1025// 193// 222//
f 1025// 222// 1026//
f 1026// 222// 221//
f 1026// 221// 1028//
f 1028// 221// 202//
f 1028// 202// 1030//
f 1030// 202// 201//
f 1030// 201// 1032//
f 1032// 201// 218//
f 1032// 218// 1033//
f 1033// 218// 217//
f 1033// 217// 1011//
f 426// 1017// 425//
f 425// 1017// 1015//
f 425// 1015// 198//
f 198// 1015// 1013//
f 198// 1013// 199//
f 199// 1013// 1011//
f 199// 1011// 217//
f 426// 188// 1017//
f 1017// 188// 1019//
f 188// 187// 1019//
f 1019// 187// 220//
f 1019// 220// 1021//
f 1021// 220// 219//
f 1021// 219// 1022//
f 1022// 219// 216//
f 1022// 216// 974//
f 974// 216// 215//
f 974// 215// 972//
f 967// 972// 214//
f 214// 972// 215//
f 965// 967// 189//
f 189// 967// 214//
f 966// 965// 194//
f 194// 965// 189//
f 968// 966// 196//
f 196// 966// 194//
f 968// 196// 236//
f 968// 236// 986//
f 986// 236// 238//
f 986// 238// 988//
f 988// 238// 228//
f 988// 228// 990//
f 990// 228// 421//
f 990// 421// 992//
f 992// 421// 231//
f 992// 231// 994//
f 994// 231// 230//
f 994// 230// 996//
f 996// 230// 229//
f 996// 229// 998//
f 983// 1034// 1035//
f 983// 1035// 982//
f 982// 1035// 1036//
f 982// 1036// 1023//
f 1023// 1036// 1037//
f 1023// 1037// 969//
f 1027// 1038// 1039//
f 1027// 1039// 1009//
f 1009// 1039// 1040//
f 1009// 1040// 1007//
f 1007// 1040// 1041//
f 1007// 1041// 1005//
f 1005// 1041// 1034//
f 1005// 1034// 983//
f 1012// 1042// 1043//
f 1012// 1043// 1010//
f 1010// 1043// 1044//
f 1010// 1044// 1031//
f 1031// 1044// 1045//
f 1031// 1045// 1029//
f 1029// 1045// 1038//
f 1029// 1038// 1027//
f 1018// 1046// 1047//
f 1018// 1047// 1016//
f 1016// 1047// 1048//
f 1016// 1048// 1014//
f 1014// 1048// 1042//
f 1014// 1042// 1012//
f 979// 1049// 1050//
f 979// 1050// 973//
f 973// 1050// 1051//
f 973// 1051// 975//
f 975// 1051// 1052//
f 975// 1052// 1020//
f 1020// 1052// 1046//
f 1020// 1046// 1018//
f 971// 1053// 1054//
f 971// 1054// 976//
f 976// 1054// 1055//
f 976// 1055// 977//
f 977// 1055// 1056//
f 977// 1056// 978//
f 978// 1056// 1049//
f 978// 1049// 979//
f 971// 970// 1053//
f 1053// 970// 1057//
f 970// 969// 1057//
f 1057// 969// 1037//
usemtl 1
f 1054// 1053// 1034//
f 1053// 1057// 1037//
f 1037// 1036// 1053//
f 1053// 1036// 1035//
f 1053// 1035// 1034//
f 1054// 1034// 1055//
f 1055// 1034// 1041//
f 1055// 1041// 1056//
f 1043// 1042// 1050//
f 1043// 1050// 1044//
f 1051// 1050// 1052//
f 1052// 1050// 1046//
f 1041// 1040// 1056//
f 1056// 1040// 1039//
f 1056// 1039// 1049//
f 1049// 1039// 1038//
f 1049// 1038// 1050//
f 1050// 1038// 1045//
f 1050// 1045// 1044//
f 1042// 1048// 1050//
f 1050// 1048// 1047//
f 1050// 1047// 1046//
usemtl 3
f 195// 1058// 1059//
f 1060// 290// 287//
f 1060// 287// 1061//
f 1061// 287// 224//
f 1061// 224// 1059//
f 1059// 224// 223//
f 1059// 223// 195//
f 1062// 1058// 197//
f 197// 1058// 195//
f 1062// 197// 1063//
f 1063// 197// 245//
f 422// 1064// 248//
f 248// 1064// 1063//
f 248// 1063// 247//
f 247// 1063// 245//
f 1064// 422// 1065//
f 1065// 422// 17//
f 17// 16// 1065//
f 1065// 16// 268//
f 1065// 268// 1066//
f 1066// 268// 267//
f 1066// 267// 1067//
f 1067// 267// 258//
f 1067// 258// 1068//
f 1068// 258// 257//
f 1068// 257// 1069//
f 1069// 257// 256//
f 1069// 256// 1070//
f 1070// 256// 266//
f 1070// 266// 1071//
f 1071// 266// 265//
f 1071// 265// 1072//
f 1072// 265// 264//
f 1072// 264// 1073//
f 1073// 264// 263//
f 1073// 263// 1074//
f 1074// 263// 283//
f 1074// 283// 1075//
f 1075// 283// 282//
f 1075// 282// 1076//
f 1076// 282// 280//
f 1076// 280// 1077//
f 1077// 280// 278//
f 1077// 278// 1078//
f 1078// 278// 277//
f 1078// 277// 1079//
f 1079// 277// 276//
f 1079// 276// 1080//
f 1080// 276// 275//
f 1080// 275// 1081//
f 1081// 275// 274//
f 1081// 274// 1082//
f 1082// 274// 271//
f 1082// 271// 1083//
f 1083// 271// 286//
f 1083// 286// 1084//
f 1084// 286// 285//
f 1084// 285// 1085//
f 1085// 285// 284//
f 1085// 284// 1086//
f 1086// 284// 273//
f 1086// 273// 1087//
f 1087// 273// 272//
f 1087// 272// 1088//
f 1088// 272// 270//
f 1088// 270// 1089//
f 1089// 270// 269//
f 1089// 269// 1090//
f 1090// 269// 279//
f 1090// 279// 1091//
f 1091// 279// 281//
f 1091// 281// 1092//
f 1092// 281// 250//
f 1092// 250// 1093//
f 1094// 1093// 249//
f 249// 1093// 250//
f 1094// 249// 262//
f 1094// 262// 1095//
f 1095// 262// 260//
f 1095// 260// 1096//
f 1096// 260// 259//
f 1096// 259// 1097//
f 1097// 259// 255//
f 1097// 255// 1098//
f 1098// 255// 254//
f 1098// 254// 1099//
f 1099// 254// 1100//
f 1100// 254// 252//
f 252// 251// 1100//
f 1100// 251// 227//
f 1100// 227// 1101//
f 1101// 227// 226//
f 1101// 226// 1102//
f 1102// 226// 239//
f 1102// 239// 1103//
f 1103// 239// 237//
f 1103// 237// 1104//
f 1104// 237// 244//
f 1104// 244// 1105//
f 1105// 244// 243//
f 1105// 243// 1106//
f 288// 1107// 1108//
f 1106// 243// 242//
f 1106// 242// 1109//
f 1109// 242// 225//
f 1109// 225// 1108//
f 1108// 225// 289//
f 1108// 289// 288//
f 1107// 288// 292//
f 1107// 292// 1110//
f 1110// 292// 303//
f 1110// 303// 1111//
f 1111// 303// 302//
f 1111// 302// 1112//
f 1112// 302// 301//
f 1112// 301// 1113//
f 1113// 301// 295//
f 1113// 295// 1114//
f 1114// 295// 294//
f 1114// 294// 1115//
f 1115// 294// 300//
f 1115// 300// 1116//
f 1116// 300// 299//
f 1116// 299// 1117//
f 1117// 299// 298//
f 1117// 298// 1118//
f 1118// 298// 297//
f 1118// 297// 1119//
f 1119// 297// 296//
f 1119// 296// 1120//
f 1120// 296// 293//
f 1120// 293// 1121//
f 1121// 293// 291//
f 1121// 291// 1122//
f 1122// 291// 290//
f 1122// 290// 1060//
f 1086// 1087// 1098//
f 1098// 1087// 1097//
f 1110// 1077// 1107//
f 1107// 1077// 1078//
f 1066// 1067// 1118//
f 1118// 1067// 1068//
f 1118// 1068// 1117//
f 1117// 1068// 1069//
f 1117// 1069// 1116//
f 1116// 1069// 1070//
f 1116// 1070// 1115//
f 1115// 1070// 1071//
f 1115// 1071// 1114//
f 1114// 1071// 1072//
f 1114// 1072// 1113//
f 1113// 1072// 1073//
f 1113// 1073// 1112//
f 1112// 1073// 1074//
f 1112// 1074// 1111//
f 1111// 1074// 1075//
f 1111// 1075// 1110//
f 1110// 1075// 1076//
f 1110// 1076// 1077//
f 1064// 1060// 1063//
f 1063// 1060// 1061//
f 1063// 1061// 1062//
f 1062// 1061// 1059//
f 1062// 1059// 1058//
f 1087// 1088// 1097//
f 1097// 1088// 1089//
f 1097// 1089// 1096//
f 1096// 1089// 1090//
f 1096// 1090// 1095//
f 1095// 1090// 1091//
f 1095// 1091// 1094//
f 1094// 1091// 1092//
f 1094// 1092// 1093//
f 1118// 1119// 1066//
f 1066// 1119// 1120//
f 1066// 1120// 1065//
f 1065// 1120// 1121//
f 1065// 1121// 1064//
f 1064// 1121// 1122//
f 1064// 1122// 1060//
f 1098// 1099// 1086//
f 1086// 1099// 1100//
f 1086// 1100// 1085//
f 1085// 1100// 1101//
f 1085// 1101// 1084//
f 1084// 1101// 1102//
f 1084// 1102// 1083//
f 1083// 1102// 1103//
f 1083// 1103// 1082//
f 1082// 1103// 1104//
f 1082// 1104// 1081//
f 1081// 1104// 1105//
f 1081// 1105// 1080//
f 1080// 1105// 1106//
f 1080// 1106// 1079//
f 1079// 1106// 1109//
f 1079// 1109// 1078//
f 1078// 1109// 1108//
f 1078// 1108// 1107//
f 1123// 1124// 427//
f 427// 1124// 428//
f 1125// 1123// 438//
f 438// 1123// 427//
f 1125// 438// 439//
f 1125// 439// 1126//
f 1126// 439// 435//
f 1126// 435// 1127//
f 1128// 1127// 434//
f 434// 1127// 435//
f 1129// 1128// 433//
f 433// 1128// 434//
f 443// 1130// 437//
f 437// 1130// 1129//
f 437// 1129// 433//
f 1131// 1130// 442//
f 442// 1130// 443//
f 444// 1132// 441//
f 441// 1132// 1131//
f 441// 1131// 442//
f 446// 1133// 445//
f 445// 1133// 1132//
f 445// 1132// 444//
f 446// 452// 1133//
f 1133// 452// 1134//
f 452// 451// 1134//
f 1134// 451// 450//
f 1134// 450// 1135//
f 1135// 450// 461//
f 1135// 461// 1136//
f 1136// 461// 460//
f 1136// 460// 1137//
f 1137// 460// 454//
f 1137// 454// 1138//
f 1138// 454// 453//
f 1138// 453// 1139//
f 1139// 453// 449//
f 1139// 449// 1140//
f 1141// 1140// 448//
f 448// 1140// 449//
f 1141// 448// 459//
f 1141// 459// 1142//
f 1142// 459// 458//
f 1142// 458// 1143//
f 1143// 458// 456//
f 1143// 456// 1144//
f 1144// 456// 455//
f 1144// 455// 1145//
f 455// 467// 1145//
f 1145// 467// 466//
f 1145// 466// 1146//
f 1146// 466// 465//
f 1146// 465// 1147//
f 1147// 465// 463//
f 1147// 463// 1148//
f 1148// 463// 462//
f 1148// 462// 1149//
f 428// 1124// 432//
f 432// 1124// 1149//
f 432// 1149// 462//
f 1126// 1127// 1149//
f 1124// 1123// 1149//
f 1149// 1123// 1125//
f 1149// 1125// 1126//
f 1130// 1131// 1129//
f 1129// 1131// 1132//
f 1129// 1132// 1128//
f 1140// 1141// 1139//
f 1139// 1141// 1142//
f 1139// 1142// 1138//
f 1138// 1142// 1143//
f 1138// 1143// 1137//
f 1137// 1143// 1144//
f 1137// 1144// 1136//
f 1136// 1144// 1145//
f 1136// 1145// 1135//
f 1127// 1128// 1149//
f 1149// 1128// 1132//
f 1149// 1132// 1148//
f 1132// 1133// 1148//
f 1148// 1133// 1134//
f 1148// 1134// 1147//
f 1147// 1134// 1135//
f 1147// 1135// 1146//
f 1146// 1135// 1145//
f 1150// 1151// 172//
f 172// 1151// 174//
f 176// 1152// 177//
f 177// 1152// 1150//
f 177// 1150// 172//
f 1153// 1152// 178//
f 178// 1152// 176//
f 180// 1154// 179//
f 179// 1154// 1153//
f 179// 1153// 178//
f 1155// 1154// 181//
f 181// 1154// 180//
f 20// 1156// 21//
f 21// 1156// 1155//
f 21// 1155// 181//
f 1157// 1156// 19//
f 19// 1156// 20//
f 170// 1158// 182//
f 182// 1158// 1157//
f 182// 1157// 19//
f 1159// 1158// 169//
f 169// 1158// 170//
f 186// 1160// 430//
f 430// 1160// 1159//
f 430// 1159// 169//
f 1161// 1160// 184//
f 184// 1160// 186//
f 174// 1151// 183//
f 183// 1151// 1161//
f 183// 1161// 184//
f 1161// 1151// 1150//
f 1150// 1152// 1161//
f 1161// 1152// 1153//
f 1161// 1153// 1160//
f 1158// 1159// 1157//
f 1157// 1159// 1160//
f 1157// 1160// 1156//
f 1156// 1160// 1153//
f 1156// 1153// 1155//
f 1155// 1153// 1154//
f 1162// 1163// 1164//
f 1164// 1163// 1165//
f 1164// 1165// 1166//
f 1166// 1165// 1167//
f 1166// 1167// 1168//
f 1168// 1167// 1169//
f 1168// 1169// 1170//
f 1170// 1169// 1171//
f 1170// 1171// 1172//
f 1172// 1171// 1173//
f 1172// 1173// 1174//
f 1173// 1175// 1174//
f 1174// 1175// 1176//
f 1174// 1176// 1177//
f 1177// 1176// 1178//
f 1177// 1178// 1179//
f 1179// 1178// 1180//
f 1179// 1180// 1181//
f 1181// 1180// 1182//
f 1181// 1182// 1183//
f 1183// 1182// 1184//
f 1183// 1184// 1185//
f 1185// 1184// 1186//
f 1185// 1186// 1187//
f 1187// 1186// 1188//
f 1187// 1188// 1189//
f 1189// 1188// 1190//
f 1189// 1190// 1191//
f 1191// 1190// 1192//
f 1191// 1192// 1193//
f 1193// 1192// 1194//
f 1193// 1194// 1195//
f 1195// 1194// 1196//
f 1195// 1196// 1162//
f 1162// 1196// 1197//
f 1162// 1197// 1163//
f 1168// 1170// 523//
f 523// 1170// 522//
f 1168// 523// 524//
f 1168// 524// 1166//
f 1166// 524// 520//
f 1166// 520// 1164//
f 1164// 520// 519//
f 1164// 519// 1162//
f 1162// 519// 518//
f 1162// 518// 1195//
f 1195// 518// 513//
f 1195// 513// 1193//
f 1193// 513// 514//
f 1193// 514// 1191//
f 1191// 514// 516//
f 1191// 516// 1189//
f 1189// 516// 517//
f 1189// 517// 1187//
f 1187// 517// 527//
f 1187// 527// 1185//
f 1185// 527// 526//
f 1185// 526// 1183//
f 1183// 526// 525//
f 1183// 525// 1181//
f 1181// 525// 530//
f 1181// 530// 1179//
f 1179// 530// 529//
f 1179// 529// 1177//
f 1177// 529// 528//
f 1177// 528// 1174//
f 1172// 1174// 521//
f 521// 1174// 528//
f 1170// 1172// 522//
f 522// 1172// 521//
f 1175// 1173// 1198//
f 1198// 1173// 1199//
f 1173// 1171// 1199//
f 1199// 1171// 1200//
f 1171// 1169// 1200//
f 1200// 1169// 1201//
f 1197// 1202// 1203//
f 1197// 1203// 1163//
f 1163// 1203// 1204//
f 1163// 1204// 1165//
f 1165// 1204// 1205//
f 1165// 1205// 1167//
f 1167// 1205// 1201//
f 1167// 1201// 1169//
f 1190// 1206// 1207//
f 1190// 1207// 1192//
f 1192// 1207// 1208//
f 1192// 1208// 1194//
f 1194// 1208// 1209//
f 1194// 1209// 1196//
f 1196// 1209// 1202//
f 1196// 1202// 1197//
f 1182// 1210// 1211//
f 1182// 1211// 1184//
f 1184// 1211// 1212//
f 1184// 1212// 1186//
f 1186// 1212// 1213//
f 1186// 1213// 1188//
f 1188// 1213// 1206//
f 1188// 1206// 1190//
f 1175// 1198// 1214//
f 1175// 1214// 1176//
f 1176// 1214// 1215//
f 1176// 1215// 1178//
f 1178// 1215// 1216//
f 1178// 1216// 1180//
f 1180// 1216// 1210//
f 1180// 1210// 1182//
usemtl 1
f 1204// 1203// 1214//
f 1199// 1200// 1198//
f 1198// 1200// 1201//
f 1198// 1201// 1214//
f 1214// 1201// 1205//
f 1214// 1205// 1204//
f 1203// 1202// 1214//
f 1214// 1202// 1209//
f 1214// 1209// 1208//
f 1206// 1210// 1216//
f 1213// 1212// 1206//
f 1206// 1212// 1211//
f 1206// 1211// 1210//
f 1208// 1207// 1214//
f 1214// 1207// 1206//
f 1214// 1206// 1215//
f 1215// 1206// 1216//
usemtl 3
f 1217// 1218// 1219//
f 1219// 1218// 1220//
f 1221// 1222// 1217//
f 1217// 1222// 1223//
f 1217// 1223// 1218//
f 1218// 1223// 1224//
f 1221// 1225// 1222//
f 1222// 1225// 1226//
f 1222// 1226// 1227//
f 1227// 1226// 1228//
f 1227// 1228// 1229//
f 1229// 1230// 1227//
f 1227// 1230// 1219//
f 1227// 1219// 1231//
f 1231// 1219// 1220//
f 1231// 1220// 1232//
f 1227// 1231// 512//
f 512// 1231// 509//
f 1222// 1227// 515//
f 515// 1227// 512//
f 1223// 1222// 505//
f 505// 1222// 515//
f 1224// 1223// 504//
f 504// 1223// 505//
f 1218// 1224// 508//
f 508// 1224// 504//
f 1220// 1218// 507//
f 507// 1218// 508//
f 1232// 1220// 506//
f 506// 1220// 507//
f 1231// 1232// 509//
f 509// 1232// 506//
f 1217// 1219// 1233//
f 1233// 1219// 1234//
f 1219// 1230// 1234//
f 1234// 1230// 1235//
f 1228// 1236// 1237//
f 1228// 1237// 1229//
f 1229// 1237// 1235//
f 1229// 1235// 1230//
f 1228// 1226// 1236//
f 1236// 1226// 1238//
f 1221// 1239// 1240//
f 1221// 1240// 1225//
f 1225// 1240// 1238//
f 1225// 1238// 1226//
f 1221// 1217// 1239//
f 1239// 1217// 1233//
usemtl 1
f 1236// 1238// 1237//
f 1237// 1238// 1240//
f 1237// 1240// 1235//
f 1235// 1240// 1239//
f 1235// 1239// 1234//
f 1234// 1239// 1233//
usemtl 3
f 1241// 1242// 1243//
f 1244// 1245// 1246//
f 1247// 1248// 1249//
f 1250// 1251// 1252//
f 1252// 1251// 1253//
f 1254// 1255// 1243//
f 1243// 1255// 1256//
f 1243// 1256// 1241//
f 1246// 1245// 1257//
f 1258// 1259// 1260//
f 1261// 1262// 1251//
f 1251// 1262// 1263//
f 1251// 1263// 1253//
f 1253// 1263// 1264//
f 1265// 1266// 1267//
f 1267// 1266// 1268//
f 1267// 1268// 1269//
f 1269// 1268// 1270//
f 1269// 1270// 1271//
f 1271// 1270// 1272//
f 1271// 1272// 1273//
f 1273// 1272// 1243//
f 1273// 1243// 1274//
f 1275// 1276// 1265//
f 1265// 1276// 1277//
f 1265// 1277// 1266//
f 1250// 1252// 1260//
f 1260// 1252// 1278//
f 1260// 1278// 1258//
f 1279// 1242// 1280//
f 1280// 1242// 1281//
f 1280// 1281// 1282//
f 1283// 1284// 1285//
f 1285// 1284// 1286//
f 1285// 1286// 1287//
f 1287// 1286// 1288//
f 1287// 1288// 1289//
f 1289// 1288// 1290//
f 1247// 1249// 1291//
f 1291// 1249// 1292//
f 1291// 1292// 1293//
f 1293// 1292// 1294//
f 1293// 1294// 1295//
f 1245// 1296// 1257//
f 1257// 1296// 1297//
f 1257// 1297// 1298//
f 1298// 1297// 1299//
f 1298// 1299// 1247//
f 1247// 1299// 1300//
f 1247// 1300// 1248//
f 1264// 1263// 1265//
f 1265// 1263// 1301//
f 1265// 1301// 1275//
f 1302// 1303// 1304//
f 1304// 1303// 1305//
f 1304// 1305// 1306//
f 1306// 1305// 1307//
f 1306// 1307// 1308//
f 1308// 1307// 1309//
f 1308// 1309// 1310//
f 1310// 1309// 1311//
f 1310// 1311// 1312//
f 1279// 1313// 1242//
f 1242// 1313// 1314//
f 1242// 1314// 1243//
f 1243// 1314// 1315//
f 1243// 1315// 1274//
f 1288// 1316// 1290//
f 1290// 1316// 1317//
f 1290// 1317// 1318//
f 1318// 1317// 1319//
f 1318// 1319// 1320//
f 1320// 1319// 1321//
f 1320// 1321// 1322//
f 1322// 1321// 1323//
f 1322// 1323// 1324//
f 1324// 1323// 1325//
f 1324// 1325// 1326//
f 1326// 1325// 1327//
f 1326// 1327// 1302//
f 1302// 1327// 1328//
f 1302// 1328// 1303//
f 1329// 1330// 1331//
f 1331// 1330// 1332//
f 1331// 1332// 1285//
f 1285// 1332// 1333//
f 1285// 1333// 1283//
f 1334// 1335// 1336//
f 1336// 1335// 1337//
f 1336// 1337// 1338//
f 1338// 1337// 1339//
f 1338// 1339// 1340//
f 1340// 1339// 1341//
f 1340// 1341// 1342//
f 1342// 1341// 1343//
f 1342// 1343// 1254//
f 1254// 1343// 1344//
f 1254// 1344// 1255//
f 1259// 1345// 1260//
f 1260// 1345// 1346//
f 1260// 1346// 1347//
f 1347// 1346// 1348//
f 1347// 1348// 1349//
f 1349// 1348// 1350//
f 1349// 1350// 1351//
f 1351// 1350// 1352//
f 1351// 1352// 1353//
f 1353// 1352// 1354//
f 1353// 1354// 1355//
f 1355// 1354// 1356//
f 1355// 1356// 1357//
f 1357// 1356// 1358//
f 1357// 1358// 1359//
f 1359// 1358// 1282//
f 1359// 1282// 1360//
f 1360// 1282// 1281//
f 1295// 1294// 1361//
f 1361// 1294// 1362//
f 1361// 1362// 1363//
f 1363// 1362// 1364//
f 1363// 1364// 1365//
f 1365// 1364// 1366//
f 1365// 1366// 1367//
f 1367// 1366// 1368//
f 1367// 1368// 1329//
f 1329// 1368// 1369//
f 1329// 1369// 1330//
f 1246// 1370// 1244//
f 1244// 1370// 1371//
f 1244// 1371// 1372//
f 1372// 1371// 1373//
f 1372// 1373// 1374//
f 1374// 1373// 1375//
f 1374// 1375// 1334//
f 1334// 1375// 1376//
f 1334// 1376// 1335//
f 1377// 1378// 1379//
f 1311// 1380// 1312//
f 1312// 1380// 1377//
f 1312// 1377// 1381//
f 1381// 1377// 1379//
f 1382// 1383// 1377//
f 1377// 1383// 1384//
f 1377// 1384// 1378//
f 1385// 1386// 1387//
f 1386// 1388// 1387//
f 1387// 1388// 1389//
f 1387// 1389// 1390//
f 1382// 1377// 1387//
f 1387// 1377// 1391//
f 1387// 1391// 1385//
f 166// 1290// 167//
f 167// 1290// 1318//
f 167// 1318// 168//
f 168// 1318// 1320//
f 168// 1320// 79//
f 79// 1320// 1322//
f 79// 1322// 80//
f 166// 23// 1290//
f 1290// 23// 22//
f 1290// 22// 1289//
f 1289// 22// 29//
f 1289// 29// 1287//
f 1287// 29// 28//
f 1287// 28// 1285//
f 1285// 28// 27//
f 1285// 27// 1331//
f 1331// 27// 26//
f 1331// 26// 1329//
f 1367// 1329// 25//
f 25// 1329// 26//
f 25// 35// 1367//
f 1367// 35// 34//
f 1367// 34// 1365//
f 1365// 34// 36//
f 1365// 36// 1363//
f 1363// 36// 31//
f 1363// 31// 1361//
f 1361// 31// 30//
f 1361// 30// 1295//
f 1295// 30// 1293//
f 1293// 30// 37//
f 1293// 37// 39//
f 1293// 39// 46//
f 1293// 46// 1291//
f 1291// 46// 48//
f 1291// 48// 1247//
f 1247// 48// 47//
f 1247// 47// 1298//
f 1298// 47// 45//
f 1298// 45// 1257//
f 1257// 45// 44//
f 1257// 44// 1246//
f 1246// 44// 50//
f 1246// 50// 1370//
f 1370// 50// 49//
f 1370// 49// 1371//
f 1371// 49// 43//
f 1371// 43// 1373//
f 60// 1335// 61//
f 61// 1335// 1376//
f 61// 1376// 41//
f 41// 1376// 1375//
f 41// 1375// 42//
f 42// 1375// 1373//
f 42// 1373// 43//
f 60// 59// 1335//
f 1335// 59// 58//
f 1335// 58// 1337//
f 1337// 58// 56//
f 1337// 56// 1339//
f 1339// 56// 55//
f 1339// 55// 1341//
f 1341// 55// 52//
f 1341// 52// 1343//
f 1343// 52// 51//
f 1343// 51// 1344//
f 1344// 51// 54//
f 1344// 54// 1255//
f 1255// 54// 62//
f 1255// 62// 1256//
f 1256// 62// 63//
f 1256// 63// 1241//
f 63// 64// 1241//
f 1241// 64// 65//
f 1241// 65// 1242//
f 1242// 65// 72//
f 1242// 72// 1281//
f 1281// 72// 71//
f 1281// 71// 1360//
f 71// 70// 1360//
f 1360// 70// 69//
f 1360// 69// 1359//
f 1359// 69// 68//
f 1359// 68// 1357//
f 128// 1250// 1260//
f 1357// 68// 67//
f 78// 1353// 67//
f 67// 1353// 1355//
f 67// 1355// 1357//
f 78// 77// 1353//
f 1353// 77// 76//
f 1353// 76// 1351//
f 1351// 76// 75//
f 1351// 75// 1349//
f 1349// 75// 74//
f 1349// 74// 1347//
f 1347// 74// 73//
f 1347// 73// 1260//
f 1260// 73// 127//
f 1260// 127// 128//
f 1251// 1250// 114//
f 114// 1250// 128//
f 1261// 1251// 83//
f 83// 1251// 114//
f 1262// 1261// 87//
f 87// 1261// 83//
f 1263// 1262// 86//
f 86// 1262// 87//
f 1263// 86// 88//
f 1263// 88// 1301//
f 1301// 88// 89//
f 1301// 89// 1275//
f 1275// 89// 111//
f 1275// 111// 1276//
f 1276// 111// 110//
f 1276// 110// 1277//
f 1277// 110// 109//
f 1277// 109// 1266//
f 1266// 109// 105//
f 1266// 105// 1268//
f 1268// 105// 106//
f 1268// 106// 1270//
f 1270// 106// 102//
f 1270// 102// 1272//
f 1272// 102// 104//
f 1272// 104// 1243//
f 1243// 104// 103//
f 1243// 103// 1254//
f 1254// 103// 101//
f 1254// 101// 1342//
f 1342// 101// 100//
f 1342// 100// 1340//
f 1340// 100// 108//
f 1340// 108// 1338//
f 1338// 108// 107//
f 1338// 107// 1336//
f 1334// 1336// 107//
f 107// 95// 1334//
f 1334// 95// 139//
f 1334// 139// 138//
f 151// 1372// 138//
f 138// 1372// 1374//
f 138// 1374// 1334//
f 151// 165// 1372//
f 1372// 165// 164//
f 1372// 164// 1244//
f 1244// 164// 163//
f 1244// 163// 1245//
f 1245// 163// 157//
f 1245// 157// 1296//
f 1296// 157// 156//
f 1296// 156// 1297//
f 1297// 156// 155//
f 1297// 155// 1299//
f 1299// 155// 152//
f 1299// 152// 1300//
f 1300// 152// 147//
f 1300// 147// 1248//
f 1248// 147// 150//
f 1248// 150// 1249//
f 1249// 150// 158//
f 1249// 158// 1292//
f 1292// 158// 160//
f 1292// 160// 1294//
f 1294// 160// 162//
f 1294// 162// 1362//
f 1362// 162// 161//
f 1362// 161// 1364//
f 1364// 161// 159//
f 1364// 159// 1366//
f 1366// 159// 149//
f 1366// 149// 1368//
f 1368// 149// 148//
f 1368// 148// 1369//
f 1369// 148// 146//
f 1369// 146// 1330//
f 1330// 146// 145//
f 1330// 145// 1332//
f 1332// 145// 154//
f 1332// 154// 1333//
f 1333// 154// 1283//
f 1283// 154// 153//
f 1283// 153// 137//
f 1284// 1283// 140//
f 140// 1283// 137//
f 1284// 140// 144//
f 1284// 144// 1286//
f 1286// 144// 143//
f 1286// 143// 1288//
f 1288// 143// 142//
f 1288// 142// 1316//
f 1316// 142// 141//
f 1316// 141// 1317//
f 1317// 141// 94//
f 1317// 94// 1319//
f 94// 93// 1319//
f 1319// 93// 92//
f 1319// 92// 1321//
f 1321// 92// 120//
f 1321// 120// 1323//
f 1323// 120// 119//
f 1323// 119// 1325//
f 1325// 119// 118//
f 1325// 118// 1327//
f 1327// 118// 117//
f 1327// 117// 1328//
f 1328// 117// 136//
f 1328// 136// 1303//
f 1303// 136// 135//
f 1303// 135// 1305//
f 1305// 135// 134//
f 1305// 134// 1307//
f 1307// 134// 133//
f 1307// 133// 1309//
f 1311// 1309// 132//
f 132// 1309// 133//
f 1311// 132// 99//
f 1311// 99// 1380//
f 1380// 99// 98//
f 1380// 98// 1377//
f 1377// 98// 97//
f 1377// 97// 1391//
f 1391// 97// 82//
f 1391// 82// 1385//
f 1385// 82// 81//
f 1385// 81// 1386//
f 1386// 81// 90//
f 1386// 90// 1388//
f 1388// 90// 116//
f 1388// 116// 1389//
f 1389// 116// 115//
f 1389// 115// 1390//
f 1390// 115// 113//
f 1390// 113// 1387//
f 1387// 113// 112//
f 1387// 112// 1382//
f 1382// 112// 126//
f 1382// 126// 1383//
f 1383// 126// 125//
f 1383// 125// 1384//
f 1384// 125// 124//
f 1384// 124// 1378//
f 1378// 124// 123//
f 1378// 123// 1379//
f 1379// 123// 122//
f 1379// 122// 1381//
f 1381// 122// 121//
f 1381// 121// 1312//
f 1312// 121// 131//
f 1312// 131// 1310//
f 1308// 1310// 130//
f 130// 1310// 131//
f 1308// 130// 129//
f 1308// 129// 1306//
f 1306// 129// 85//
f 1306// 85// 1304//
f 1304// 85// 84//
f 1304// 84// 1302//
f 1302// 84// 91//
f 1302// 91// 1326//
f 1326// 91// 96//
f 1326// 96// 1324//
f 1324// 96// 80//
f 1324// 80// 1322//
f 1264// 1392// 1393//
f 1264// 1393// 1253//
f 1253// 1393// 1394//
f 1253// 1394// 1252//
f 1252// 1394// 1395//
f 1252// 1395// 1278//
f 1278// 1395// 1396//
f 1278// 1396// 1258//
f 1258// 1396// 1397//
f 1258// 1397// 1259//
f 1259// 1397// 1398//
f 1259// 1398// 1345//
f 1345// 1398// 1399//
f 1345// 1399// 1346//
f 1346// 1399// 1400//
f 1346// 1400// 1348//
f 1348// 1400// 1401//
f 1348// 1401// 1350//
f 1350// 1401// 1402//
f 1350// 1402// 1352//
f 1352// 1402// 1403//
f 1352// 1403// 1354//
f 1354// 1403// 1404//
f 1354// 1404// 1356//
f 1356// 1404// 1405//
f 1356// 1405// 1358//
f 1358// 1405// 1406//
f 1358// 1406// 1282//
f 1282// 1406// 1407//
f 1282// 1407// 1280//
f 1280// 1407// 1408//
f 1280// 1408// 1279//
f 1279// 1408// 1409//
f 1279// 1409// 1313//
f 1313// 1409// 1410//
f 1313// 1410// 1314//
f 1314// 1410// 1411//
f 1314// 1411// 1315//
f 1315// 1411// 1412//
f 1315// 1412// 1274//
f 1274// 1412// 1413//
f 1274// 1413// 1273//
f 1273// 1413// 1414//
f 1273// 1414// 1271//
f 1271// 1414// 1415//
f 1271// 1415// 1269//
f 1269// 1415// 1416//
f 1269// 1416// 1267//
f 1267// 1416// 1417//
f 1267// 1417// 1265//
f 1265// 1417// 1392//
f 1265// 1392// 1264//
usemtl 1
f 1405// 1415// 1414//
f 1392// 1405// 1393//
f 1393// 1405// 1404//
f 1392// 1417// 1405//
f 1405// 1417// 1416//
f 1405// 1416// 1415//
f 1402// 1396// 1395//
f 1410// 1409// 1414//
f 1414// 1409// 1408//
f 1404// 1403// 1393//
f 1393// 1403// 1402//
f 1393// 1402// 1394//
f 1394// 1402// 1395//
f 1408// 1407// 1414//
f 1414// 1407// 1406//
f 1414// 1406// 1405//
f 1413// 1412// 1414//
f 1414// 1412// 1411//
f 1414// 1411// 1410//
f 1400// 1399// 1401//
f 1401// 1399// 1398//
f 1401// 1398// 1402//
f 1402// 1398// 1397//
f 1402// 1397// 1396//
