v -11.833278 4.75 1.885057
v -11.833278 4.75 2.417933
v -11.019279 4.75 2.417933
newmtl 1
Ka 0.2235294117647059 0.2235294117647059 0.2235294117647059
Kd 0.2235294117647059 0.2235294117647059 0.2235294117647059
Ks 0.11372549019607843 0.11372549019607843 0.11372549019607843
d 0.0
endmtl
v -12.27 4.75 0.0
v -12.27 4.75 1.197918
v -11.833278 4.75 1.197918
v 13.469611 4.75 8.37967
v 13.416536 4.75 8.302646
v 13.3 4.75 8.45
v -9.946722 4.75 1.360355
v -9.934789 4.75 1.359043
v -10.034213 4.75 1.359043
v -9.860183 4.75 1.360169
v -9.848304 4.75 1.364358
v -9.848304 4.75 1.359043
v -8.41271 4.75 2.417933
v -8.479163 4.75 2.373255
v -9.088197 4.75 2.417933
v -8.575144 4.75 2.262112
v -8.898528 4.75 1.885057
v -9.088197 4.75 1.885057
v -8.872969 4.75 1.948836
v -8.813909 4.75 2.031085
v -8.735438 4.75 2.097402
v -8.63533 4.75 2.144789
v -8.649363 4.75 2.140074
v -7.809474 4.75 2.454614
v -7.942829 4.75 2.506026
v -6.0 4.75 5.511818
v -8.35017 4.75 2.45998
v -9.088197 4.75 5.511818
v -8.205041 4.75 2.511118
v -8.085855 4.75 2.523637
v -7.083885 4.75 1.885057
v -6.0 4.75 2.0
v 6.0 4.75 2.0
v -7.750252 4.75 2.417933
v -6.0 4.75 2.417933
v -7.738818 4.75 2.41085
v -7.09676 4.75 1.957217
v -7.142889 4.75 2.061345
v -7.212479 4.75 2.150573
v -7.431066 4.75 2.275297
v -7.545056 4.75 2.289387
v -7.670856 4.75 2.352649
v -7.578313 4.75 2.28758
v -7.611571 4.75 2.283603
v -7.231962 4.75 2.169016
v -7.32394 4.75 2.23369
v -7.288207 4.75 1.428749
v -7.198019 4.75 1.505662
v 12.0 4.75 1.359043
v -7.132047 4.75 1.599823
v -7.392715 4.75 1.377821
v -7.433027 4.75 1.359043
v -7.429377 4.75 1.366848
v -7.090581 4.75 1.70748
v -7.076556 4.75 1.820888
v 12.0 4.75 1.885057
v -7.077366 4.75 1.848524
v -7.558119 4.75 1.208991
v -7.50152 4.75 1.251594
v -7.458472 4.75 1.304648
v -7.774255 4.75 1.178851
v -7.704114 4.75 1.170194
v -9.088197 4.75 0.0
v -7.693155 4.75 1.170394
v -7.624866 4.75 1.180998
v -7.584522 4.75 1.197918
v 12.0 4.75 1.197918
v 12.0 4.75 0.0
v -7.97504 4.75 1.359043
v -7.97467 4.75 1.357493
v -9.088197 4.75 1.197918
v -7.940366 4.75 1.293102
v -7.896327 4.75 1.243774
v -7.838743 4.75 1.203658
v -7.823822 4.75 1.197918
v -8.344365 4.75 1.529651
v -8.36421 4.75 1.53749
v -8.398189 4.75 1.702317
v -7.921012 4.75 1.653153
v -8.308537 4.75 1.855591
v -7.870367 4.75 1.699246
v -7.80898 4.75 1.73211
v -8.326583 4.75 1.517047
v -8.872097 4.75 1.571281
v -8.814632 4.75 1.491203
v -9.088197 4.75 1.359043
v -8.740871 4.75 1.788803
v -8.727185 4.75 1.84432
v -8.705132 4.75 1.885057
v -7.265956 4.75 1.885057
v -8.90836 4.75 1.860522
v -8.921636 4.75 1.76594
v -8.908399 4.75 1.662852
v -8.386621 4.75 1.540366
v -8.389435 4.75 1.540162
v -8.398111 4.75 1.538241
v -7.283112 4.75 1.710947
v -7.317316 4.75 1.652805
v -7.464141 4.75 1.622647
v -7.369144 4.75 1.59951
v -7.432269 4.75 1.56061
v -7.571035 4.75 1.718459
v -7.511927 4.75 1.677344
v -7.25875 4.75 1.826672
v -7.262275 4.75 1.781679
v -7.634903 4.75 1.742931
v -7.704114 4.75 1.75148
v -7.739159 4.75 1.74941
v -8.736008 4.75 1.424634
v -8.647775 4.75 1.381437
v -8.551462 4.75 1.361064
v -8.296969 4.75 1.450715
v -8.297703 4.75 1.462128
v -7.993311 4.75 1.488311
v -8.303512 4.75 1.484139
v -8.314632 4.75 1.50387
v -8.683561 4.75 1.610008
v -8.715404 4.75 1.655099
v -8.735362 4.75 1.706631
v -8.742333 4.75 1.763048
v -8.380836 4.75 1.361064
v -8.364544 4.75 1.363689
v -8.345415 4.75 1.371219
v -8.326659 4.75 1.384554
v -8.319937 4.75 1.391397
v -8.307331 4.75 1.409563
v -8.299713 4.75 1.429174
v -7.9917 4.75 1.428857
v -7.993311 4.75 1.459391
v -8.403972 4.75 1.537474
v -8.534111 4.75 1.537474
v -8.586327 4.75 1.547517
v -8.63732 4.75 1.571229
v -8.680027 4.75 1.606209
v -8.431033 4.75 2.162745
v -8.365715 4.75 2.240596
v -7.701222 4.75 2.07249
v -8.358868 4.75 2.246829
v -8.277632 4.75 2.303248
v -7.745455 4.75 2.164051
v -7.681104 4.75 2.083515
v -7.616275 4.75 2.107341
v -8.700208 4.75 1.894155
v -8.667189 4.75 1.930982
v -8.516759 4.75 1.988622
v -8.622353 4.75 1.962335
v -8.571889 4.75 1.981805
v -8.493624 4.75 1.988622
v -8.475766 4.75 2.069621
v -7.44605 4.75 2.097228
v -7.381659 4.75 2.062923
v -7.517414 4.75 2.114257
v -7.332331 4.75 2.018884
v -7.292214 4.75 1.961301
v -7.810338 4.75 2.241526
v -8.186954 4.75 2.338029
v -7.887716 4.75 2.298064
v -8.088747 4.75 2.350119
v -7.982176 4.75 2.336377
v -7.547947 4.75 2.115869
v -7.267407 4.75 1.896812
v -10.590743 4.75 1.722439
v -10.579203 4.75 1.592261
v -10.638416 4.75 1.885057
v -10.509903 4.75 1.592261
v -10.509903 4.75 1.408848
v -10.599997 4.75 1.408848
v -10.579203 4.75 1.54568
v -10.638416 4.75 1.359043
v -10.599997 4.75 1.362474
v -10.509903 4.75 1.359043
v -10.509903 4.75 1.54568
v -10.43374 4.75 1.54568
v -10.43374 4.75 1.408848
v -10.509903 4.75 1.722439
v -10.43374 4.75 1.722439
v -10.43374 4.75 1.592261
v -10.509903 4.75 1.362474
v -10.381232 4.75 1.362474
v -10.210439 4.75 1.359043
v -10.326333 4.75 1.652983
v -10.180351 4.75 1.434634
v -10.186589 4.75 1.410719
v -10.187942 4.75 1.410719
v -10.129039 4.75 1.885057
v -10.381232 4.75 1.769228
v -10.509903 4.75 1.885057
v -10.509903 4.75 1.769228
v -10.590743 4.75 1.769228
v -10.190281 4.75 1.420675
v -10.19418 4.75 1.434218
v -10.129039 4.75 1.582244
v -10.273514 4.75 1.652983
v -9.773077 4.75 1.359043
v -9.824754 4.75 1.372664
v -9.824754 4.75 1.425276
v -9.825066 4.75 1.574585
v -9.827076 4.75 1.592803
v -9.773077 4.75 1.885057
v -9.832875 4.75 1.539246
v -9.827256 4.75 1.554804
v -9.844682 4.75 1.412953
v -9.848304 4.75 1.41159
v -9.848304 4.75 1.519613
v -9.839518 4.75 1.528628
v -9.847854 4.75 1.519911
v -9.848304 4.75 1.197918
v -9.903568 4.75 1.355612
v -9.870898 4.75 1.359043
v -10.034213 4.75 1.197918
v -10.007024 4.75 1.646744
v -10.007024 4.75 1.597252
v -9.857714 4.75 1.636555
v -9.870731 4.75 1.644509
v -9.848304 4.75 1.885057
v -9.833143 4.75 1.609206
v -9.84261 4.75 1.622976
v -9.848304 4.75 1.628096
v -10.018533 4.75 1.421025
v -10.012277 4.75 1.40488
v -10.00278 4.75 1.391443
v -9.898153 4.75 1.654933
v -9.938191 4.75 1.659637
v -10.034213 4.75 1.885057
v -9.969472 4.75 1.657237
v -10.003904 4.75 1.489533
v -10.013413 4.75 1.475499
v -10.018849 4.75 1.460477
v -10.020956 4.75 1.441496
v -9.988204 4.75 1.378695
v -9.974211 4.75 1.370299
v -9.933201 4.75 1.618255
v -9.918118 4.75 1.617124
v -9.877574 4.75 1.57916
v -9.90449 4.75 1.613516
v -9.893066 4.75 1.607441
v -9.878037 4.75 1.572383
v -9.880059 4.75 1.564469
v -9.88373 4.75 1.557595
v -9.8887 4.75 1.552126
v -9.906661 4.75 1.540897
v -9.969934 4.75 1.613628
v -9.938191 4.75 1.527172
v -9.998626 4.75 1.602217
v -9.957919 4.75 1.51919
v -9.991755 4.75 1.500372
v -9.885379 4.75 1.600648
v -9.88101 4.75 1.594164
v -9.878496 4.75 1.587286
v -9.876626 4.75 1.400934
v -9.902216 4.75 1.490157
v -9.871847 4.75 1.504077
v -9.908558 4.75 1.397202
v -9.910809 4.75 1.397216
v -9.93567 4.75 1.476146
v -9.936926 4.75 1.400143
v -9.968657 4.75 1.436505
v -9.968158 4.75 1.442843
v -9.950072 4.75 1.404955
v -9.954718 4.75 1.407774
v -9.960564 4.75 1.412963
v -9.965012 4.75 1.41954
v -9.967601 4.75 1.426786
v -9.965842 4.75 1.450799
v -9.961904 4.75 1.457552
v -9.955555 4.75 1.464163
v -10.787673 4.75 2.119002
v -10.638416 4.75 2.119002
v -10.82916 4.75 2.007748
v -10.887178 4.75 2.007748
v -11.019279 4.75 1.885057
v -10.732255 4.75 2.414501
v -10.521184 4.75 2.007748
v -10.579203 4.75 2.007748
v -10.618298 4.75 2.119002
v -10.081366 4.75 2.367712
v -10.129039 4.75 2.417933
v -10.081366 4.75 2.414501
v -10.034213 4.75 2.417933
v -10.034213 4.75 2.414501
v -10.069825 4.75 2.237535
v -10.069825 4.75 2.190953
v -10.09062 4.75 2.054121
v -10.034213 4.75 2.054121
v -10.034213 4.75 2.190953
v -9.924362 4.75 2.190953
v -9.924362 4.75 2.054121
v -10.034213 4.75 2.367712
v -10.034213 4.75 2.237535
v -9.924362 4.75 2.367712
v -9.924362 4.75 2.237535
v -9.871855 4.75 2.414501
v -9.848304 4.75 2.417933
v -9.871855 4.75 2.007748
v -10.034213 4.75 2.007748
v -10.09062 4.75 2.007748
v 6.0 4.75 5.511818
v 12.0 4.75 5.511818
v 6.0 4.75 2.417933
v 12.0 4.75 2.417933
v 12.922067 4.75 8.026724
v 12.634128 4.75 7.956203
v 6.0 4.75 8.327609
v 9.650001 4.75 8.376578
v 12.0 4.75 7.9
v 12.332592 4.75 7.914909
v 13.492463 4.75 8.439601
v 13.3 4.75 8.5
v 13.5 4.75 8.5
v 13.312043 4.75 8.209178
v 13.149879 4.75 8.114589
v -6.0 4.75 8.33895
v -9.088197 4.75 8.384763
v -9.135 4.75 8.385456
v -9.47971 4.75 8.392552
v -9.773077 4.75 2.017716
v -9.783503 4.75 2.021135
v -9.790442 4.75 2.024592
v -9.790442 4.75 2.074917
v -9.790442 4.75 2.349829
v -9.781383 4.75 2.354563
v -9.773077 4.75 2.066929
v -9.773077 4.75 2.357465
v -9.739563 4.75 2.369174
v -9.708113 4.75 2.048693
v -9.753534 4.75 2.05794
v -9.541037 4.75 2.202419
v -9.541004 4.75 2.20655
v -9.694576 4.75 2.373951
v -9.680035 4.75 2.373416
v -9.644469 4.75 2.366831
v -9.576744 4.75 2.320812
v -9.558221 4.75 2.291395
v -9.545779 4.75 2.254363
v -9.547484 4.75 2.152598
v -9.560323 4.75 2.119494
v -9.580931 4.75 2.090513
v -9.616302 4.75 2.063393
v -9.645448 4.75 2.052367
v -9.685426 4.75 2.047675
v -9.612362 4.75 2.35227
v -9.583737 4.75 2.328825
v -9.589561 4.75 2.082031
v -9.735085 4.75 2.417933
v -9.752192 4.75 2.416283
v -9.773077 4.75 2.417933
v -9.773077 4.75 2.409973
v -9.790442 4.75 2.404728
v -9.593175 4.75 2.397948
v -9.635756 4.75 2.414349
v -9.504093 4.75 2.417933
v -9.665543 4.75 2.417933
v -9.504093 4.75 5.511818
v -9.694057 4.75 2.421364
v -9.773077 4.75 5.511818
v -9.699965 4.75 2.42132
v -9.497467 4.75 2.28308
v -9.504093 4.75 2.297488
v -9.517888 4.75 2.327493
v -9.544642 4.75 2.361474
v -9.553796 4.75 2.370259
v -9.487137 4.75 2.231195
v -9.47971 4.75 2.417933
v -9.485897 4.75 2.203431
v -9.47971 4.75 1.885057
v -9.493713 4.75 2.137994
v -9.504093 4.75 2.111094
v -9.607115 4.75 2.011822
v -9.569015 4.75 2.030383
v -9.504093 4.75 1.885057
v -9.538093 4.75 2.056409
v -9.534307 4.75 2.060557
v -9.510154 4.75 2.095383
v -9.739832 4.75 2.006813
v -9.677835 4.75 2.000886
v -9.650773 4.75 2.002304
v -9.541691 4.75 1.499615
v -9.550673 4.75 1.583111
v -9.531016 4.75 1.483089
v -9.524745 4.75 1.464511
v -9.679386 4.75 1.377985
v -9.661337 4.75 1.365984
v -9.704766 4.75 1.362474
v -9.64213 4.75 1.359043
v -9.755713 4.75 1.362474
v -9.663175 4.75 1.616447
v -9.645916 4.75 1.618255
v -9.618673 4.75 1.535074
v -9.556782 4.75 1.513319
v -9.577588 4.75 1.524567
v -9.584792 4.75 1.604728
v -9.61667 4.75 1.615331
v -9.750974 4.75 1.59132
v -9.755713 4.75 1.549423
v -9.704766 4.75 1.407392
v -9.703415 4.75 1.407392
v -9.695477 4.75 1.395311
v -9.5644 4.75 1.366516
v -9.547242 4.75 1.378487
v -9.504093 4.75 1.359043
v -9.541545 4.75 1.384262
v -9.530959 4.75 1.399918
v -9.704766 4.75 1.547135
v -9.702993 4.75 1.569663
v -9.697726 4.75 1.587805
v -9.691739 4.75 1.598297
v -9.524797 4.75 1.417155
v -9.522288 4.75 1.440248
v -9.550673 4.75 1.632604
v -9.683543 4.75 1.656422
v -9.704497 4.75 1.649628
v -9.721056 4.75 1.639713
v -9.731987 4.75 1.629339
v -9.74268 4.75 1.613446
v -9.684037 4.75 1.60649
v -9.674993 4.75 1.612319
v -9.566438 4.75 1.641371
v -9.605309 4.75 1.654873
v -9.650698 4.75 1.659637
v -9.64068 4.75 1.35852
v -9.773077 4.75 1.197918
v -9.504093 4.75 1.197918
v -9.61441 4.75 1.355612
v -9.584864 4.75 1.359043
v -9.583933 4.75 1.359151
v -10.129039 4.75 1.445488
v -10.04747 4.75 1.652983
v -10.104448 4.75 1.652983
v -10.159711 4.75 1.359043
v -10.161427 4.75 1.363098
v -10.129039 4.75 1.291916
v -10.129107 4.75 1.291992
v -10.129039 4.75 1.359043
v -10.139072 4.75 1.310279
v -10.057972 4.75 1.275135
v -10.057972 4.75 1.229801
v -10.068395 4.75 1.271719
v -10.086876 4.75 1.269312
v -10.099111 4.75 1.270682
v -10.129039 4.75 1.234725
v -10.111411 4.75 1.228009
v -10.129039 4.75 1.197918
v -10.090828 4.75 1.225642
v -10.079581 4.75 1.226046
v -10.110268 4.75 1.274867
v -10.119617 4.75 1.281358
v -10.194491 4.75 1.318597
v -10.171428 4.75 1.273679
v -10.509903 4.75 1.197918
v -10.152784 4.75 1.251289
v -10.14931 4.75 1.248105
v -10.131516 4.75 1.235668
v -12.27 4.75 2.417933
v -12.27 4.75 1.885057
v -12.27 4.75 1.359043
v -11.833278 4.75 1.359043
v -11.08858 4.75 1.362474
v -11.030561 4.75 1.362474
v -11.019279 4.75 1.359043
v -11.338537 4.75 1.362474
v -11.29705 4.75 1.473729
v -11.127674 4.75 1.473729
v -11.185485 4.75 1.769228
v -11.241632 4.75 1.769228
v -11.396556 4.75 1.362474
v -10.638416 4.75 2.417933
v -10.676107 4.75 2.414501
v -10.638416 4.75 2.315543
v -10.86207 4.75 1.760576
v -10.910221 4.75 1.741149
v -10.995489 4.75 1.493356
v -10.974499 4.75 1.451825
v -10.946652 4.75 1.419453
v -10.903568 4.75 1.388672
v -10.85706 4.75 1.370692
v -10.788713 4.75 1.362474
v -10.676836 4.75 1.362474
v -10.676836 4.75 1.769228
v -10.792871 4.75 1.769228
v -10.800671 4.75 1.769131
v -10.946652 4.75 1.715368
v -10.965697 4.75 1.696007
v -10.989663 4.75 1.658962
v -11.003233 4.75 1.618596
v -11.007998 4.75 1.57105
v -11.006248 4.75 1.54021
v -10.638416 4.75 1.197918
v -11.019279 4.75 1.197918
v -10.167459 4.75 2.007748
v -10.496871 4.75 2.185484
v -10.486112 4.75 2.13863
v -10.465121 4.75 2.097099
v -10.437275 4.75 2.064727
v -10.394191 4.75 2.033946
v -10.347683 4.75 2.015965
v -10.279336 4.75 2.007748
v -10.167459 4.75 2.414501
v -10.283495 4.75 2.414501
v -10.509903 4.75 2.417933
v -10.291293 4.75 2.414405
v -10.352693 4.75 2.40585
v -10.400844 4.75 2.386423
v -10.437275 4.75 2.360642
v -10.45632 4.75 2.34128
v -10.480286 4.75 2.304236
v -10.493855 4.75 2.263869
v -10.498621 4.75 2.216324
v -9.848304 4.75 5.511818
v -10.034213 4.75 5.511818
v -10.129039 4.75 5.511818
v -10.509903 4.75 5.511818
v -10.638416 4.75 5.511818
v -11.019279 4.75 5.511818
v -11.833278 4.75 5.511818
v -12.27 4.75 5.511818
v -11.833278 4.75 0.0
v -11.019279 4.75 0.0
v -10.638416 4.75 0.0
v -10.509903 4.75 0.0
v -10.129039 4.75 0.0
v -10.034213 4.75 0.0
v -9.848304 4.75 0.0
v -9.773077 4.75 0.0
v -9.504093 4.75 0.0
v -9.47971 4.75 1.197918
v -9.47971 4.75 0.0
v -9.47971 4.75 1.359043
v -9.47971 4.75 5.511818
v -9.254758 4.75 1.362474
v -9.254758 4.75 1.769228
v -9.46427 4.75 1.769228
v -9.46427 4.75 1.722439
v -9.307266 4.75 1.54568
v -9.307266 4.75 1.408848
v -9.452728 4.75 1.54568
v -9.473523 4.75 1.408848
v -9.452728 4.75 1.592261
v -9.307266 4.75 1.722439
v -9.307266 4.75 1.592261
v -9.473523 4.75 1.362474
v -9.254758 4.75 2.414501
v -9.254758 4.75 2.007748
v -9.46926 4.75 2.007748
v -9.46926 4.75 2.054121
v -9.307266 4.75 2.054121
v -9.307266 4.75 2.414501
v -9.504093 4.75 8.393055
v -9.773077 4.75 8.398593
v -9.848304 4.75 8.400143
v -10.034213 4.75 8.403969
v -10.129039 4.75 8.405922
v -10.509903 4.75 8.413763
v -10.638416 4.75 8.416409
v -11.019279 4.75 8.424251
v -11.833278 4.75 8.441009
v -12.27 4.75 8.45
v 6.0 3.15 8.327609
v 6.0 3.15 2.0
v 6.0 -3.15 2.0
v 6.0 -4.75 2.0
v 6.0 -3.15 8.327609
v 6.0 -4.75 8.327609
v -6.0 3.15 2.0
v -6.0 3.15 8.33895
v -6.0 -4.75 2.0
v -6.0 -3.15 2.0
v -6.0 -4.75 8.33895
v -6.0 -3.15 8.33895
v -12.27 3.15 7.0
v -12.27 2.95 7.0
v -12.27 2.95 8.45
v -12.27 3.15 0.0
v -12.27 -4.75 0.0
v 12.0 -4.75 0.0
v 9.650001 -4.75 8.376578
v 13.5 -4.75 8.5
v 13.3 -4.75 8.5
v 13.491968 -4.75 8.437492
v 13.3 -4.75 8.45
v 13.467771 -4.75 8.375947
v -9.135 -4.75 8.385456
v -12.27 -4.75 8.45
v 12.362012 -4.75 7.917733
v 12.0 -4.75 7.9
v 12.675865 -4.75 7.964313
v 12.938491 -4.75 8.031884
v 13.150772 -4.75 8.115054
v 13.302208 -4.75 8.202172
v 13.417632 -4.75 8.30391
v -12.27 -3.15 0.0
v -12.27 -3.15 7.0
v -12.27 -2.95 7.0
v -12.27 -2.95 8.45
v -10.0 -3.15 8.401463
v -10.0 -3.15 2.0
v -10.0 3.15 8.401463
v -10.0 3.15 2.0
v -9.135 -3.15 8.385456
v -9.135 3.15 8.385456
v 9.650001 3.15 8.376578
v 10.0 3.15 2.0
v 10.0 3.15 8.382559
v 10.0 -3.15 2.0
v 9.650001 -3.15 8.376578
v 10.0 -3.15 8.382559
v -13.5 4.75 10.5
v -13.5 -4.75 10.5
v 12.0 4.75 10.5
v 12.0 -4.75 10.5
v 11.599999 0.7 0.0
v -11.07 -3.15 0.0
v 11.599999 -0.7 0.0
v 11.95 -0.7 0.0
v 11.95 0.7 0.0
v -10.66 0.7 0.0
v -10.66 -0.7 0.0
v -11.009999 -0.7 0.0
v -11.009999 0.7 0.0
v -11.07 3.15 0.0
v -13.5 4.75 8.5
v 12.0 4.75 9.1
v 13.417632 4.75 8.69609
v 13.467771 4.75 8.624053
v 13.491968 4.75 8.562508
v 12.362012 4.75 9.082267
v 12.675865 4.75 9.035686
v 12.938491 4.75 8.968116
v 13.150772 4.75 8.884946
v 13.302208 4.75 8.797828
v 12.0 -4.75 9.1
v 13.416536 -4.75 8.697354
v 13.312043 -4.75 8.790822
v -13.5 -4.75 8.5
v 12.332592 -4.75 9.085091
v 12.634128 -4.75 9.043797
v 13.492463 -4.75 8.560399
v 13.469611 -4.75 8.62033
v 13.149879 -4.75 8.885411
v 12.922067 -4.75 8.973276
v -13.5 2.95 8.5
v -13.5 -2.95 8.5
v -13.5 -2.95 4.425225
v -13.5 2.95 4.425225
v -12.27 -2.95 8.5
v -12.27 2.95 8.5
v -12.27 2.95 4.425225
v -12.27 -2.95 4.425225
v -11.07 3.15 7.0
v -11.07 -3.15 7.0
v 13.499071 4.75 8.507232
v 13.059298 4.75 8.920785
v 13.059169 -4.75 8.920398
v 13.285378 4.75 8.80751
v 13.284876 -4.75 8.806668
v 13.412872 4.75 8.700285
v 13.41304 -4.75 8.700481
v 13.465177 4.75 8.62778
v 13.464703 -4.75 8.627455
v 13.490988 4.75 8.565002
v 13.490743 -4.75 8.56491
v 13.499097 -4.75 8.507238
v 12.613943 4.75 9.044877
v 12.614198 -4.75 9.046526
v 13.499071 -4.75 8.492767
v 13.059298 -4.75 8.079215
v 13.059169 4.75 8.079602
v 13.285378 -4.75 8.19249
v 13.284876 4.75 8.193332
v 13.412872 -4.75 8.299715
v 13.41304 4.75 8.299519
v 13.465177 -4.75 8.37222
v 13.464703 4.75 8.372545
v 13.490988 -4.75 8.434998
v 13.490743 4.75 8.43509
v 13.499097 4.75 8.492762
v 12.614198 4.75 7.953475
v 12.613943 -4.75 7.955123
v -11.262097 -0.7 -2.330212
v -11.192005 -0.7 -2.228256
v -11.192041 0.7 -2.228223
newmtl 2
Ka 0.8509803921568627 0.8509803921568627 0.8509803921568627
Kd 0.8509803921568627 0.8509803921568627 0.8509803921568627
Ks 0.4235294117647059 0.4235294117647059 0.4235294117647059
d 0.0
endmtl
v -11.262097 0.7 -2.330212
v -11.320013 0.7 -2.47913
v -11.320013 -0.7 -2.47913
v -11.3379 0.7 -2.637908
v -11.3379 -0.7 -2.637908
v -11.314571 0.7 -2.795979
v -11.314571 -0.7 -2.795979
v -11.251577 0.7 -2.942821
v -11.251577 -0.7 -2.942821
v -11.183147 0.7 -3.036932
v -11.183147 -0.7 -3.036932
v -10.920656 0.7 -2.805419
v -10.950414 0.7 -2.764494
v -10.977807 0.7 -2.700638
v -10.987952 0.7 -2.631899
v -10.980173 0.7 -2.562851
v -10.954988 0.7 -2.498092
v -10.930766 0.7 -2.460795
v -10.931584 -0.7 -2.461724
v -10.954988 -0.7 -2.498092
v -10.980173 -0.7 -2.562851
v -10.987952 -0.7 -2.631899
v -10.977807 -0.7 -2.700638
v -10.950414 -0.7 -2.764494
v -10.920656 -0.7 -2.805419
v -11.009999 0.672287 -3.495014
v -11.009999 -0.672287 -3.495014
v -11.010909 0.675373 -3.481003
v -11.010139 -0.676148 -3.481174
v -11.015814 -0.692009 -3.405468
v -11.031679 -0.697717 -3.330131
v -11.015814 0.692009 -3.405468
v -11.088851 -0.7 -3.174086
v -11.088851 0.7 -3.174086
v -11.038025 -0.7 -3.3
v -11.038025 0.7 -3.3
v -11.030002 0.699366 -3.329777
v -10.678402 0.7 -3.3
v -10.69011 0.7 -3.246268
v -10.778701 0.7 -3.01189
v -10.660702 -0.675225 -3.48098
v -10.665196 -0.694053 -3.391054
v -10.678402 -0.7 -3.3
v -10.66 -0.672287 -3.495014
v -10.66 0.672287 -3.495014
v -10.660091 0.676148 -3.481174
v -10.665196 0.694053 -3.391054
v -10.69011 -0.7 -3.246268
v -10.778701 -0.7 -3.01189
v -11.009999 -0.606218 -3.65
v -11.009999 0.606218 -3.65
v -11.009999 0.494975 -3.794975
v -11.009999 -0.494975 -3.794975
v -11.009999 0.181173 -3.976148
v -11.009999 0.0 -4.0
v -11.009999 -0.181173 -3.976148
v -11.009999 0.35 -3.906218
v -11.009999 -0.35 -3.906218
v -10.66 -0.606218 -3.65
v -10.66 -0.494975 -3.794975
v -10.66 0.494975 -3.794975
v -10.66 0.606218 -3.65
v -10.66 -0.181173 -3.976148
v -10.66 0.0 -4.0
v -10.66 0.181173 -3.976148
v -10.66 -0.35 -3.906218
v -10.66 0.35 -3.906218
v -11.009999 -0.7 -1.776485
v -11.009999 0.7 -1.776485
v -10.66 0.7 -1.776485
v -10.66 -0.7 -1.776485
v -11.019473 -0.7 -1.887132
v -11.019473 0.7 -1.887132
v -11.056334 -0.7 -2.017677
v -11.056334 0.7 -2.017677
v -11.119452 -0.7 -2.137746
v -11.119452 0.7 -2.137746
v -10.674567 0.7 -1.946627
v -10.731249 0.7 -2.147365
v -10.828305 0.7 -2.331997
v -10.828305 -0.7 -2.331997
v -10.731249 -0.7 -2.147365
v -10.674567 -0.7 -1.946627
v 11.871584 -0.7 -2.461724
v 11.871548 0.7 -2.461756
v 11.894988 -0.7 -2.498092
v 11.894988 0.7 -2.498092
v 11.920174 -0.7 -2.562851
v 11.920174 0.7 -2.562851
v 11.927952 -0.7 -2.631899
v 11.927952 0.7 -2.631899
v 11.917808 -0.7 -2.700638
v 11.917808 0.7 -2.700638
v 11.890413 -0.7 -2.764494
v 11.890413 0.7 -2.764494
v 11.860656 -0.7 -2.805419
v 11.860656 0.7 -2.805419
v 12.132827 0.7 -2.22918
v 12.202097 0.7 -2.330212
v 12.260013 0.7 -2.47913
v 12.277901 0.7 -2.637908
v 12.254572 0.7 -2.795979
v 12.191577 0.7 -2.942821
v 12.123148 0.7 -3.036932
v 12.132005 -0.7 -2.228256
v 12.202097 -0.7 -2.330212
v 12.260013 -0.7 -2.47913
v 12.277901 -0.7 -2.637908
v 12.254572 -0.7 -2.795979
v 12.191577 -0.7 -2.942821
v 12.123148 -0.7 -3.036932
v 11.600701 0.675225 -3.48098
v 11.630111 -0.7 -3.246268
v 11.605197 0.694053 -3.391054
v 11.618402 0.7 -3.3
v 11.599999 0.672287 -3.495014
v 11.599999 -0.672287 -3.495014
v 11.600092 -0.676148 -3.481174
v 11.605197 -0.694053 -3.391054
v 11.618402 -0.7 -3.3
v 11.630111 0.7 -3.246268
v 11.718701 -0.7 -3.01189
v 11.718701 0.7 -3.01189
v 12.028851 0.7 -3.174086
v 11.978024 0.7 -3.3
v 11.95 -0.672287 -3.495014
v 11.95 0.672287 -3.495014
v 11.950911 -0.675373 -3.481003
v 11.950138 0.676148 -3.481174
v 11.955813 0.692009 -3.405468
v 11.97168 0.697717 -3.330131
v 11.955813 -0.692009 -3.405468
v 12.028851 -0.7 -3.174086
v 11.978024 -0.7 -3.3
v 11.970001 -0.699366 -3.329777
v 11.599999 0.606218 -3.65
v 11.599999 -0.606218 -3.65
v 11.599999 0.494975 -3.794975
v 11.599999 -0.494975 -3.794975
v 11.599999 0.181173 -3.976148
v 11.599999 0.0 -4.0
v 11.599999 -0.181173 -3.976148
v 11.599999 0.35 -3.906218
v 11.599999 -0.35 -3.906218
v 11.95 -0.606218 -3.65
v 11.95 -0.494975 -3.794975
v 11.95 0.494975 -3.794975
v 11.95 0.606218 -3.65
v 11.95 -0.181173 -3.976148
v 11.95 0.0 -4.0
v 11.95 0.181173 -3.976148
v 11.95 -0.35 -3.906218
v 11.95 0.35 -3.906218
v 11.599999 -0.7 -1.776485
v 11.599999 0.7 -1.776485
v 11.95 0.7 -1.776485
v 11.95 -0.7 -1.776485
v 11.768305 0.7 -2.331997
v 11.768305 -0.7 -2.331997
v 11.671248 -0.7 -2.147365
v 11.671248 0.7 -2.147365
v 11.614567 -0.7 -1.946627
v 11.614567 0.7 -1.946627
v 12.059452 0.7 -2.137746
v 11.996334 0.7 -2.017677
v 11.959474 0.7 -1.887132
v 11.959474 -0.7 -1.887132
v 11.996334 -0.7 -2.017677
v 12.059452 -0.7 -2.137746
v -9.46926 4.751 2.054121
v -9.46926 4.751 2.007748
newmtl 3
Ka 1.0 1.0 1.0
Kd 1.0 1.0 1.0
Ks 0.5019607843137255 0.5019607843137255 0.5019607843137255
d 0.0
endmtl
v -9.307266 4.751 2.054121
v -9.307266 4.751 2.414501
v -9.254758 4.751 2.414501
v -9.254758 4.751 2.007748
v -9.790442 4.751 2.024592
v -9.783503 4.751 2.021135
v -9.677835 4.751 2.000886
v -9.739832 4.751 2.006813
v -9.790442 4.751 2.074917
v -9.753534 4.751 2.05794
v -9.708113 4.751 2.048693
v -9.685426 4.751 2.047675
v -9.645448 4.751 2.052367
v -9.616302 4.751 2.063393
v -9.589561 4.751 2.082031
v -9.580931 4.751 2.090513
v -9.560323 4.751 2.119494
v -9.547484 4.751 2.152598
v -9.541037 4.751 2.202419
v -9.541004 4.751 2.20655
v -9.545779 4.751 2.254363
v -9.558221 4.751 2.291395
v -9.576744 4.751 2.320812
v -9.583737 4.751 2.328825
v -9.612362 4.751 2.35227
v -9.644469 4.751 2.366831
v -9.680035 4.751 2.373416
v -9.694576 4.751 2.373951
v -9.790442 4.751 2.349829
v -9.781383 4.751 2.354563
v -9.739563 4.751 2.369174
v -9.790442 4.751 2.404728
v -9.694057 4.751 2.421364
v -9.699965 4.751 2.42132
v -9.752192 4.751 2.416283
v -9.635756 4.751 2.414349
v -9.593175 4.751 2.397948
v -9.553796 4.751 2.370259
v -9.544642 4.751 2.361474
v -9.517888 4.751 2.327493
v -9.497467 4.751 2.28308
v -9.487137 4.751 2.231195
v -9.485897 4.751 2.203431
v -9.493713 4.751 2.137994
v -9.510154 4.751 2.095383
v -9.534307 4.751 2.060557
v -9.538093 4.751 2.056409
v -9.569015 4.751 2.030383
v -9.607115 4.751 2.011822
v -9.650773 4.751 2.002304
v -10.09062 4.751 2.054121
v -10.09062 4.751 2.007748
v -9.924362 4.751 2.054121
v -9.924362 4.751 2.190953
v -10.069825 4.751 2.190953
v -10.069825 4.751 2.237535
v -9.924362 4.751 2.237535
v -9.924362 4.751 2.367712
v -10.081366 4.751 2.367712
v -10.081366 4.751 2.414501
v -9.871855 4.751 2.414501
v -9.871855 4.751 2.007748
v -10.332932 4.751 2.362135
v -10.291293 4.751 2.414405
v -10.281416 4.751 2.367712
v -10.283495 4.751 2.414501
v -10.219966 4.751 2.367712
v -10.167459 4.751 2.414501
v -10.219966 4.751 2.054121
v -10.167459 4.751 2.007748
v -10.279024 4.751 2.054121
v -10.279336 4.751 2.007748
v -10.327226 4.751 2.058901
v -10.347683 4.751 2.015965
v -10.362941 4.751 2.070849
v -10.394191 4.751 2.033946
v -10.390416 4.751 2.088063
v -10.437275 4.751 2.064727
v -10.399948 4.751 2.096544
v -10.421195 4.751 2.12331
v -10.465121 4.751 2.097099
v -10.434833 4.751 2.153875
v -10.486112 4.751 2.13863
v -10.442335 4.751 2.191741
v -10.496871 4.751 2.185484
v -10.44341 4.751 2.214868
v -10.498621 4.751 2.216324
v -10.438646 4.751 2.260609
v -10.493855 4.751 2.263869
v -10.427831 4.751 2.291711
v -10.480286 4.751 2.304236
v -10.412693 4.751 2.315291
v -10.45632 4.751 2.34128
v -10.398805 4.751 2.329449
v -10.437275 4.751 2.360642
v -10.368367 4.751 2.349556
v -10.400844 4.751 2.386423
v -10.352693 4.751 2.40585
v -10.281416 4.75 2.367712
v -10.219966 4.75 2.367712
v -10.219966 4.75 2.054121
v -10.279024 4.75 2.054121
v -10.399948 4.75 2.096544
v -10.390416 4.75 2.088063
v -10.362941 4.75 2.070849
v -10.327226 4.75 2.058901
v -10.44341 4.75 2.214868
v -10.442335 4.75 2.191741
v -10.434833 4.75 2.153875
v -10.421195 4.75 2.12331
v -10.398805 4.75 2.329449
v -10.412693 4.75 2.315291
v -10.427831 4.75 2.291711
v -10.438646 4.75 2.260609
v -10.332932 4.75 2.362135
v -10.368367 4.75 2.349556
v -10.634933 4.751 2.16496
v -10.695759 4.751 2.334024
v -10.676107 4.751 2.414501
v -10.521184 4.751 2.007748
v -10.579203 4.751 2.007748
v -10.618298 4.751 2.119002
v -10.699282 4.751 2.346163
v -10.702414 4.751 2.362514
v -10.732255 4.751 2.414501
v -10.703662 4.751 2.362514
v -10.706949 4.751 2.345306
v -10.710004 4.751 2.334024
v -10.771454 4.751 2.16496
v -10.887178 4.751 2.007748
v -10.82916 4.751 2.007748
v -10.787673 4.751 2.119002
v -10.634933 4.75 2.16496
v -10.771454 4.75 2.16496
v -10.710004 4.75 2.334024
v -10.703662 4.75 2.362514
v -10.706949 4.75 2.345306
v -10.702414 4.75 2.362514
v -10.695759 4.75 2.334024
v -10.699282 4.75 2.346163
v -9.473523 4.751 1.408848
v -9.473523 4.751 1.362474
v -9.307266 4.751 1.408848
v -9.307266 4.751 1.54568
v -9.452728 4.751 1.54568
v -9.452728 4.751 1.592261
v -9.307266 4.751 1.592261
v -9.307266 4.751 1.722439
v -9.46427 4.751 1.722439
v -9.46427 4.751 1.769228
v -9.254758 4.751 1.769228
v -9.254758 4.751 1.362474
v -9.704766 4.751 1.362474
v -9.755713 4.751 1.362474
v -9.704766 4.751 1.407392
v -9.755713 4.751 1.549423
v -9.704766 4.751 1.547135
v -9.594461 4.751 1.486523
v -9.606768 4.751 1.492249
v -9.636765 4.751 1.499099
v -9.704766 4.751 1.508248
v -9.704766 4.751 1.480383
v -9.702993 4.751 1.569663
v -9.750974 4.751 1.59132
v -9.697726 4.751 1.587805
v -9.74268 4.751 1.613446
v -9.691739 4.751 1.598297
v -9.731987 4.751 1.629339
v -9.684037 4.751 1.60649
v -9.721056 4.751 1.639713
v -9.674993 4.751 1.612319
v -9.704497 4.751 1.649628
v -9.663175 4.751 1.616447
v -9.683543 4.751 1.656422
v -9.645916 4.751 1.618255
v -9.650698 4.751 1.659637
v -9.61667 4.751 1.615331
v -9.605309 4.751 1.654873
v -9.584792 4.751 1.604728
v -9.566438 4.751 1.641371
v -9.550673 4.751 1.583111
v -9.550673 4.751 1.632604
v -9.704717 4.751 1.477002
v -9.701436 4.751 1.45427
v -9.693962 4.751 1.436093
v -9.703415 4.751 1.407392
v -9.682931 4.751 1.421117
v -9.695477 4.751 1.395311
v -9.676542 4.751 1.414873
v -9.679386 4.751 1.377985
v -9.662145 4.751 1.405158
v -9.661337 4.751 1.365984
v -9.646687 4.751 1.399543
v -9.64068 4.751 1.35852
v -9.627616 4.751 1.39741
v -9.61441 4.751 1.355612
v -9.610407 4.751 1.399349
v -9.583933 4.751 1.359151
v -9.598882 4.751 1.403578
v -9.5644 4.751 1.366516
v -9.588729 4.751 1.410511
v -9.547242 4.751 1.378487
v -9.584396 4.751 1.414866
v -9.618673 4.751 1.535074
v -9.577588 4.751 1.524567
v -9.587481 4.751 1.481215
v -9.556782 4.751 1.513319
v -9.581383 4.751 1.473665
v -9.541691 4.751 1.499615
v -9.576911 4.751 1.464162
v -9.531016 4.751 1.483089
v -9.574395 4.751 1.452494
v -9.524745 4.751 1.464511
v -9.573964 4.751 1.444407
v -9.522288 4.751 1.440248
v -9.575258 4.751 1.432711
v -9.524797 4.751 1.417155
v -9.578606 4.751 1.423455
v -9.530959 4.751 1.399918
v -9.541545 4.751 1.384262
v -9.587481 4.75 1.481215
v -9.594461 4.75 1.486523
v -9.606768 4.75 1.492249
v -9.636765 4.75 1.499099
v -9.573964 4.75 1.444407
v -9.574395 4.75 1.452494
v -9.576911 4.75 1.464162
v -9.581383 4.75 1.473665
v -9.588729 4.75 1.410511
v -9.584396 4.75 1.414866
v -9.578606 4.75 1.423455
v -9.575258 4.75 1.432711
v -9.627616 4.75 1.39741
v -9.610407 4.75 1.399349
v -9.598882 4.75 1.403578
v -9.682931 4.75 1.421117
v -9.676542 4.75 1.414873
v -9.662145 4.75 1.405158
v -9.646687 4.75 1.399543
v -9.704766 4.75 1.480383
v -9.704717 4.75 1.477002
v -9.701436 4.75 1.45427
v -9.693962 4.75 1.436093
v -9.704766 4.75 1.508248
v -9.824754 4.751 1.425276
v -9.844682 4.751 1.412953
v -9.908558 4.751 1.397202
v -9.876626 4.751 1.400934
v -9.824754 4.751 1.372664
v -9.860183 4.751 1.360169
v -9.903568 4.751 1.355612
v -9.946722 4.751 1.360355
v -9.974211 4.751 1.370299
v -9.988204 4.751 1.378695
v -10.00278 4.751 1.391443
v -10.012277 4.751 1.40488
v -10.018533 4.751 1.421025
v -10.020956 4.751 1.441496
v -10.018849 4.751 1.460477
v -10.013413 4.751 1.475499
v -10.003904 4.751 1.489533
v -9.991755 4.751 1.500372
v -9.957919 4.751 1.51919
v -9.938191 4.751 1.527172
v -9.906661 4.751 1.540897
v -9.8887 4.751 1.552126
v -9.88373 4.751 1.557595
v -9.880059 4.751 1.564469
v -9.878037 4.751 1.572383
v -9.877574 4.751 1.57916
v -9.878496 4.751 1.587286
v -9.88101 4.751 1.594164
v -9.885379 4.751 1.600648
v -9.893066 4.751 1.607441
v -9.90449 4.751 1.613516
v -9.918118 4.751 1.617124
v -9.933201 4.751 1.618255
v -9.969934 4.751 1.613628
v -9.998626 4.751 1.602217
v -10.007024 4.751 1.597252
v -10.007024 4.751 1.646744
v -9.969472 4.751 1.657237
v -9.938191 4.751 1.659637
v -9.898153 4.751 1.654933
v -9.870731 4.751 1.644509
v -9.857714 4.751 1.636555
v -9.84261 4.751 1.622976
v -9.833143 4.751 1.609206
v -9.827076 4.751 1.592803
v -9.825066 4.751 1.574585
v -9.827256 4.751 1.554804
v -9.832875 4.751 1.539246
v -9.839518 4.751 1.528628
v -9.902216 4.751 1.490157
v -9.871847 4.751 1.504077
v -9.847854 4.751 1.519911
v -9.93567 4.751 1.476146
v -9.955555 4.751 1.464163
v -9.961904 4.751 1.457552
v -9.965842 4.751 1.450799
v -9.968158 4.751 1.442843
v -9.968657 4.751 1.436505
v -9.967601 4.751 1.426786
v -9.965012 4.751 1.41954
v -9.960564 4.751 1.412963
v -9.954718 4.751 1.407774
v -9.950072 4.751 1.404955
v -9.936926 4.751 1.400143
v -9.910809 4.751 1.397216
v -10.273514 4.751 1.652983
v -10.326333 4.751 1.652983
v -10.19418 4.751 1.434218
v -10.190281 4.751 1.420675
v -10.187942 4.751 1.410719
v -10.186589 4.751 1.410719
v -10.180351 4.751 1.434634
v -10.104448 4.751 1.652983
v -10.04747 4.751 1.652983
v -10.161427 4.751 1.363098
v -10.139072 4.751 1.310279
v -10.129107 4.751 1.291992
v -10.119617 4.751 1.281358
v -10.110268 4.751 1.274867
v -10.099111 4.751 1.270682
v -10.086876 4.751 1.269312
v -10.068395 4.751 1.271719
v -10.057972 4.751 1.275135
v -10.057972 4.751 1.229801
v -10.079581 4.751 1.226046
v -10.090828 4.751 1.225642
v -10.131516 4.751 1.235668
v -10.111411 4.751 1.228009
v -10.14931 4.751 1.248105
v -10.152784 4.751 1.251289
v -10.171428 4.751 1.273679
v -10.194491 4.751 1.318597
v -10.599997 4.751 1.408848
v -10.599997 4.751 1.362474
v -10.43374 4.751 1.408848
v -10.43374 4.751 1.54568
v -10.579203 4.751 1.54568
v -10.579203 4.751 1.592261
v -10.43374 4.751 1.592261
v -10.43374 4.751 1.722439
v -10.590743 4.751 1.722439
v -10.590743 4.751 1.769228
v -10.381232 4.751 1.769228
v -10.381232 4.751 1.362474
v -10.84231 4.751 1.716861
v -10.800671 4.751 1.769131
v -10.790793 4.751 1.722439
v -10.792871 4.751 1.769228
v -10.729343 4.751 1.722439
v -10.676836 4.751 1.769228
v -10.729343 4.751 1.408848
v -10.676836 4.751 1.362474
v -10.788402 4.751 1.408848
v -10.788713 4.751 1.362474
v -10.836603 4.751 1.413627
v -10.85706 4.751 1.370692
v -10.872318 4.751 1.425576
v -10.903568 4.751 1.388672
v -10.899794 4.751 1.442789
v -10.946652 4.751 1.419453
v -10.909326 4.751 1.45127
v -10.930573 4.751 1.478036
v -10.974499 4.751 1.451825
v -10.94421 4.751 1.508601
v -10.995489 4.751 1.493356
v -10.951713 4.751 1.546468
v -11.006248 4.751 1.54021
v -10.952787 4.751 1.569594
v -11.007998 4.751 1.57105
v -10.948024 4.751 1.615335
v -11.003233 4.751 1.618596
v -10.937208 4.751 1.646437
v -10.989663 4.751 1.658962
v -10.922071 4.751 1.670017
v -10.965697 4.751 1.696007
v -10.908182 4.751 1.684176
v -10.946652 4.751 1.715368
v -10.877745 4.751 1.704282
v -10.910221 4.751 1.741149
v -10.86207 4.751 1.760576
v -10.790793 4.75 1.722439
v -10.729343 4.75 1.722439
v -10.729343 4.75 1.408848
v -10.788402 4.75 1.408848
v -10.909326 4.75 1.45127
v -10.899794 4.75 1.442789
v -10.872318 4.75 1.425576
v -10.836603 4.75 1.413627
v -10.952787 4.75 1.569594
v -10.951713 4.75 1.546468
v -10.94421 4.75 1.508601
v -10.930573 4.75 1.478036
v -10.908182 4.75 1.684176
v -10.922071 4.75 1.670017
v -10.937208 4.75 1.646437
v -10.948024 4.75 1.615335
v -10.84231 4.75 1.716861
v -10.877745 4.75 1.704282
v -11.14431 4.751 1.519686
v -11.205137 4.751 1.688751
v -11.185485 4.751 1.769228
v -11.030561 4.751 1.362474
v -11.08858 4.751 1.362474
v -11.127674 4.751 1.473729
v -11.208659 4.751 1.70089
v -11.211791 4.751 1.71724
v -11.241632 4.751 1.769228
v -11.213038 4.751 1.71724
v -11.216327 4.751 1.700032
v -11.219381 4.751 1.688751
v -11.280831 4.751 1.519686
v -11.396556 4.751 1.362474
v -11.338537 4.751 1.362474
v -11.29705 4.751 1.473729
v -11.14431 4.75 1.519686
v -11.280831 4.75 1.519686
v -11.219381 4.75 1.688751
v -11.213038 4.75 1.71724
v -11.216327 4.75 1.700032
v -11.211791 4.75 1.71724
v -11.205137 4.75 1.688751
v -11.208659 4.75 1.70089
v -7.458472 4.751 1.304648
v -7.50152 4.751 1.251594
v -7.432269 4.751 1.56061
v -8.398189 4.751 1.702317
v -8.308537 4.751 1.855591
v -7.921012 4.751 1.653153
v -7.725298 4.751 1.56667
v -7.752155 4.751 1.557057
v -7.381659 4.751 2.062923
v -7.44605 4.751 2.097228
v -7.431066 4.751 2.275297
v -7.611571 4.751 2.283603
v -7.701222 4.751 2.07249
v -7.745455 4.751 2.164051
v -7.369144 4.751 1.59951
v -7.392715 4.751 1.377821
v -7.429377 4.751 1.366848
v -7.545056 4.751 2.289387
v -7.77542 4.751 1.541351
v -7.794052 4.751 1.520557
v -7.993311 4.751 1.488311
v -7.672939 4.751 1.565658
v -7.634903 4.751 1.742931
v -7.647684 4.751 1.555689
v -7.571035 4.751 1.718459
v -7.625073 4.751 1.539611
v -7.511927 4.751 1.677344
v -7.613641 4.751 1.527523
v -7.464141 4.751 1.622647
v -7.598694 4.751 1.503603
v -7.59017 4.751 1.476385
v -7.588733 4.751 1.448199
v -7.80898 4.751 1.73211
v -7.739159 4.751 1.74941
v -7.704114 4.751 1.75148
v -8.493624 4.751 1.988622
v -8.516759 4.751 1.988622
v -8.63533 4.751 2.144789
v -8.571889 4.751 1.981805
v -8.649363 4.751 2.140074
v -8.622353 4.751 1.962335
v -8.735438 4.751 2.097402
v -8.813909 4.751 2.031085
v -7.670856 4.751 2.352649
v -7.810338 4.751 2.241526
v -7.738818 4.751 2.41085
v -7.887716 4.751 2.298064
v -7.809474 4.751 2.454614
v -7.517414 4.751 2.114257
v -7.547947 4.751 2.115869
v -7.578313 4.751 2.28758
v -7.616275 4.751 2.107341
v -7.681104 4.751 2.083515
v -7.806612 4.751 1.496813
v -7.813216 4.751 1.469998
v -7.993311 4.751 1.459391
v -7.813258 4.751 1.443537
v -7.9917 4.751 1.428857
v -8.814632 4.751 1.491203
v -8.680027 4.751 1.606209
v -8.736008 4.751 1.424634
v -8.63732 4.751 1.571229
v -8.647775 4.751 1.381437
v -8.586327 4.751 1.547517
v -8.551462 4.751 1.361064
v -8.534111 4.751 1.537474
v -8.380836 4.751 1.361064
v -8.403972 4.751 1.537474
v -8.364544 4.751 1.363689
v -7.701222 4.751 1.569286
v -7.870367 4.751 1.699246
v -8.667189 4.751 1.930982
v -8.700208 4.751 1.894155
v -8.872969 4.751 1.948836
v -8.727185 4.751 1.84432
v -8.90836 4.751 1.860522
v -8.740871 4.751 1.788803
v -8.921636 4.751 1.76594
v -8.742333 4.751 1.763048
v -8.908399 4.751 1.662852
v -8.735362 4.751 1.706631
v -8.872097 4.751 1.571281
v -8.715404 4.751 1.655099
v -8.683561 4.751 1.610008
v -8.479163 4.751 2.373255
v -8.365715 4.751 2.240596
v -8.575144 4.751 2.262112
v -8.431033 4.751 2.162745
v -8.475766 4.751 2.069621
v -7.267407 4.751 1.896812
v -7.077366 4.751 1.848524
v -7.25875 4.751 1.826672
v -7.076556 4.751 1.820888
v -7.262275 4.751 1.781679
v -7.090581 4.751 1.70748
v -7.283112 4.751 1.710947
v -7.132047 4.751 1.599823
v -7.317316 4.751 1.652805
v -7.198019 4.751 1.505662
v -7.288207 4.751 1.428749
v -7.594088 4.751 1.421078
v -7.605535 4.751 1.396768
v -7.942829 4.751 2.506026
v -7.982176 4.751 2.336377
v -8.085855 4.751 2.523637
v -8.088747 4.751 2.350119
v -8.205041 4.751 2.511118
v -8.186954 4.751 2.338029
v -8.35017 4.751 2.45998
v -8.277632 4.751 2.303248
v -8.358868 4.751 2.246829
v -7.32394 4.751 2.23369
v -7.231962 4.751 2.169016
v -7.332331 4.751 2.018884
v -7.212479 4.751 2.150573
v -7.292214 4.751 1.961301
v -7.142889 4.751 2.061345
v -7.09676 4.751 1.957217
v -7.97467 4.751 1.357493
v -7.806353 4.751 1.415782
v -7.940366 4.751 1.293102
v -7.792904 4.751 1.390941
v -7.896327 4.751 1.243774
v -7.777206 4.751 1.373207
v -7.838743 4.751 1.203658
v -7.755239 4.751 1.357454
v -7.774255 4.751 1.178851
v -7.730189 4.751 1.347447
v -7.704114 4.751 1.170194
v -7.701222 4.751 1.343712
v -7.693155 4.751 1.170394
v -7.696295 4.751 1.34382
v -7.624866 4.751 1.180998
v -7.670333 4.751 1.348053
v -7.558119 4.751 1.208991
v -7.64419 4.751 1.35928
v -7.622054 4.751 1.376246
v -8.389435 4.751 1.540162
v -8.319937 4.751 1.391397
v -8.326659 4.751 1.384554
v -8.398111 4.751 1.538241
v -8.345415 4.751 1.371219
v -8.296969 4.751 1.450715
v -8.299713 4.751 1.429174
v -8.307331 4.751 1.409563
v -8.36421 4.751 1.53749
v -8.344365 4.751 1.529651
v -8.297703 4.751 1.462128
v -8.326583 4.751 1.517047
v -8.314632 4.751 1.50387
v -8.303512 4.751 1.484139
v -8.386621 4.751 1.540366
v -7.701222 4.75 1.569286
v -7.725298 4.75 1.56667
v -7.752155 4.75 1.557057
v -7.77542 4.75 1.541351
v -7.794052 4.75 1.520557
v -7.806612 4.75 1.496813
v -7.813216 4.75 1.469998
v -7.813258 4.75 1.443537
v -7.806353 4.75 1.415782
v -7.792904 4.75 1.390941
v -7.777206 4.75 1.373207
v -7.755239 4.75 1.357454
v -7.730189 4.75 1.347447
v -7.701222 4.75 1.343712
v -7.696295 4.75 1.34382
v -7.670333 4.75 1.348053
v -7.64419 4.75 1.35928
v -7.622054 4.75 1.376246
v -7.605535 4.75 1.396768
v -7.594088 4.75 1.421078
v -7.588733 4.75 1.448199
v -7.59017 4.75 1.476385
v -7.598694 4.75 1.503603
v -7.613641 4.75 1.527523
v -7.625073 4.75 1.539611
v -7.647684 4.75 1.555689
v -7.672939 4.75 1.565658
usemtl 1
f 1// 2// 3//
f 4// 5// 6//
f 7// 8// 9//
f 10// 11// 12//
f 13// 14// 15//
f 16// 17// 18//
f 18// 17// 19//
f 20// 21// 22//
f 22// 21// 18//
f 22// 18// 23//
f 23// 18// 24//
f 19// 25// 18//
f 18// 25// 26//
f 18// 26// 24//
f 27// 28// 29//
f 16// 18// 30//
f 30// 18// 31//
f 30// 31// 32//
f 29// 28// 31//
f 31// 28// 33//
f 31// 33// 32//
f 34// 35// 36//
f 27// 29// 37//
f 37// 29// 38//
f 37// 38// 39//
f 35// 34// 38//
f 34// 40// 38//
f 38// 40// 41//
f 38// 41// 42//
f 38// 43// 39//
f 39// 43// 44//
f 39// 44// 45//
f 45// 44// 46//
f 45// 46// 47//
f 42// 48// 38//
f 38// 48// 49//
f 38// 49// 43//
f 50// 51// 52//
f 52// 51// 53//
f 50// 52// 54//
f 54// 52// 55//
f 54// 55// 56//
f 53// 57// 52//
f 52// 57// 58//
f 52// 58// 59//
f 59// 58// 60//
f 61// 62// 52//
f 52// 62// 63//
f 52// 63// 55//
f 64// 65// 66//
f 66// 65// 67//
f 66// 67// 68//
f 61// 52// 69//
f 69// 52// 70//
f 69// 70// 68//
f 68// 70// 71//
f 68// 71// 66//
f 72// 73// 74//
f 74// 73// 75//
f 75// 76// 74//
f 74// 76// 77//
f 74// 77// 78//
f 79// 80// 81//
f 82// 83// 84//
f 84// 83// 85//
f 79// 81// 86//
f 87// 88// 89//
f 90// 91// 83//
f 83// 91// 92//
f 83// 92// 93//
f 20// 94// 21//
f 21// 94// 95//
f 21// 95// 89//
f 89// 95// 96//
f 89// 96// 87//
f 80// 97// 81//
f 81// 97// 98//
f 81// 98// 99//
f 100// 101// 102//
f 102// 101// 103//
f 102// 103// 104//
f 105// 93// 106//
f 106// 93// 107//
f 106// 107// 102//
f 102// 107// 108//
f 102// 108// 100//
f 105// 109// 93//
f 93// 109// 110//
f 93// 110// 83//
f 83// 110// 111//
f 83// 111// 85//
f 88// 112// 89//
f 89// 112// 113//
f 89// 113// 114//
f 115// 116// 117//
f 117// 116// 118//
f 117// 118// 81//
f 81// 118// 119//
f 81// 119// 86//
f 120// 121// 81//
f 81// 121// 122//
f 81// 122// 83//
f 83// 122// 123//
f 83// 123// 90//
f 124// 125// 72//
f 125// 126// 72//
f 72// 126// 127//
f 72// 127// 128//
f 128// 129// 72//
f 72// 129// 130//
f 72// 130// 131//
f 131// 130// 115//
f 131// 115// 132//
f 132// 115// 117//
f 99// 133// 81//
f 81// 133// 134//
f 81// 134// 135//
f 135// 136// 81//
f 81// 136// 137//
f 81// 137// 120//
f 138// 139// 140//
f 139// 141// 140//
f 140// 141// 142//
f 140// 142// 143//
f 92// 140// 93//
f 93// 140// 144//
f 93// 144// 145//
f 146// 147// 148//
f 148// 147// 149//
f 148// 149// 150//
f 146// 148// 92//
f 92// 148// 151//
f 92// 151// 140//
f 140// 151// 152//
f 140// 152// 138//
f 153// 154// 155//
f 155// 154// 156//
f 155// 156// 157//
f 143// 142// 158//
f 158// 142// 159//
f 158// 159// 160//
f 160// 159// 161//
f 160// 161// 162//
f 145// 163// 93//
f 93// 163// 155//
f 93// 155// 164//
f 164// 155// 157//
f 165// 166// 167//
f 166// 165// 168//
f 169// 170// 171//
f 166// 171// 167//
f 167// 171// 170//
f 167// 170// 172//
f 172// 170// 173//
f 172// 173// 174//
f 171// 175// 169//
f 169// 175// 176//
f 169// 176// 177//
f 165// 178// 168//
f 168// 178// 179//
f 168// 179// 180//
f 173// 181// 174//
f 174// 181// 182//
f 174// 182// 183//
f 183// 182// 184//
f 185// 186// 187//
f 188// 189// 190//
f 190// 189// 191//
f 190// 191// 167//
f 167// 191// 192//
f 167// 192// 165//
f 187// 193// 185//
f 185// 193// 194//
f 185// 194// 195//
f 195// 194// 196//
f 195// 196// 188//
f 188// 196// 184//
f 188// 184// 189//
f 189// 184// 182//
f 15// 14// 197//
f 197// 14// 198//
f 197// 198// 199//
f 200// 201// 202//
f 203// 204// 199//
f 205// 206// 207//
f 203// 199// 208//
f 205// 207// 199//
f 199// 207// 209//
f 199// 209// 208//
f 210// 211// 212//
f 211// 210// 11//
f 11// 210// 213//
f 11// 213// 12//
f 214// 215// 12//
f 216// 217// 218//
f 201// 219// 202//
f 202// 219// 220//
f 202// 220// 218//
f 218// 220// 221//
f 218// 221// 216//
f 222// 223// 12//
f 12// 223// 224//
f 217// 225// 218//
f 218// 225// 226//
f 218// 226// 227//
f 227// 226// 228//
f 227// 228// 214//
f 229// 230// 215//
f 215// 230// 231//
f 215// 231// 12//
f 12// 231// 232//
f 12// 232// 222//
f 224// 233// 12//
f 12// 233// 234//
f 12// 234// 10//
f 235// 236// 237//
f 237// 236// 238//
f 237// 238// 239//
f 237// 240// 235//
f 235// 240// 241//
f 235// 241// 242//
f 242// 243// 235//
f 235// 243// 244//
f 235// 244// 245//
f 245// 244// 246//
f 245// 246// 247//
f 247// 246// 248//
f 247// 248// 215//
f 215// 248// 249//
f 215// 249// 229//
f 250// 251// 239//
f 239// 251// 252//
f 239// 252// 237//
f 253// 254// 206//
f 206// 254// 255//
f 206// 255// 207//
f 253// 256// 254//
f 254// 256// 257//
f 254// 257// 258//
f 258// 257// 259//
f 258// 260// 261//
f 259// 262// 258//
f 258// 262// 263//
f 258// 263// 264//
f 264// 265// 258//
f 258// 265// 266//
f 258// 266// 260//
f 261// 267// 258//
f 258// 267// 268//
f 258// 268// 269//
f 270// 271// 272//
f 272// 271// 167//
f 272// 167// 273//
f 273// 167// 274//
f 273// 274// 275//
f 276// 190// 277//
f 277// 190// 167//
f 277// 167// 278//
f 278// 167// 271//
f 279// 280// 281//
f 281// 280// 282//
f 281// 282// 283//
f 284// 285// 286//
f 286// 285// 287//
f 285// 288// 287//
f 287// 288// 289//
f 287// 289// 290//
f 279// 291// 292//
f 292// 291// 293//
f 292// 293// 294//
f 283// 282// 295//
f 295// 282// 296//
f 295// 296// 297//
f 297// 218// 298//
f 298// 218// 227//
f 298// 227// 299//
f 299// 227// 188//
f 299// 188// 286//
f 300// 301// 302//
f 302// 301// 303//
f 302// 303// 36//
f 36// 303// 59//
f 36// 59// 34//
f 34// 59// 60//
f 304// 305// 9//
f 300// 306// 301//
f 301// 306// 307//
f 301// 307// 308//
f 308// 307// 9//
f 308// 9// 309//
f 309// 9// 305//
f 7// 9// 310//
f 310// 9// 311//
f 310// 311// 312//
f 8// 313// 9//
f 9// 313// 314//
f 9// 314// 304//
f 315// 29// 316//
f 316// 29// 31//
f 316// 31// 317//
f 317// 31// 318//
f 319// 202// 320//
f 320// 202// 218//
f 320// 218// 321//
f 321// 218// 322//
f 297// 296// 218//
f 218// 296// 323//
f 218// 323// 322//
f 322// 323// 324//
f 322// 324// 325//
f 325// 324// 326//
f 325// 326// 327//
f 328// 329// 330//
f 330// 329// 325//
f 330// 325// 331//
f 327// 332// 325//
f 325// 332// 333//
f 325// 333// 334//
f 335// 336// 325//
f 325// 336// 337//
f 325// 337// 331//
f 338// 339// 340//
f 341// 342// 330//
f 330// 342// 343//
f 330// 343// 328//
f 334// 344// 325//
f 325// 344// 345//
f 325// 345// 335//
f 338// 340// 330//
f 330// 340// 346//
f 330// 346// 341//
f 347// 348// 349//
f 349// 348// 350//
f 349// 350// 296//
f 296// 350// 351//
f 296// 351// 323//
f 352// 353// 354//
f 354// 353// 355//
f 354// 355// 356//
f 356// 355// 357//
f 356// 357// 358//
f 358// 357// 359//
f 358// 359// 347//
f 360// 361// 354//
f 354// 361// 362//
f 362// 363// 354//
f 354// 363// 364//
f 354// 364// 352//
f 365// 366// 367//
f 367// 366// 368//
f 367// 368// 369//
f 369// 368// 370//
f 371// 372// 373//
f 372// 374// 373//
f 373// 374// 375//
f 373// 375// 376//
f 319// 377// 202//
f 202// 377// 378//
f 202// 378// 373//
f 373// 378// 379//
f 373// 379// 371//
f 380// 381// 382//
f 382// 381// 383//
f 384// 385// 386//
f 385// 387// 386//
f 386// 387// 197//
f 386// 197// 388//
f 389// 390// 391//
f 380// 392// 381//
f 381// 392// 393//
f 381// 393// 394//
f 394// 393// 391//
f 394// 391// 395//
f 395// 391// 390//
f 202// 396// 397//
f 398// 399// 386//
f 386// 399// 400//
f 386// 400// 384//
f 204// 200// 199//
f 199// 200// 202//
f 199// 202// 197//
f 197// 202// 397//
f 197// 397// 388//
f 401// 402// 403//
f 403// 402// 404//
f 403// 404// 405//
f 406// 407// 391//
f 391// 407// 408//
f 391// 408// 409//
f 405// 410// 403//
f 403// 410// 411//
f 403// 411// 373//
f 373// 411// 383//
f 373// 383// 412//
f 412// 383// 381//
f 413// 414// 202//
f 202// 414// 415//
f 415// 416// 202//
f 202// 416// 417//
f 202// 417// 396//
f 409// 418// 391//
f 391// 418// 419//
f 391// 419// 389//
f 412// 420// 373//
f 373// 420// 421//
f 373// 421// 202//
f 202// 421// 422//
f 202// 422// 413//
f 387// 423// 424//
f 424// 423// 425//
f 423// 426// 425//
f 425// 426// 427//
f 425// 427// 403//
f 403// 427// 428//
f 403// 428// 401//
f 429// 430// 12//
f 214// 12// 227//
f 227// 12// 430//
f 227// 430// 188//
f 188// 430// 431//
f 188// 431// 195//
f 432// 433// 429//
f 434// 435// 436//
f 436// 435// 437//
f 436// 437// 432//
f 432// 429// 436//
f 436// 429// 12//
f 436// 12// 438//
f 438// 12// 213//
f 438// 213// 439//
f 438// 440// 436//
f 436// 440// 441//
f 436// 441// 442//
f 443// 444// 445//
f 445// 444// 446//
f 445// 446// 213//
f 213// 446// 447//
f 213// 447// 439//
f 442// 448// 436//
f 436// 448// 449//
f 436// 449// 434//
f 450// 451// 452//
f 450// 452// 183//
f 451// 453// 452//
f 452// 453// 454//
f 452// 454// 445//
f 445// 454// 455//
f 445// 455// 443//
f 456// 2// 457//
f 457// 2// 1//
f 457// 1// 458//
f 458// 1// 459//
f 460// 461// 462//
f 463// 464// 465//
f 462// 461// 274//
f 274// 461// 466//
f 274// 466// 467//
f 465// 460// 463//
f 463// 460// 462//
f 463// 462// 468//
f 468// 462// 459//
f 468// 459// 467//
f 467// 459// 1//
f 467// 1// 274//
f 274// 1// 3//
f 274// 3// 275//
f 275// 3// 469//
f 275// 469// 470//
f 470// 469// 471//
f 274// 472// 473//
f 474// 475// 462//
f 462// 475// 476//
f 462// 476// 477//
f 477// 478// 462//
f 462// 478// 479//
f 462// 479// 172//
f 172// 479// 480//
f 172// 480// 167//
f 480// 481// 167//
f 167// 481// 482//
f 167// 482// 274//
f 274// 482// 483//
f 274// 483// 472//
f 473// 484// 274//
f 274// 484// 485//
f 274// 485// 486//
f 486// 487// 274//
f 274// 487// 488//
f 274// 488// 462//
f 462// 488// 489//
f 462// 489// 474//
f 183// 452// 174//
f 174// 452// 490//
f 174// 490// 172//
f 172// 490// 491//
f 172// 491// 462//
f 462// 491// 6//
f 462// 6// 459//
f 459// 6// 5//
f 459// 5// 458//
f 292// 284// 279//
f 279// 284// 286//
f 279// 286// 280//
f 280// 286// 188//
f 280// 188// 492//
f 493// 494// 190//
f 190// 494// 495//
f 190// 495// 496//
f 496// 497// 190//
f 190// 497// 498//
f 190// 498// 188//
f 188// 498// 499//
f 188// 499// 492//
f 492// 500// 280//
f 280// 500// 501//
f 280// 501// 502//
f 502// 501// 503//
f 502// 503// 504//
f 504// 505// 502//
f 502// 505// 506//
f 502// 506// 507//
f 507// 508// 502//
f 502// 508// 509//
f 502// 509// 510//
f 471// 469// 276//
f 276// 469// 502//
f 276// 502// 190//
f 190// 502// 510//
f 190// 510// 493//
f 387// 424// 197//
f 197// 424// 210//
f 197// 210// 15//
f 15// 210// 212//
f 15// 212// 13//
f 347// 349// 358//
f 358// 349// 296//
f 358// 296// 511//
f 511// 296// 282//
f 511// 282// 512//
f 512// 282// 280//
f 512// 280// 513//
f 513// 280// 502//
f 513// 502// 514//
f 514// 502// 469//
f 514// 469// 515//
f 515// 469// 3//
f 515// 3// 516//
f 516// 3// 2//
f 516// 2// 517//
f 517// 2// 456//
f 517// 456// 518//
f 4// 6// 519//
f 519// 6// 491//
f 519// 491// 520//
f 520// 491// 490//
f 520// 490// 521//
f 521// 490// 452//
f 521// 452// 522//
f 522// 452// 445//
f 522// 445// 523//
f 523// 445// 213//
f 523// 213// 524//
f 524// 213// 210//
f 524// 210// 525//
f 525// 210// 424//
f 525// 424// 526//
f 526// 424// 425//
f 526// 425// 527//
f 528// 529// 527//
f 376// 370// 373//
f 373// 370// 368//
f 373// 368// 403//
f 403// 368// 530//
f 403// 530// 425//
f 356// 531// 354//
f 354// 531// 366//
f 354// 366// 360//
f 360// 366// 365//
f 529// 74// 66//
f 66// 74// 78//
f 66// 78// 64//
f 529// 528// 74//
f 74// 528// 89//
f 74// 89// 72//
f 72// 89// 114//
f 72// 114// 124//
f 527// 425// 528//
f 528// 425// 530//
f 528// 530// 89//
f 89// 530// 532//
f 89// 532// 21//
f 21// 532// 533//
f 21// 533// 368//
f 368// 533// 534//
f 368// 534// 535//
f 536// 537// 538//
f 538// 537// 539//
f 538// 539// 540//
f 541// 542// 535//
f 535// 542// 540//
f 535// 540// 368//
f 368// 540// 539//
f 368// 539// 530//
f 530// 539// 543//
f 530// 543// 532//
f 544// 18// 545//
f 545// 18// 21//
f 545// 21// 546//
f 546// 21// 368//
f 546// 368// 547//
f 547// 368// 366//
f 547// 366// 548//
f 548// 366// 549//
f 544// 549// 18//
f 18// 549// 366//
f 18// 366// 31//
f 31// 366// 531//
f 31// 531// 318//
f 318// 531// 356//
f 318// 356// 550//
f 550// 356// 358//
f 550// 358// 551//
f 551// 358// 511//
f 551// 511// 552//
f 552// 511// 512//
f 552// 512// 553//
f 553// 512// 513//
f 553// 513// 554//
f 554// 513// 514//
f 554// 514// 555//
f 555// 514// 515//
f 555// 515// 556//
f 556// 515// 516//
f 556// 516// 557//
f 557// 516// 517//
f 557// 517// 558//
f 558// 517// 518//
f 558// 518// 559//
f 560// 306// 300//
f 560// 300// 561//
f 561// 300// 302//
f 561// 302// 36//
f 562// 563// 564//
f 564// 563// 565//
f 566// 35// 38//
f 566// 38// 567//
f 567// 38// 29//
f 567// 29// 315//
f 568// 569// 570//
f 570// 569// 571//
f 572// 573// 574//
f 574// 559// 572//
f 572// 559// 518//
f 572// 518// 575//
f 575// 518// 456//
f 575// 456// 457//
f 457// 458// 575//
f 575// 458// 5//
f 575// 5// 4//
f 568// 576// 577//
f 578// 565// 563//
f 579// 580// 581//
f 581// 580// 582//
f 581// 582// 583//
f 568// 570// 576//
f 576// 570// 584//
f 576// 584// 585//
f 586// 582// 587//
f 587// 582// 578//
f 587// 578// 577//
f 577// 578// 563//
f 577// 563// 568//
f 586// 588// 582//
f 582// 588// 589//
f 582// 589// 590//
f 590// 591// 582//
f 582// 591// 592//
f 582// 592// 583//
f 593// 576// 594//
f 594// 576// 585//
f 594// 585// 595//
f 595// 585// 596//
f 597// 598// 599//
f 599// 598// 600//
f 571// 569// 601//
f 601// 569// 598//
f 601// 598// 597//
f 566// 567// 600//
f 600// 567// 602//
f 600// 602// 599//
f 560// 561// 603//
f 603// 561// 604//
f 603// 604// 605//
f 562// 564// 606//
f 606// 564// 607//
f 606// 607// 608//
f 604// 606// 605//
f 605// 606// 608//
f 609// 610// 611//
f 611// 610// 612//
f 613// 66// 71//
f 593// 614// 576//
f 576// 614// 615//
f 576// 615// 577//
f 577// 615// 616//
f 577// 616// 71//
f 71// 616// 617//
f 71// 617// 613//
f 66// 613// 618//
f 618// 613// 615//
f 618// 615// 619//
f 619// 615// 614//
f 619// 614// 620//
f 575// 4// 519//
f 620// 614// 621//
f 621// 614// 622//
f 621// 622// 618//
f 575// 519// 622//
f 519// 520// 622//
f 622// 520// 521//
f 622// 521// 522//
f 522// 523// 622//
f 622// 523// 524//
f 622// 524// 525//
f 525// 526// 622//
f 622// 526// 527//
f 622// 527// 618//
f 618// 527// 529//
f 618// 529// 66//
f 609// 611// 623//
f 623// 611// 624//
f 623// 624// 311//
f 625// 626// 311//
f 311// 626// 627//
f 311// 627// 312//
f 624// 628// 311//
f 311// 628// 629//
f 311// 629// 630//
f 630// 631// 311//
f 311// 631// 632//
f 311// 632// 625//
f 633// 612// 610//
f 634// 635// 580//
f 610// 636// 633//
f 633// 636// 580//
f 633// 580// 637//
f 637// 580// 638//
f 579// 639// 580//
f 580// 639// 640//
f 580// 640// 634//
f 635// 641// 580//
f 580// 641// 642//
f 580// 642// 638//
f 610// 609// 643//
f 643// 609// 623//
f 636// 610// 644//
f 644// 610// 643//
f 644// 643// 645//
f 645// 643// 646//
f 561// 36// 35//
f 569// 568// 563//
f 562// 606// 604//
f 566// 600// 598//
f 598// 569// 566//
f 566// 569// 563//
f 566// 563// 35//
f 35// 563// 562//
f 35// 562// 561//
f 561// 562// 604//
f 636// 644// 647//
f 643// 623// 648//
f 648// 623// 311//
f 648// 311// 647//
f 647// 311// 580//
f 647// 580// 636//
f 649// 646// 573//
f 573// 646// 643//
f 573// 643// 574//
f 574// 643// 648//
f 649// 650// 646//
f 646// 650// 645//
f 644// 645// 650//
f 650// 595// 644//
f 644// 595// 596//
f 644// 596// 647//
f 595// 650// 573//
f 573// 650// 649//
f 622// 651// 575//
f 575// 651// 572//
f 572// 651// 573//
f 573// 651// 652//
f 573// 652// 595//
f 595// 652// 594//
f 652// 614// 594//
f 594// 614// 593//
f 652// 651// 614//
f 614// 651// 622//
f 71// 308// 577//
f 577// 308// 587//
f 612// 633// 611//
f 611// 633// 624//
f 579// 312// 653//
f 638// 642// 654//
f 654// 642// 655//
f 654// 655// 631//
f 631// 655// 641//
f 631// 641// 656//
f 656// 641// 657//
f 656// 657// 632//
f 632// 657// 635//
f 632// 635// 658//
f 658// 635// 659//
f 658// 659// 625//
f 625// 659// 634//
f 625// 634// 660//
f 660// 634// 661//
f 660// 661// 626//
f 626// 661// 640//
f 626// 640// 662//
f 662// 640// 663//
f 662// 663// 627//
f 627// 663// 639//
f 627// 639// 653//
f 653// 639// 664//
f 653// 664// 579//
f 624// 633// 628//
f 628// 633// 637//
f 628// 637// 665//
f 665// 637// 666//
f 665// 666// 629//
f 629// 666// 638//
f 629// 638// 630//
f 630// 638// 654//
f 312// 579// 667//
f 305// 304// 668//
f 668// 304// 669//
f 668// 669// 590//
f 590// 669// 314//
f 590// 314// 670//
f 670// 314// 671//
f 670// 671// 591//
f 591// 671// 313//
f 591// 313// 672//
f 672// 313// 673//
f 672// 673// 592//
f 592// 673// 8//
f 592// 8// 674//
f 674// 8// 675//
f 674// 675// 583//
f 583// 675// 7//
f 583// 7// 676//
f 676// 7// 677//
f 676// 677// 581//
f 581// 677// 310//
f 581// 310// 667//
f 667// 310// 678//
f 667// 678// 312//
f 668// 589// 305//
f 305// 589// 588//
f 305// 588// 679//
f 679// 588// 680//
f 679// 680// 309//
f 309// 680// 586//
f 309// 586// 308//
f 308// 586// 587//
usemtl 2
f 681// 682// 683//
f 683// 684// 681//
f 681// 684// 685//
f 681// 685// 686//
f 686// 685// 687//
f 686// 687// 688//
f 688// 687// 689//
f 688// 689// 690//
f 690// 689// 691//
f 690// 691// 692//
f 692// 691// 693//
f 692// 693// 694//
f 695// 693// 696//
f 696// 693// 691//
f 696// 691// 697//
f 697// 691// 689//
f 697// 689// 698//
f 698// 689// 687//
f 698// 687// 699//
f 699// 687// 685//
f 699// 685// 700//
f 700// 685// 684//
f 700// 684// 701//
f 701// 684// 683//
f 701// 702// 700//
f 700// 702// 703//
f 700// 703// 699//
f 699// 703// 704//
f 699// 704// 698//
f 698// 704// 705//
f 698// 705// 697//
f 697// 705// 706//
f 697// 706// 696//
f 696// 706// 707//
f 696// 707// 695//
f 695// 707// 708//
f 702// 682// 703//
f 703// 682// 681//
f 703// 681// 704//
f 704// 681// 686//
f 704// 686// 705//
f 705// 686// 688//
f 705// 688// 706//
f 706// 688// 690//
f 706// 690// 707//
f 707// 690// 692//
f 707// 692// 708//
f 708// 692// 694//
f 709// 710// 711//
f 711// 710// 712//
f 712// 713// 711//
f 711// 713// 714//
f 711// 714// 715//
f 694// 693// 716//
f 716// 693// 717//
f 716// 717// 718//
f 718// 717// 719//
f 718// 719// 714//
f 714// 719// 720//
f 714// 720// 715//
f 717// 693// 695//
f 721// 719// 722//
f 722// 719// 717//
f 722// 717// 723//
f 723// 717// 695//
f 724// 722// 725//
f 725// 722// 726//
f 727// 728// 724//
f 724// 728// 729//
f 729// 730// 724//
f 724// 730// 721//
f 724// 721// 722//
f 726// 722// 731//
f 731// 722// 723//
f 731// 723// 732//
f 732// 723// 695//
f 732// 695// 708//
f 708// 694// 732//
f 732// 694// 716//
f 732// 716// 731//
f 731// 716// 718//
f 731// 718// 726//
f 733// 710// 709//
f 709// 734// 733//
f 733// 734// 735//
f 733// 735// 736//
f 737// 738// 739//
f 737// 739// 740//
f 740// 739// 735//
f 735// 739// 741//
f 735// 741// 736//
f 728// 727// 742//
f 743// 744// 742//
f 742// 744// 745//
f 742// 745// 728//
f 746// 747// 748//
f 743// 749// 744//
f 744// 749// 746//
f 744// 746// 750//
f 750// 746// 748//
f 751// 620// 752//
f 752// 620// 621//
f 752// 621// 753//
f 753// 621// 618//
f 753// 618// 754//
f 754// 618// 619//
f 619// 620// 754//
f 754// 620// 751//
f 751// 752// 755//
f 755// 752// 756//
f 755// 756// 757//
f 757// 756// 758//
f 757// 758// 759//
f 759// 758// 760//
f 759// 760// 682//
f 682// 760// 683//
f 752// 753// 756//
f 756// 753// 761//
f 756// 761// 758//
f 758// 761// 762//
f 758// 762// 760//
f 760// 762// 763//
f 760// 763// 683//
f 683// 763// 701//
f 764// 702// 701//
f 701// 763// 764//
f 764// 763// 762//
f 764// 762// 765//
f 765// 762// 761//
f 765// 761// 766//
f 766// 761// 753//
f 766// 753// 754//
f 682// 702// 759//
f 759// 702// 764//
f 759// 764// 757//
f 757// 764// 765//
f 757// 765// 755//
f 755// 765// 766//
f 755// 766// 751//
f 751// 766// 754//
f 726// 718// 714//
f 726// 714// 725//
f 725// 714// 713//
f 725// 713// 724//
f 724// 713// 712//
f 724// 712// 727//
f 727// 712// 710//
f 727// 710// 742//
f 710// 733// 742//
f 742// 733// 736//
f 742// 736// 743//
f 743// 736// 741//
f 743// 741// 749//
f 749// 741// 739//
f 749// 739// 746//
f 746// 739// 738//
f 746// 738// 747//
f 734// 745// 744//
f 734// 744// 735//
f 735// 744// 750//
f 735// 750// 740//
f 740// 750// 748//
f 740// 748// 737//
f 737// 748// 747//
f 737// 747// 738//
f 745// 734// 728//
f 728// 734// 709//
f 728// 709// 729//
f 729// 709// 711//
f 729// 711// 730//
f 730// 711// 715//
f 730// 715// 721//
f 721// 715// 720//
f 721// 720// 719//
f 767// 768// 769//
f 769// 768// 770//
f 769// 770// 771//
f 771// 770// 772//
f 771// 772// 773//
f 773// 772// 774//
f 773// 774// 775//
f 775// 774// 776//
f 775// 776// 777//
f 777// 776// 778//
f 777// 778// 779//
f 779// 778// 780//
f 768// 781// 770//
f 770// 781// 782//
f 770// 782// 772//
f 772// 782// 783//
f 772// 783// 774//
f 774// 783// 784//
f 774// 784// 776//
f 776// 784// 785//
f 776// 785// 778//
f 778// 785// 786//
f 778// 786// 780//
f 780// 786// 787//
f 782// 781// 788//
f 788// 789// 782//
f 782// 789// 790//
f 782// 790// 783//
f 783// 790// 791//
f 783// 791// 784//
f 784// 791// 792//
f 784// 792// 785//
f 785// 792// 793//
f 785// 793// 786//
f 786// 793// 794//
f 786// 794// 787//
f 779// 794// 777//
f 777// 794// 793//
f 777// 793// 775//
f 775// 793// 792//
f 775// 792// 773//
f 773// 792// 791//
f 773// 791// 771//
f 771// 791// 790//
f 771// 790// 769//
f 769// 790// 789//
f 769// 789// 767//
f 767// 789// 788//
f 795// 796// 797//
f 797// 796// 798//
f 799// 800// 795//
f 795// 800// 801//
f 801// 802// 795//
f 795// 802// 803//
f 795// 803// 796//
f 798// 796// 804//
f 804// 796// 805//
f 804// 805// 806//
f 806// 805// 779//
f 806// 779// 780//
f 780// 787// 806//
f 806// 787// 807//
f 806// 807// 804//
f 804// 807// 808//
f 804// 808// 798//
f 809// 810// 811//
f 811// 810// 812//
f 812// 813// 811//
f 811// 813// 814//
f 811// 814// 815//
f 787// 794// 807//
f 807// 794// 816//
f 807// 816// 808//
f 808// 816// 817//
f 808// 817// 814//
f 814// 817// 818//
f 814// 818// 815//
f 816// 794// 779//
f 803// 817// 796//
f 796// 817// 816//
f 796// 816// 805//
f 805// 816// 779//
f 800// 799// 819//
f 800// 819// 820//
f 820// 819// 821//
f 820// 821// 822//
f 823// 824// 825//
f 823// 825// 826//
f 826// 825// 821//
f 821// 825// 827//
f 821// 827// 822//
f 810// 809// 828//
f 829// 830// 828//
f 828// 830// 831//
f 828// 831// 810//
f 832// 833// 834//
f 829// 835// 830//
f 830// 835// 832//
f 830// 832// 836//
f 836// 832// 834//
f 837// 615// 838//
f 838// 615// 613//
f 838// 613// 839//
f 839// 613// 617//
f 839// 617// 840//
f 840// 617// 616//
f 616// 615// 840//
f 840// 615// 837//
f 841// 768// 767//
f 767// 842// 841//
f 841// 842// 843//
f 841// 843// 844//
f 844// 843// 845//
f 844// 845// 846//
f 846// 845// 837//
f 846// 837// 838//
f 781// 768// 847//
f 847// 768// 841//
f 847// 841// 848//
f 848// 841// 844//
f 848// 844// 849//
f 849// 844// 846//
f 849// 846// 839//
f 839// 846// 838//
f 839// 840// 849//
f 849// 840// 850//
f 849// 850// 848//
f 848// 850// 851//
f 848// 851// 847//
f 847// 851// 852//
f 847// 852// 781//
f 781// 852// 788//
f 840// 837// 850//
f 850// 837// 845//
f 850// 845// 851//
f 851// 845// 843//
f 851// 843// 852//
f 852// 843// 842//
f 852// 842// 788//
f 788// 842// 767//
f 818// 817// 803//
f 818// 803// 815//
f 815// 803// 802//
f 815// 802// 811//
f 811// 802// 801//
f 811// 801// 809//
f 809// 801// 800//
f 809// 800// 828//
f 800// 820// 828//
f 828// 820// 822//
f 828// 822// 829//
f 829// 822// 827//
f 829// 827// 835//
f 835// 827// 825//
f 835// 825// 832//
f 832// 825// 824//
f 832// 824// 833//
f 833// 824// 823//
f 833// 823// 834//
f 834// 823// 826//
f 834// 826// 836//
f 836// 826// 821//
f 836// 821// 830//
f 830// 821// 819//
f 830// 819// 831//
f 831// 819// 810//
f 810// 819// 799//
f 810// 799// 812//
f 812// 799// 795//
f 812// 795// 813//
f 813// 795// 797//
f 813// 797// 814//
f 814// 797// 798//
f 814// 798// 808//
usemtl 1
f 565// 578// 564//
f 564// 578// 607//
f 607// 578// 608//
f 608// 578// 582//
f 608// 582// 605//
f 605// 582// 9//
f 605// 9// 603//
f 9// 307// 603//
f 603// 307// 306//
f 603// 306// 560//
f 582// 580// 9//
f 9// 580// 311//
f 647// 596// 648//
f 648// 596// 574//
f 317// 602// 316//
f 316// 602// 567//
f 316// 567// 315//
f 559// 574// 599//
f 599// 574// 596//
f 599// 596// 597//
f 597// 596// 585//
f 597// 585// 601//
f 317// 318// 602//
f 602// 318// 550//
f 602// 550// 599//
f 550// 551// 599//
f 599// 551// 552//
f 599// 552// 553//
f 553// 554// 599//
f 599// 554// 555//
f 599// 555// 556//
f 556// 557// 599//
f 599// 557// 558//
f 599// 558// 559//
f 585// 584// 601//
f 601// 584// 570//
f 601// 570// 571//
usemtl 3
f 853// 854// 547//
f 547// 854// 546//
f 855// 853// 548//
f 548// 853// 547//
f 856// 855// 549//
f 549// 855// 548//
f 857// 856// 544//
f 544// 856// 549//
f 858// 857// 545//
f 545// 857// 544//
f 854// 858// 546//
f 546// 858// 545//
f 856// 857// 855//
f 855// 857// 858//
f 855// 858// 853//
f 853// 858// 854//
f 321// 859// 860//
f 861// 378// 377//
f 861// 377// 862//
f 862// 377// 319//
f 862// 319// 860//
f 860// 319// 320//
f 860// 320// 321//
f 863// 859// 322//
f 322// 859// 321//
f 863// 322// 325//
f 863// 325// 864//
f 325// 329// 864//
f 864// 329// 328//
f 864// 328// 865//
f 865// 328// 343//
f 865// 343// 866//
f 866// 343// 342//
f 866// 342// 867//
f 867// 342// 341//
f 867// 341// 868//
f 868// 341// 346//
f 868// 346// 869//
f 869// 346// 340//
f 869// 340// 870//
f 870// 340// 339//
f 870// 339// 871//
f 871// 339// 338//
f 871// 338// 872//
f 872// 338// 330//
f 872// 330// 873//
f 873// 330// 331//
f 873// 331// 874//
f 874// 331// 337//
f 874// 337// 875//
f 875// 337// 336//
f 875// 336// 876//
f 876// 336// 335//
f 876// 335// 877//
f 877// 335// 345//
f 877// 345// 878//
f 878// 345// 344//
f 878// 344// 879//
f 879// 344// 334//
f 879// 334// 880//
f 880// 334// 333//
f 880// 333// 881//
f 881// 333// 332//
f 881// 332// 882//
f 323// 883// 884//
f 882// 332// 327//
f 882// 327// 885//
f 885// 327// 326//
f 885// 326// 884//
f 884// 326// 324//
f 884// 324// 323//
f 886// 883// 351//
f 351// 883// 323//
f 357// 887// 888//
f 886// 351// 350//
f 886// 350// 889//
f 350// 348// 889//
f 889// 348// 347//
f 889// 347// 888//
f 888// 347// 359//
f 888// 359// 357//
f 887// 357// 355//
f 887// 355// 890//
f 355// 353// 890//
f 890// 353// 352//
f 890// 352// 891//
f 891// 352// 364//
f 891// 364// 892//
f 892// 364// 363//
f 892// 363// 893//
f 893// 363// 362//
f 893// 362// 894//
f 894// 362// 361//
f 894// 361// 895//
f 361// 360// 895//
f 895// 360// 365//
f 895// 365// 896//
f 896// 365// 367//
f 896// 367// 897//
f 897// 367// 369//
f 897// 369// 898//
f 898// 369// 370//
f 898// 370// 899//
f 370// 376// 899//
f 899// 376// 375//
f 899// 375// 900//
f 900// 375// 374//
f 900// 374// 901//
f 901// 374// 372//
f 901// 372// 902//
f 902// 372// 371//
f 902// 371// 903//
f 903// 371// 379//
f 903// 379// 904//
f 904// 379// 378//
f 904// 378// 861//
f 884// 883// 886//
f 879// 880// 890//
f 871// 872// 898//
f 875// 876// 894//
f 890// 880// 887//
f 884// 886// 885//
f 898// 872// 897//
f 894// 876// 893//
f 880// 881// 887//
f 887// 881// 882//
f 887// 882// 888//
f 888// 882// 885//
f 888// 885// 889//
f 889// 885// 886//
f 890// 891// 879//
f 879// 891// 892//
f 879// 892// 878//
f 878// 892// 893//
f 878// 893// 877//
f 877// 893// 876//
f 898// 899// 871//
f 871// 899// 900//
f 871// 900// 870//
f 870// 900// 901//
f 870// 901// 869//
f 869// 901// 902//
f 869// 902// 868//
f 868// 902// 903//
f 868// 903// 867//
f 867// 903// 904//
f 867// 904// 866//
f 866// 904// 861//
f 866// 861// 865//
f 865// 861// 862//
f 865// 862// 864//
f 864// 862// 860//
f 864// 860// 863//
f 863// 860// 859//
f 872// 873// 897//
f 897// 873// 874//
f 897// 874// 896//
f 896// 874// 875//
f 896// 875// 895//
f 895// 875// 894//
f 905// 906// 286//
f 286// 906// 299//
f 290// 907// 287//
f 287// 907// 905//
f 287// 905// 286//
f 908// 907// 289//
f 289// 907// 290//
f 285// 909// 288//
f 288// 909// 908//
f 288// 908// 289//
f 910// 909// 284//
f 284// 909// 285//
f 294// 911// 292//
f 292// 911// 910//
f 292// 910// 284//
f 912// 911// 293//
f 293// 911// 294//
f 279// 913// 291//
f 291// 913// 912//
f 291// 912// 293//
f 914// 913// 281//
f 281// 913// 279//
f 295// 915// 283//
f 283// 915// 914//
f 283// 914// 281//
f 916// 915// 297//
f 297// 915// 295//
f 299// 906// 298//
f 298// 906// 916//
f 298// 916// 297//
f 916// 906// 905//
f 905// 907// 916//
f 916// 907// 908//
f 916// 908// 915//
f 913// 914// 912//
f 912// 914// 915//
f 912// 915// 911//
f 911// 915// 908//
f 911// 908// 910//
f 910// 908// 909//
f 917// 918// 919//
f 919// 918// 920//
f 919// 920// 921//
f 921// 920// 922//
f 921// 922// 923//
f 923// 922// 924//
f 923// 924// 925//
f 925// 924// 926//
f 925// 926// 927//
f 927// 926// 928//
f 927// 928// 929//
f 929// 928// 930//
f 929// 930// 931//
f 931// 930// 932//
f 931// 932// 933//
f 933// 932// 934//
f 934// 932// 935//
f 934// 935// 936//
f 936// 935// 937//
f 936// 937// 938//
f 938// 937// 939//
f 938// 939// 940//
f 940// 939// 941//
f 940// 941// 942//
f 942// 941// 943//
f 942// 943// 944//
f 944// 943// 945//
f 944// 945// 946//
f 946// 945// 947//
f 946// 947// 948//
f 948// 947// 949//
f 948// 949// 950//
f 950// 949// 951//
f 950// 951// 917//
f 917// 951// 952//
f 917// 952// 918//
f 926// 924// 499//
f 499// 924// 492//
f 926// 499// 498//
f 926// 498// 928//
f 928// 498// 497//
f 928// 497// 930//
f 930// 497// 496//
f 930// 496// 932//
f 932// 496// 495//
f 932// 495// 935//
f 935// 495// 494//
f 935// 494// 937//
f 937// 494// 493//
f 937// 493// 939//
f 939// 493// 510//
f 939// 510// 941//
f 941// 510// 509//
f 941// 509// 943//
f 943// 509// 508//
f 943// 508// 945//
f 945// 508// 507//
f 945// 507// 947//
f 947// 507// 506//
f 947// 506// 949//
f 949// 506// 505//
f 949// 505// 951//
f 951// 505// 504//
f 951// 504// 952//
f 952// 504// 503//
f 952// 503// 918//
f 918// 503// 501//
f 918// 501// 920//
f 922// 920// 500//
f 500// 920// 501//
f 924// 922// 492//
f 492// 922// 500//
f 919// 921// 953//
f 953// 921// 954//
f 921// 923// 954//
f 954// 923// 955//
f 923// 925// 955//
f 955// 925// 956//
f 933// 957// 958//
f 933// 958// 931//
f 931// 958// 959//
f 931// 959// 929//
f 929// 959// 960//
f 929// 960// 927//
f 927// 960// 956//
f 927// 956// 925//
f 940// 961// 962//
f 940// 962// 938//
f 938// 962// 963//
f 938// 963// 936//
f 936// 963// 964//
f 936// 964// 934//
f 934// 964// 957//
f 934// 957// 933//
f 948// 965// 966//
f 948// 966// 946//
f 946// 966// 967//
f 946// 967// 944//
f 944// 967// 968//
f 944// 968// 942//
f 942// 968// 961//
f 942// 961// 940//
f 919// 953// 969//
f 919// 969// 917//
f 917// 969// 970//
f 917// 970// 950//
f 950// 970// 965//
f 950// 965// 948//
usemtl 1
f 954// 955// 953//
f 953// 955// 956//
f 953// 956// 960//
f 960// 959// 953//
f 953// 959// 958//
f 953// 958// 957//
f 957// 964// 953//
f 953// 964// 963//
f 953// 963// 962//
f 962// 961// 953//
f 953// 961// 968//
f 953// 968// 967//
f 967// 966// 953//
f 953// 966// 965//
f 953// 965// 969//
f 969// 965// 970//
usemtl 3
f 971// 972// 973//
f 974// 975// 976//
f 972// 977// 973//
f 973// 977// 978//
f 973// 978// 979//
f 979// 978// 980//
f 979// 980// 981//
f 981// 982// 979//
f 979// 982// 983//
f 979// 983// 984//
f 985// 984// 986//
f 986// 984// 983//
f 986// 983// 976//
f 976// 983// 971//
f 976// 971// 974//
f 974// 971// 973//
f 979// 984// 275//
f 275// 984// 273//
f 973// 979// 470//
f 470// 979// 275//
f 276// 974// 471//
f 471// 974// 973//
f 471// 973// 470//
f 975// 974// 277//
f 277// 974// 276//
f 976// 975// 278//
f 278// 975// 277//
f 270// 986// 271//
f 271// 986// 976//
f 271// 976// 278//
f 985// 986// 272//
f 272// 986// 270//
f 984// 985// 273//
f 273// 985// 272//
f 971// 983// 987//
f 987// 983// 988//
f 983// 982// 988//
f 988// 982// 989//
f 980// 990// 991//
f 980// 991// 981//
f 981// 991// 989//
f 981// 989// 982//
f 980// 978// 990//
f 990// 978// 992//
f 972// 993// 994//
f 972// 994// 977//
f 977// 994// 992//
f 977// 992// 978//
f 972// 971// 993//
f 993// 971// 987//
usemtl 1
f 990// 992// 991//
f 991// 992// 994//
f 991// 994// 989//
f 989// 994// 993//
f 989// 993// 988//
f 988// 993// 987//
usemtl 3
f 995// 996// 539//
f 539// 996// 543//
f 997// 995// 537//
f 537// 995// 539//
f 998// 997// 536//
f 536// 997// 537//
f 999// 998// 538//
f 538// 998// 536//
f 1000// 999// 540//
f 540// 999// 538//
f 1001// 1000// 542//
f 542// 1000// 540//
f 1002// 1001// 541//
f 541// 1001// 542//
f 1003// 1002// 535//
f 535// 1002// 541//
f 1004// 1003// 534//
f 534// 1003// 535//
f 1005// 1004// 533//
f 533// 1004// 534//
f 1006// 1005// 532//
f 532// 1005// 533//
f 996// 1006// 543//
f 543// 1006// 532//
f 1006// 996// 995//
f 995// 997// 1006//
f 1006// 997// 998//
f 1006// 998// 1005//
f 1003// 1004// 1002//
f 1002// 1004// 1005//
f 1002// 1005// 1001//
f 1001// 1005// 998//
f 1001// 998// 1000//
f 1000// 998// 999//
f 1007// 1008// 1009//
f 1009// 1008// 1010//
f 1011// 1012// 1013//
f 1014// 1015// 1010//
f 1010// 1015// 1016//
f 1013// 1014// 1011//
f 1011// 1014// 1010//
f 1011// 1010// 1017//
f 1017// 1010// 1018//
f 1017// 1018// 1019//
f 1019// 1018// 1020//
f 1019// 1020// 1021//
f 1021// 1020// 1022//
f 1021// 1022// 1023//
f 1023// 1022// 1024//
f 1023// 1024// 1025//
f 1025// 1024// 1026//
f 1025// 1026// 1027//
f 1027// 1026// 1028//
f 1027// 1028// 1029//
f 1029// 1028// 1030//
f 1029// 1030// 1031//
f 1031// 1030// 1032//
f 1031// 1032// 1033//
f 1033// 1032// 1034//
f 1033// 1034// 1035//
f 1035// 1034// 1036//
f 1016// 1037// 1010//
f 1010// 1037// 1038//
f 1010// 1038// 1009//
f 1009// 1038// 1039//
f 1009// 1039// 1040//
f 1040// 1039// 1041//
f 1040// 1041// 1042//
f 1042// 1041// 1043//
f 1042// 1043// 1044//
f 1044// 1043// 1045//
f 1044// 1045// 1046//
f 1046// 1045// 1047//
f 1046// 1047// 1048//
f 1048// 1047// 1049//
f 1048// 1049// 1050//
f 1050// 1049// 1051//
f 1050// 1051// 1052//
f 1052// 1051// 1053//
f 1052// 1053// 1054//
f 1054// 1053// 1055//
f 1054// 1055// 1056//
f 1056// 1055// 1057//
f 1011// 1058// 1012//
f 1012// 1058// 1059//
f 1012// 1059// 1060//
f 1060// 1059// 1061//
f 1060// 1061// 1062//
f 1062// 1061// 1063//
f 1062// 1063// 1064//
f 1064// 1063// 1065//
f 1064// 1065// 1066//
f 1066// 1065// 1067//
f 1066// 1067// 1068//
f 1068// 1067// 1069//
f 1068// 1069// 1070//
f 1070// 1069// 1071//
f 1070// 1071// 1072//
f 1072// 1071// 1073//
f 1072// 1073// 1057//
f 1057// 1073// 1074//
f 1057// 1074// 1056//
f 1030// 422// 421//
f 1030// 421// 1032//
f 1032// 421// 420//
f 1032// 420// 1034//
f 1034// 420// 412//
f 1034// 412// 1036//
f 1035// 1036// 381//
f 381// 1036// 412//
f 1035// 381// 394//
f 1035// 394// 1033//
f 1033// 394// 395//
f 1033// 395// 1031//
f 1031// 395// 390//
f 1031// 390// 1029//
f 1029// 390// 389//
f 1029// 389// 1027//
f 1027// 389// 419//
f 1027// 419// 1025//
f 1025// 419// 418//
f 1025// 418// 1023//
f 1023// 418// 409//
f 1023// 409// 1021//
f 1021// 409// 408//
f 1021// 408// 1019//
f 1019// 408// 407//
f 1019// 407// 1017//
f 1017// 407// 406//
f 1017// 406// 1011//
f 1058// 1011// 391//
f 391// 1011// 406//
f 1058// 391// 393//
f 1058// 393// 1059//
f 1059// 393// 392//
f 1059// 392// 1061//
f 1061// 392// 380//
f 1061// 380// 1063//
f 1063// 380// 382//
f 1063// 382// 1065//
f 1065// 382// 383//
f 1065// 383// 1067//
f 1067// 383// 411//
f 1067// 411// 1069//
f 1069// 411// 410//
f 1069// 410// 1071//
f 1071// 410// 405//
f 1071// 405// 1073//
f 1073// 405// 404//
f 1073// 404// 1074//
f 1074// 404// 402//
f 1074// 402// 1056//
f 426// 1050// 427//
f 427// 1050// 1052//
f 427// 1052// 428//
f 428// 1052// 1054//
f 428// 1054// 401//
f 401// 1054// 1056//
f 401// 1056// 402//
f 1050// 426// 423//
f 1050// 423// 1048//
f 1048// 423// 387//
f 1048// 387// 1046//
f 387// 385// 1046//
f 1046// 385// 384//
f 1046// 384// 1044//
f 1044// 384// 400//
f 1044// 400// 1042//
f 1042// 400// 399//
f 1042// 399// 1040//
f 1009// 1040// 398//
f 398// 1040// 399//
f 1007// 1009// 386//
f 386// 1009// 398//
f 1008// 1007// 388//
f 388// 1007// 386//
f 1010// 1008// 397//
f 397// 1008// 388//
f 1010// 397// 396//
f 1010// 396// 1018//
f 1018// 396// 417//
f 1018// 417// 1020//
f 1020// 417// 416//
f 1020// 416// 1022//
f 1022// 416// 415//
f 1022// 415// 1024//
f 1024// 415// 414//
f 1024// 414// 1026//
f 1026// 414// 413//
f 1026// 413// 1028//
f 1028// 413// 422//
f 1028// 422// 1030//
f 1060// 1075// 1076//
f 1060// 1076// 1012//
f 1012// 1076// 1077//
f 1012// 1077// 1013//
f 1013// 1077// 1078//
f 1013// 1078// 1014//
f 1068// 1079// 1080//
f 1068// 1080// 1066//
f 1066// 1080// 1081//
f 1066// 1081// 1064//
f 1064// 1081// 1082//
f 1064// 1082// 1062//
f 1062// 1082// 1075//
f 1062// 1075// 1060//
f 1055// 1083// 1084//
f 1055// 1084// 1057//
f 1057// 1084// 1085//
f 1057// 1085// 1072//
f 1072// 1085// 1086//
f 1072// 1086// 1070//
f 1070// 1086// 1079//
f 1070// 1079// 1068//
f 1049// 1087// 1088//
f 1049// 1088// 1051//
f 1051// 1088// 1089//
f 1051// 1089// 1053//
f 1053// 1089// 1083//
f 1053// 1083// 1055//
f 1041// 1090// 1091//
f 1041// 1091// 1043//
f 1043// 1091// 1092//
f 1043// 1092// 1045//
f 1045// 1092// 1093//
f 1045// 1093// 1047//
f 1047// 1093// 1087//
f 1047// 1087// 1049//
f 1016// 1094// 1095//
f 1016// 1095// 1037//
f 1037// 1095// 1096//
f 1037// 1096// 1038//
f 1038// 1096// 1097//
f 1038// 1097// 1039//
f 1039// 1097// 1090//
f 1039// 1090// 1041//
f 1016// 1015// 1094//
f 1094// 1015// 1098//
f 1015// 1014// 1098//
f 1098// 1014// 1078//
usemtl 1
f 1098// 1078// 1094//
f 1094// 1078// 1077//
f 1077// 1076// 1094//
f 1094// 1076// 1075//
f 1094// 1075// 1095//
f 1095// 1075// 1096//
f 1096// 1075// 1082//
f 1096// 1082// 1097//
f 1084// 1083// 1091//
f 1084// 1091// 1085//
f 1092// 1091// 1093//
f 1093// 1091// 1087//
f 1082// 1081// 1097//
f 1097// 1081// 1080//
f 1097// 1080// 1090//
f 1090// 1080// 1079//
f 1090// 1079// 1091//
f 1091// 1079// 1086//
f 1091// 1086// 1085//
f 1083// 1089// 1091//
f 1091// 1089// 1088//
f 1091// 1088// 1087//
usemtl 3
f 199// 1099// 1100//
f 1101// 256// 253//
f 1101// 253// 1102//
f 1102// 253// 206//
f 1102// 206// 1100//
f 1100// 206// 205//
f 1100// 205// 199//
f 1103// 1099// 198//
f 198// 1099// 199//
f 1104// 1103// 14//
f 14// 1103// 198//
f 211// 1105// 212//
f 212// 1105// 1104//
f 212// 1104// 13//
f 13// 1104// 14//
f 1106// 1105// 11//
f 11// 1105// 211//
f 11// 10// 1106//
f 1106// 10// 234//
f 1106// 234// 1107//
f 1107// 234// 233//
f 1107// 233// 1108//
f 1108// 233// 224//
f 1108// 224// 1109//
f 1109// 224// 223//
f 1109// 223// 1110//
f 1110// 223// 222//
f 1110// 222// 1111//
f 1111// 222// 232//
f 1111// 232// 1112//
f 1112// 232// 231//
f 1112// 231// 1113//
f 1113// 231// 230//
f 1113// 230// 1114//
f 1114// 230// 229//
f 1114// 229// 1115//
f 1115// 229// 249//
f 1115// 249// 1116//
f 1116// 249// 248//
f 1116// 248// 1117//
f 1117// 248// 246//
f 1117// 246// 1118//
f 1118// 246// 244//
f 1118// 244// 1119//
f 1119// 244// 243//
f 1119// 243// 1120//
f 1120// 243// 242//
f 1120// 242// 1121//
f 1121// 242// 241//
f 1121// 241// 1122//
f 1122// 241// 240//
f 1122// 240// 1123//
f 1123// 240// 237//
f 1123// 237// 1124//
f 1124// 237// 252//
f 1124// 252// 1125//
f 1125// 252// 251//
f 1125// 251// 1126//
f 1126// 251// 250//
f 1126// 250// 1127//
f 1127// 250// 239//
f 1127// 239// 1128//
f 1128// 239// 238//
f 1128// 238// 1129//
f 1129// 238// 236//
f 1129// 236// 1130//
f 1130// 236// 235//
f 1130// 235// 1131//
f 1131// 235// 245//
f 1131// 245// 1132//
f 1132// 245// 247//
f 1132// 247// 1133//
f 1133// 247// 215//
f 1133// 215// 1134//
f 1135// 1134// 214//
f 214// 1134// 215//
f 1135// 214// 228//
f 1135// 228// 1136//
f 1136// 228// 226//
f 1136// 226// 1137//
f 1137// 226// 225//
f 1137// 225// 1138//
f 1138// 225// 217//
f 1138// 217// 1139//
f 1139// 217// 216//
f 1139// 216// 1140//
f 1141// 1140// 221//
f 221// 1140// 216//
f 221// 220// 1141//
f 1141// 220// 219//
f 1141// 219// 1142//
f 1142// 219// 201//
f 1142// 201// 1143//
f 1143// 201// 200//
f 1143// 200// 1144//
f 1144// 200// 204//
f 1144// 204// 1145//
f 1145// 204// 203//
f 1145// 203// 1146//
f 1146// 203// 208//
f 1146// 208// 1147//
f 254// 1148// 1149//
f 1147// 208// 209//
f 1147// 209// 1150//
f 1150// 209// 207//
f 1150// 207// 1149//
f 1149// 207// 255//
f 1149// 255// 254//
f 1148// 254// 258//
f 1148// 258// 1151//
f 1151// 258// 269//
f 1151// 269// 1152//
f 1152// 269// 268//
f 1152// 268// 1153//
f 1153// 268// 267//
f 1153// 267// 1154//
f 1154// 267// 261//
f 1154// 261// 1155//
f 1155// 261// 260//
f 1155// 260// 1156//
f 1156// 260// 266//
f 1156// 266// 1157//
f 1157// 266// 265//
f 1157// 265// 1158//
f 1158// 265// 264//
f 1158// 264// 1159//
f 1159// 264// 263//
f 1159// 263// 1160//
f 1160// 263// 262//
f 1160// 262// 1161//
f 1161// 262// 259//
f 1161// 259// 1162//
f 1162// 259// 257//
f 1162// 257// 1163//
f 1163// 257// 256//
f 1163// 256// 1101//
f 1127// 1128// 1139//
f 1139// 1128// 1138//
f 1151// 1118// 1148//
f 1148// 1118// 1119//
f 1107// 1108// 1159//
f 1159// 1108// 1109//
f 1159// 1109// 1158//
f 1158// 1109// 1110//
f 1158// 1110// 1157//
f 1157// 1110// 1111//
f 1157// 1111// 1156//
f 1156// 1111// 1112//
f 1156// 1112// 1155//
f 1155// 1112// 1113//
f 1155// 1113// 1154//
f 1154// 1113// 1114//
f 1154// 1114// 1153//
f 1153// 1114// 1115//
f 1153// 1115// 1152//
f 1152// 1115// 1116//
f 1152// 1116// 1151//
f 1151// 1116// 1117//
f 1151// 1117// 1118//
f 1105// 1101// 1104//
f 1104// 1101// 1102//
f 1104// 1102// 1103//
f 1103// 1102// 1100//
f 1103// 1100// 1099//
f 1128// 1129// 1138//
f 1138// 1129// 1130//
f 1138// 1130// 1137//
f 1137// 1130// 1131//
f 1137// 1131// 1136//
f 1136// 1131// 1132//
f 1136// 1132// 1135//
f 1135// 1132// 1133//
f 1135// 1133// 1134//
f 1159// 1160// 1107//
f 1107// 1160// 1161//
f 1107// 1161// 1106//
f 1106// 1161// 1162//
f 1106// 1162// 1105//
f 1105// 1162// 1163//
f 1105// 1163// 1101//
f 1139// 1140// 1127//
f 1127// 1140// 1141//
f 1127// 1141// 1126//
f 1126// 1141// 1142//
f 1126// 1142// 1125//
f 1125// 1142// 1143//
f 1125// 1143// 1124//
f 1124// 1143// 1144//
f 1124// 1144// 1123//
f 1123// 1144// 1145//
f 1123// 1145// 1122//
f 1122// 1145// 1146//
f 1122// 1146// 1121//
f 1121// 1146// 1147//
f 1121// 1147// 1120//
f 1120// 1147// 1150//
f 1120// 1150// 1119//
f 1119// 1150// 1149//
f 1119// 1149// 1148//
f 1164// 1165// 196//
f 196// 1165// 184//
f 1166// 1164// 194//
f 194// 1164// 196//
f 1166// 194// 193//
f 1166// 193// 1167//
f 1167// 193// 187//
f 1167// 187// 1168//
f 1169// 1168// 186//
f 186// 1168// 187//
f 1170// 1169// 185//
f 185// 1169// 186//
f 431// 1171// 195//
f 195// 1171// 1170//
f 195// 1170// 185//
f 1172// 1171// 430//
f 430// 1171// 431//
f 433// 1173// 429//
f 429// 1173// 1172//
f 429// 1172// 430//
f 437// 1174// 432//
f 432// 1174// 1173//
f 432// 1173// 433//
f 1174// 437// 435//
f 1174// 435// 1175//
f 1175// 435// 434//
f 1175// 434// 1176//
f 434// 449// 1176//
f 1176// 449// 448//
f 1176// 448// 1177//
f 1177// 448// 442//
f 1177// 442// 1178//
f 1178// 442// 441//
f 1178// 441// 1179//
f 1179// 441// 440//
f 1179// 440// 1180//
f 1180// 440// 438//
f 1180// 438// 1181//
f 1182// 1181// 439//
f 439// 1181// 438//
f 1182// 439// 447//
f 1182// 447// 1183//
f 1183// 447// 446//
f 1183// 446// 1184//
f 1184// 446// 444//
f 443// 1185// 444//
f 444// 1185// 1186//
f 444// 1186// 1184//
f 443// 455// 1185//
f 1185// 455// 454//
f 1185// 454// 1187//
f 1187// 454// 453//
f 1187// 453// 1188//
f 1188// 453// 451//
f 1188// 451// 1189//
f 1189// 451// 450//
f 1189// 450// 1190//
f 184// 1165// 183//
f 183// 1165// 1190//
f 183// 1190// 450//
f 1167// 1168// 1190//
f 1165// 1164// 1190//
f 1190// 1164// 1166//
f 1190// 1166// 1167//
f 1171// 1172// 1170//
f 1170// 1172// 1173//
f 1170// 1173// 1169//
f 1189// 1175// 1188//
f 1188// 1175// 1176//
f 1181// 1182// 1180//
f 1180// 1182// 1183//
f 1180// 1183// 1179//
f 1179// 1183// 1184//
f 1179// 1184// 1178//
f 1178// 1184// 1186//
f 1178// 1186// 1177//
f 1177// 1186// 1185//
f 1177// 1185// 1176//
f 1176// 1185// 1187//
f 1176// 1187// 1188//
f 1168// 1169// 1190//
f 1190// 1169// 1173//
f 1190// 1173// 1189//
f 1189// 1173// 1174//
f 1189// 1174// 1175//
f 1191// 1192// 170//
f 170// 1192// 173//
f 177// 1193// 169//
f 169// 1193// 1191//
f 169// 1191// 170//
f 1194// 1193// 176//
f 176// 1193// 177//
f 171// 1195// 175//
f 175// 1195// 1194//
f 175// 1194// 176//
f 1196// 1195// 166//
f 166// 1195// 171//
f 180// 1197// 168//
f 168// 1197// 1196//
f 168// 1196// 166//
f 1198// 1197// 179//
f 179// 1197// 180//
f 165// 1199// 178//
f 178// 1199// 1198//
f 178// 1198// 179//
f 1200// 1199// 192//
f 192// 1199// 165//
f 189// 1201// 191//
f 191// 1201// 1200//
f 191// 1200// 192//
f 1202// 1201// 182//
f 182// 1201// 189//
f 173// 1192// 181//
f 181// 1192// 1202//
f 181// 1202// 182//
f 1192// 1191// 1202//
f 1202// 1191// 1193//
f 1195// 1196// 1194//
f 1194// 1196// 1197//
f 1199// 1200// 1198//
f 1198// 1200// 1201//
f 1198// 1201// 1197//
f 1197// 1201// 1202//
f 1197// 1202// 1194//
f 1194// 1202// 1193//
f 1203// 1204// 1205//
f 1205// 1204// 1206//
f 1205// 1206// 1207//
f 1207// 1206// 1208//
f 1207// 1208// 1209//
f 1209// 1208// 1210//
f 1209// 1210// 1211//
f 1211// 1210// 1212//
f 1211// 1212// 1213//
f 1213// 1212// 1214//
f 1213// 1214// 1215//
f 1215// 1214// 1216//
f 1215// 1216// 1217//
f 1217// 1216// 1218//
f 1217// 1218// 1219//
f 1219// 1218// 1220//
f 1220// 1218// 1221//
f 1220// 1221// 1222//
f 1222// 1221// 1223//
f 1222// 1223// 1224//
f 1224// 1223// 1225//
f 1224// 1225// 1226//
f 1226// 1225// 1227//
f 1226// 1227// 1228//
f 1228// 1227// 1229//
f 1228// 1229// 1230//
f 1230// 1229// 1231//
f 1230// 1231// 1232//
f 1232// 1231// 1233//
f 1232// 1233// 1234//
f 1234// 1233// 1235//
f 1234// 1235// 1236//
f 1236// 1235// 1237//
f 1236// 1237// 1203//
f 1203// 1237// 1238//
f 1203// 1238// 1204//
f 1212// 1210// 479//
f 479// 1210// 480//
f 1212// 479// 478//
f 1212// 478// 1214//
f 1214// 478// 477//
f 1214// 477// 1216//
f 1216// 477// 476//
f 1216// 476// 1218//
f 1218// 476// 475//
f 1218// 475// 1221//
f 1221// 475// 474//
f 1221// 474// 1223//
f 1223// 474// 489//
f 1223// 489// 1225//
f 1225// 489// 488//
f 1225// 488// 1227//
f 1227// 488// 487//
f 1227// 487// 1229//
f 1229// 487// 486//
f 1229// 486// 1231//
f 1231// 486// 485//
f 1231// 485// 1233//
f 1233// 485// 484//
f 1233// 484// 1235//
f 1235// 484// 473//
f 1235// 473// 1237//
f 1237// 473// 472//
f 1237// 472// 1238//
f 1238// 472// 483//
f 1238// 483// 1204//
f 1204// 483// 482//
f 1204// 482// 1206//
f 1208// 1206// 481//
f 481// 1206// 482//
f 1210// 1208// 480//
f 480// 1208// 481//
f 1205// 1207// 1239//
f 1239// 1207// 1240//
f 1207// 1209// 1240//
f 1240// 1209// 1241//
f 1209// 1211// 1241//
f 1241// 1211// 1242//
f 1219// 1243// 1244//
f 1219// 1244// 1217//
f 1217// 1244// 1245//
f 1217// 1245// 1215//
f 1215// 1245// 1246//
f 1215// 1246// 1213//
f 1213// 1246// 1242//
f 1213// 1242// 1211//
f 1226// 1247// 1248//
f 1226// 1248// 1224//
f 1224// 1248// 1249//
f 1224// 1249// 1222//
f 1222// 1249// 1250//
f 1222// 1250// 1220//
f 1220// 1250// 1243//
f 1220// 1243// 1219//
f 1234// 1251// 1252//
f 1234// 1252// 1232//
f 1232// 1252// 1253//
f 1232// 1253// 1230//
f 1230// 1253// 1254//
f 1230// 1254// 1228//
f 1228// 1254// 1247//
f 1228// 1247// 1226//
f 1205// 1239// 1255//
f 1205// 1255// 1203//
f 1203// 1255// 1256//
f 1203// 1256// 1236//
f 1236// 1256// 1251//
f 1236// 1251// 1234//
usemtl 1
f 1240// 1241// 1239//
f 1239// 1241// 1242//
f 1239// 1242// 1246//
f 1246// 1245// 1239//
f 1239// 1245// 1244//
f 1239// 1244// 1243//
f 1243// 1250// 1239//
f 1239// 1250// 1249//
f 1239// 1249// 1248//
f 1248// 1247// 1239//
f 1239// 1247// 1254//
f 1239// 1254// 1253//
f 1253// 1252// 1239//
f 1239// 1252// 1251//
f 1239// 1251// 1255//
f 1255// 1251// 1256//
usemtl 3
f 1257// 1258// 1259//
f 1260// 1261// 1262//
f 1258// 1263// 1259//
f 1259// 1263// 1264//
f 1259// 1264// 1265//
f 1265// 1264// 1266//
f 1265// 1266// 1267//
f 1267// 1268// 1265//
f 1265// 1268// 1269//
f 1265// 1269// 1270//
f 1271// 1270// 1272//
f 1272// 1270// 1269//
f 1272// 1269// 1262//
f 1262// 1269// 1257//
f 1262// 1257// 1260//
f 1260// 1257// 1259//
f 1265// 1270// 467//
f 467// 1270// 468//
f 1259// 1265// 466//
f 466// 1265// 467//
f 1260// 1259// 461//
f 461// 1259// 466//
f 1261// 1260// 460//
f 460// 1260// 461//
f 1262// 1261// 465//
f 465// 1261// 460//
f 1272// 1262// 464//
f 464// 1262// 465//
f 1271// 1272// 463//
f 463// 1272// 464//
f 1270// 1271// 468//
f 468// 1271// 463//
f 1257// 1269// 1273//
f 1273// 1269// 1274//
f 1269// 1268// 1274//
f 1274// 1268// 1275//
f 1266// 1276// 1277//
f 1266// 1277// 1267//
f 1267// 1277// 1275//
f 1267// 1275// 1268//
f 1266// 1264// 1276//
f 1276// 1264// 1278//
f 1258// 1279// 1280//
f 1258// 1280// 1263//
f 1263// 1280// 1278//
f 1263// 1278// 1264//
f 1258// 1257// 1279//
f 1279// 1257// 1273//
usemtl 1
f 1276// 1278// 1277//
f 1277// 1278// 1280//
f 1277// 1280// 1275//
f 1275// 1280// 1279//
f 1275// 1279// 1274//
f 1274// 1279// 1273//
usemtl 3
f 1281// 1282// 1283//
f 1284// 1285// 1286//
f 1287// 1288// 1284//
f 1289// 1290// 1291//
f 1292// 1293// 1294//
f 1295// 1296// 1283//
f 1283// 1296// 1297//
f 1283// 1297// 1281//
f 1291// 1290// 1298//
f 1288// 1299// 1284//
f 1284// 1299// 1300//
f 1284// 1300// 1301//
f 1302// 1303// 1304//
f 1304// 1303// 1305//
f 1304// 1305// 1306//
f 1306// 1305// 1307//
f 1306// 1307// 1308//
f 1308// 1307// 1309//
f 1308// 1309// 1310//
f 1310// 1309// 1283//
f 1310// 1283// 1311//
f 1311// 1283// 1312//
f 1313// 1314// 1302//
f 1302// 1314// 1315//
f 1302// 1315// 1303//
f 1316// 1317// 1318//
f 1318// 1317// 1319//
f 1318// 1319// 1320//
f 1320// 1319// 1321//
f 1320// 1321// 1322//
f 1322// 1321// 1323//
f 1292// 1294// 1324//
f 1324// 1294// 1325//
f 1324// 1325// 1326//
f 1326// 1325// 1327//
f 1326// 1327// 1328//
f 1290// 1329// 1298//
f 1298// 1329// 1330//
f 1298// 1330// 1331//
f 1331// 1330// 1332//
f 1331// 1332// 1292//
f 1292// 1332// 1333//
f 1292// 1333// 1293//
f 1300// 1334// 1301//
f 1301// 1334// 1335//
f 1301// 1335// 1336//
f 1336// 1335// 1337//
f 1336// 1337// 1338//
f 1339// 1340// 1341//
f 1341// 1340// 1342//
f 1341// 1342// 1343//
f 1343// 1342// 1344//
f 1343// 1344// 1345//
f 1345// 1344// 1346//
f 1345// 1346// 1347//
f 1347// 1346// 1348//
f 1347// 1348// 1349//
f 1287// 1284// 1350//
f 1350// 1284// 1286//
f 1350// 1286// 1302//
f 1302// 1286// 1351//
f 1302// 1351// 1313//
f 1321// 1352// 1323//
f 1323// 1352// 1353//
f 1323// 1353// 1354//
f 1354// 1353// 1355//
f 1354// 1355// 1356//
f 1356// 1355// 1357//
f 1356// 1357// 1358//
f 1358// 1357// 1359//
f 1358// 1359// 1360//
f 1360// 1359// 1361//
f 1360// 1361// 1362//
f 1362// 1361// 1363//
f 1362// 1363// 1339//
f 1339// 1363// 1364//
f 1339// 1364// 1340//
f 1365// 1366// 1367//
f 1367// 1366// 1368//
f 1367// 1368// 1318//
f 1318// 1368// 1369//
f 1318// 1369// 1316//
f 1370// 1371// 1372//
f 1372// 1371// 1373//
f 1372// 1373// 1374//
f 1374// 1373// 1375//
f 1374// 1375// 1376//
f 1376// 1375// 1377//
f 1376// 1377// 1378//
f 1378// 1377// 1379//
f 1378// 1379// 1295//
f 1295// 1379// 1380//
f 1295// 1380// 1296//
f 1312// 1283// 1381//
f 1381// 1283// 1282//
f 1381// 1282// 1382//
f 1328// 1327// 1383//
f 1383// 1327// 1384//
f 1383// 1384// 1385//
f 1385// 1384// 1386//
f 1385// 1386// 1387//
f 1387// 1386// 1388//
f 1387// 1388// 1389//
f 1389// 1388// 1390//
f 1389// 1390// 1365//
f 1365// 1390// 1391//
f 1365// 1391// 1366//
f 1291// 1392// 1289//
f 1289// 1392// 1393//
f 1289// 1393// 1394//
f 1394// 1393// 1395//
f 1394// 1395// 1396//
f 1396// 1395// 1397//
f 1396// 1397// 1370//
f 1370// 1397// 1398//
f 1370// 1398// 1371//
f 1338// 1337// 1399//
f 1399// 1337// 1400//
f 1399// 1400// 1401//
f 1401// 1400// 1402//
f 1401// 1402// 1403//
f 1403// 1402// 1404//
f 1403// 1404// 1405//
f 1405// 1404// 1406//
f 1405// 1406// 1407//
f 1407// 1406// 1408//
f 1407// 1408// 1409//
f 1409// 1408// 1410//
f 1409// 1410// 1411//
f 1411// 1410// 1412//
f 1411// 1412// 1413//
f 1413// 1412// 1414//
f 1413// 1414// 1415//
f 1415// 1414// 1416//
f 1415// 1416// 1282//
f 1282// 1416// 1417//
f 1282// 1417// 1382//
f 1418// 1419// 1420//
f 1348// 1421// 1349//
f 1349// 1421// 1418//
f 1349// 1418// 1422//
f 1422// 1418// 1420//
f 1423// 1424// 1418//
f 1418// 1424// 1425//
f 1418// 1425// 1419//
f 1426// 1427// 1428//
f 1427// 1429// 1428//
f 1428// 1429// 1430//
f 1428// 1430// 1431//
f 1423// 1418// 1428//
f 1428// 1418// 1432//
f 1428// 1432// 1426//
f 1358// 95// 94//
f 1358// 94// 1356//
f 1356// 94// 20//
f 1356// 20// 1354//
f 20// 22// 1354//
f 1354// 22// 23//
f 1354// 23// 1323//
f 1323// 23// 24//
f 1323// 24// 1322//
f 1322// 24// 26//
f 1322// 26// 1320//
f 1320// 26// 25//
f 1320// 25// 1318//
f 1318// 25// 19//
f 1318// 19// 1367//
f 1367// 19// 17//
f 1367// 17// 1365//
f 1389// 1365// 16//
f 16// 1365// 17//
f 16// 30// 1389//
f 1389// 30// 32//
f 1389// 32// 1387//
f 1387// 32// 33//
f 1387// 33// 1385//
f 39// 1326// 37//
f 37// 1326// 1328//
f 37// 1328// 27//
f 27// 1328// 1383//
f 27// 1383// 28//
f 28// 1383// 1385//
f 28// 1385// 33//
f 1326// 39// 45//
f 1326// 45// 1324//
f 1324// 45// 47//
f 1324// 47// 1292//
f 1292// 47// 46//
f 1292// 46// 1331//
f 1331// 46// 44//
f 1331// 44// 1298//
f 1298// 44// 43//
f 1298// 43// 1291//
f 1291// 43// 49//
f 1291// 49// 1392//
f 1392// 49// 48//
f 1392// 48// 1393//
f 1393// 48// 42//
f 1393// 42// 1395//
f 58// 1373// 1371//
f 1395// 42// 41//
f 1395// 41// 1397//
f 1397// 41// 40//
f 1397// 40// 1398//
f 1398// 40// 34//
f 1398// 34// 1371//
f 1371// 34// 60//
f 1371// 60// 58//
f 1373// 58// 57//
f 1373// 57// 1375//
f 1375// 57// 53//
f 1375// 53// 1377//
f 1377// 53// 51//
f 1377// 51// 1379//
f 1379// 51// 50//
f 1379// 50// 1380//
f 1380// 50// 54//
f 1380// 54// 1296//
f 1296// 54// 56//
f 1296// 56// 1297//
f 1297// 56// 55//
f 1297// 55// 1281//
f 55// 63// 1281//
f 1281// 63// 62//
f 1281// 62// 1282//
f 1282// 62// 61//
f 1282// 61// 1415//
f 1415// 61// 69//
f 1415// 69// 1413//
f 69// 68// 1413//
f 1413// 68// 67//
f 1413// 67// 1411//
f 1411// 67// 65//
f 1411// 65// 1409//
f 132// 1336// 1338//
f 1409// 65// 64//
f 1409// 64// 1407//
f 1407// 64// 78//
f 1407// 78// 1405//
f 78// 77// 1405//
f 1405// 77// 76//
f 1405// 76// 1403//
f 1403// 76// 75//
f 1403// 75// 1401//
f 1401// 75// 73//
f 1401// 73// 1399//
f 1399// 73// 72//
f 1399// 72// 1338//
f 1338// 72// 131//
f 1338// 131// 132//
f 1301// 1336// 117//
f 117// 1336// 132//
f 1284// 1301// 81//
f 81// 1301// 117//
f 1285// 1284// 83//
f 83// 1284// 81//
f 1286// 1285// 82//
f 82// 1285// 83//
f 1286// 82// 84//
f 1286// 84// 1351//
f 1351// 84// 85//
f 1351// 85// 1313//
f 1313// 85// 111//
f 1313// 111// 1314//
f 1314// 111// 110//
f 1314// 110// 1315//
f 1315// 110// 109//
f 1315// 109// 1303//
f 1303// 109// 105//
f 1303// 105// 1305//
f 1305// 105// 106//
f 1305// 106// 1307//
f 1307// 106// 102//
f 1307// 102// 1309//
f 1309// 102// 104//
f 1309// 104// 1283//
f 1283// 104// 103//
f 1283// 103// 1295//
f 1295// 103// 101//
f 1295// 101// 1378//
f 1378// 101// 100//
f 1378// 100// 1376//
f 1376// 100// 108//
f 1376// 108// 1374//
f 1374// 108// 107//
f 1374// 107// 1372//
f 1370// 1372// 93//
f 93// 1372// 107//
f 93// 164// 1370//
f 1370// 164// 157//
f 1370// 157// 1396//
f 1396// 157// 156//
f 1396// 156// 1394//
f 1394// 156// 154//
f 1394// 154// 1289//
f 1289// 154// 153//
f 1289// 153// 1290//
f 1290// 153// 155//
f 1290// 155// 1329//
f 1329// 155// 163//
f 1329// 163// 1330//
f 1330// 163// 145//
f 1330// 145// 1332//
f 1332// 145// 144//
f 1332// 144// 1333//
f 1333// 144// 140//
f 1333// 140// 1293//
f 1293// 140// 143//
f 1293// 143// 1294//
f 1294// 143// 158//
f 1294// 158// 1325//
f 1325// 158// 160//
f 1325// 160// 1327//
f 1327// 160// 162//
f 1327// 162// 1384//
f 1384// 162// 161//
f 1384// 161// 1386//
f 1386// 161// 159//
f 1386// 159// 1388//
f 1388// 159// 142//
f 1388// 142// 1390//
f 1390// 142// 141//
f 1390// 141// 1391//
f 1391// 141// 139//
f 1391// 139// 1366//
f 1366// 139// 138//
f 1366// 138// 1368//
f 1368// 138// 152//
f 1368// 152// 1369//
f 1369// 152// 151//
f 1369// 151// 1316//
f 1317// 1316// 148//
f 148// 1316// 151//
f 1317// 148// 150//
f 1317// 150// 1319//
f 1319// 150// 149//
f 1319// 149// 1321//
f 1321// 149// 147//
f 1321// 147// 1352//
f 1352// 147// 146//
f 1352// 146// 1353//
f 1353// 146// 92//
f 1353// 92// 1355//
f 92// 91// 1355//
f 1355// 91// 90//
f 1355// 90// 1357//
f 1357// 90// 123//
f 1357// 123// 1359//
f 1359// 123// 122//
f 1359// 122// 1361//
f 1361// 122// 121//
f 1361// 121// 1363//
f 1363// 121// 120//
f 1363// 120// 1364//
f 1364// 120// 137//
f 1364// 137// 1340//
f 1340// 137// 136//
f 1340// 136// 1342//
f 1342// 136// 135//
f 1342// 135// 1344//
f 1344// 135// 134//
f 1344// 134// 1346//
f 1348// 1346// 133//
f 133// 1346// 134//
f 1348// 133// 99//
f 1348// 99// 1421//
f 1421// 99// 98//
f 1421// 98// 1418//
f 1418// 98// 97//
f 1418// 97// 1432//
f 1432// 97// 80//
f 1432// 80// 1426//
f 1426// 80// 79//
f 1426// 79// 1427//
f 1427// 79// 86//
f 1427// 86// 1429//
f 1429// 86// 119//
f 1429// 119// 1430//
f 1430// 119// 118//
f 1430// 118// 1431//
f 1431// 118// 116//
f 1431// 116// 1428//
f 1428// 116// 115//
f 1428// 115// 1423//
f 1423// 115// 130//
f 1423// 130// 1424//
f 1424// 130// 129//
f 1424// 129// 1425//
f 1425// 129// 128//
f 1425// 128// 1419//
f 1419// 128// 127//
f 1419// 127// 1420//
f 1420// 127// 126//
f 1420// 126// 1422//
f 1422// 126// 125//
f 1422// 125// 1349//
f 1349// 125// 124//
f 1349// 124// 1347//
f 1345// 1347// 114//
f 114// 1347// 124//
f 1345// 114// 113//
f 1345// 113// 1343//
f 1343// 113// 112//
f 1343// 112// 1341//
f 1341// 112// 88//
f 1341// 88// 1339//
f 1339// 88// 87//
f 1339// 87// 1362//
f 1362// 87// 96//
f 1362// 96// 1360//
f 1360// 96// 95//
f 1360// 95// 1358//
f 1350// 1433// 1434//
f 1350// 1434// 1287//
f 1287// 1434// 1435//
f 1287// 1435// 1288//
f 1288// 1435// 1436//
f 1288// 1436// 1299//
f 1299// 1436// 1437//
f 1299// 1437// 1300//
f 1300// 1437// 1438//
f 1300// 1438// 1334//
f 1334// 1438// 1439//
f 1334// 1439// 1335//
f 1335// 1439// 1440//
f 1335// 1440// 1337//
f 1337// 1440// 1441//
f 1337// 1441// 1400//
f 1400// 1441// 1442//
f 1400// 1442// 1402//
f 1402// 1442// 1443//
f 1402// 1443// 1404//
f 1404// 1443// 1444//
f 1404// 1444// 1406//
f 1406// 1444// 1445//
f 1406// 1445// 1408//
f 1408// 1445// 1446//
f 1408// 1446// 1410//
f 1410// 1446// 1447//
f 1410// 1447// 1412//
f 1412// 1447// 1448//
f 1412// 1448// 1414//
f 1414// 1448// 1449//
f 1414// 1449// 1416//
f 1416// 1449// 1450//
f 1416// 1450// 1417//
f 1417// 1450// 1451//
f 1417// 1451// 1382//
f 1382// 1451// 1452//
f 1382// 1452// 1381//
f 1381// 1452// 1453//
f 1381// 1453// 1312//
f 1312// 1453// 1454//
f 1312// 1454// 1311//
f 1311// 1454// 1455//
f 1311// 1455// 1310//
f 1310// 1455// 1456//
f 1310// 1456// 1308//
f 1308// 1456// 1457//
f 1308// 1457// 1306//
f 1306// 1457// 1458//
f 1306// 1458// 1304//
f 1304// 1458// 1459//
f 1304// 1459// 1302//
f 1302// 1459// 1433//
f 1302// 1433// 1350//
usemtl 1
f 1447// 1457// 1456//
f 1445// 1444// 1434//
f 1433// 1459// 1447//
f 1447// 1459// 1458//
f 1447// 1458// 1457//
f 1452// 1451// 1456//
f 1456// 1451// 1450//
f 1433// 1447// 1434//
f 1434// 1447// 1446//
f 1434// 1446// 1445//
f 1455// 1454// 1456//
f 1456// 1454// 1453//
f 1456// 1453// 1452//
f 1450// 1449// 1456//
f 1456// 1449// 1448//
f 1456// 1448// 1447//
f 1444// 1443// 1434//
f 1434// 1443// 1442//
f 1434// 1442// 1441//
f 1441// 1440// 1434//
f 1434// 1440// 1439//
f 1434// 1439// 1438//
f 1438// 1437// 1434//
f 1434// 1437// 1436//
f 1434// 1436// 1435//
