v -0.297544 1.730862 0.448813
v -0.283376 1.731141 0.447232
v -0.328577 1.730601 0.450295
newmtl 1
Ka 0.25098039215686274 0.25098039215686274 0.25098039215686274
Kd 0.25098039215686274 0.25098039215686274 0.25098039215686274
Ks 0.12549019607843137 0.12549019607843137 0.12549019607843137
d 0.0
endmtl
v -0.229812 1.556971 1.435
v -0.217652 1.556971 1.435
v -0.217652 1.639175 0.968798
v -0.449113 1.730951 0.448308
v -0.428606 1.731308 0.446286
v -0.493968 1.731308 0.446286
v -0.297162 1.639261 0.96831
v -0.301429 1.639175 0.968798
v -0.229812 1.639175 0.968798
v -0.364928 1.639634 0.966196
v -0.364928 1.639175 0.968798
v -0.356108 1.639175 0.968798
v -1.906971 1.556971 1.435
v -1.667225 1.556971 1.435
v -1.667225 1.639175 0.968798
v -0.668244 1.695702 0.648215
v -0.733811 1.695783 0.647757
v -0.733811 1.685157 0.708021
v -0.991458 1.731417 0.445665
v -0.991703 1.731308 0.446286
v -0.986205 1.731308 0.446286
v -0.986205 1.685157 0.708021
v -1.07036 1.696198 0.645406
v -1.098433 1.696232 0.64521
v -1.020767 1.731308 0.446286
v -1.020466 1.731453 0.445462
v -1.145442 1.731607 0.44459
v -1.174451 1.731643 0.444387
v -1.667225 1.737182 0.412974
v -0.986205 1.737182 0.412974
v -1.144814 1.731308 0.446286
v -1.125094 1.721922 0.499515
v -1.040408 1.721818 0.500107
v -0.733811 1.711148 0.560615
v -0.766599 1.711189 0.560386
v -0.772831 1.699894 0.624444
v -0.772997 1.695831 0.647483
v -0.795473 1.685157 0.708021
v -0.795473 1.731308 0.446286
v -0.766434 1.715233 0.53745
v -0.733811 1.715193 0.537678
v -0.693705 1.715143 0.537958
v -0.733811 1.727073 0.4703
v -0.693219 1.727023 0.470583
v -0.733811 1.699846 0.624717
v -0.694331 1.699797 0.624993
v -0.69387 1.711099 0.560894
v -0.566619 1.724629 0.484165
v -0.569654 1.726709 0.472368
v -0.57033 1.72671 0.472363
v -0.776346 1.727126 0.470002
v -0.776181 1.731152 0.447169
v -0.733811 1.731308 0.446286
v -0.733811 1.7311 0.447465
v -0.666802 1.731017 0.447933
v -0.640383 1.705761 0.591168
v -0.543079 1.685157 0.708021
v -0.613974 1.705729 0.591353
v -0.543079 1.712595 0.552413
v -0.573532 1.724673 0.483912
v -0.571535 1.725847 0.477257
v -0.132285 1.670306 0.792244
v -0.21328 1.670406 0.791679
v -0.217652 1.675058 0.765296
v -0.213115 1.674432 0.768845
v -0.105867 1.6743 0.769594
v -0.021016 1.639175 0.968798
v -0.107302 1.639175 0.968798
v -0.10731 1.638985 0.969876
v 2.12804 1.77804 0.181255
v 0.745461 1.742584 0.382332
v 0.773575 1.738843 0.403551
v 2.087182 1.737182 0.412974
v 0.562647 1.737182 0.412974
v 0.576529 1.739867 0.397742
v -0.021016 1.77804 0.181255
v 0.605536 1.743291 0.378324
v 0.637914 1.74538 0.366477
v 0.672405 1.746063 0.362604
v 0.678121 1.746037 0.362752
v 0.712216 1.745065 0.368265
v 0.80251 1.731308 0.446286
v 2.081308 1.731308 0.446286
v 0.794864 1.734205 0.429853
v 0.781202 1.737182 0.412974
v 0.879584 1.723342 0.491463
v 0.924257 1.716625 0.529554
v 0.809073 1.72882 0.460395
v 0.827533 1.727834 0.465984
v 0.956757 1.70846 0.575863
v 0.977184 1.69909 0.629001
v 2.035157 1.685157 0.708021
v 0.983869 1.689182 0.685192
v 0.983384 1.686832 0.698522
v 0.981604 1.685157 0.708021
v 2.025058 1.675058 0.765296
v 0.805169 1.649955 0.907663
v 0.747964 1.648795 0.914241
v 0.656156 1.639175 0.968798
v 0.973368 1.677405 0.751982
v 0.967283 1.675058 0.765296
v 1.989175 1.639175 0.968798
v 0.949994 1.668387 0.803128
v 0.684841 1.64338 0.944952
v 0.731342 1.648972 0.913235
v 0.714728 1.649338 0.911161
v 0.914741 1.660642 0.847052
v 0.905063 1.659073 0.855952
v 0.858868 1.653508 0.887509
v 0.417183 1.62995 1.021112
v 0.344802 1.63448 0.995423
v -0.021016 1.556971 1.435
v -0.133563 1.639017 0.969692
v -0.133556 1.639175 0.968798
v 1.906971 1.556971 1.435
v 0.650655 1.638368 0.973372
v 0.615313 1.634625 0.994602
v 0.548464 1.630237 1.019487
v 0.476741 1.62879 1.027695
v -1.989175 1.639175 0.968798
v -1.667225 1.675058 0.765296
v -2.025058 1.675058 0.765296
v -1.667225 1.685157 0.708021
v -2.035157 1.685157 0.708021
v -1.667225 1.731308 0.446286
v -2.081308 1.731308 0.446286
v -2.087182 1.737182 0.412974
v -0.401507 1.639175 0.968798
v -0.37511 1.640163 0.963193
v -0.374915 1.64493 0.936161
v -0.364928 1.644193 0.940339
v -0.27309 1.667987 0.805398
v -0.286277 1.669639 0.796024
v -0.352086 1.643326 0.945254
v -0.268903 1.647123 0.923719
v -0.259287 1.64962 0.909558
v -0.252673 1.652751 0.891801
v -0.327069 1.642776 0.948373
v -0.319248 1.642821 0.948122
v -0.271491 1.646626 0.926541
v -0.301522 1.643388 0.944901
v -0.285471 1.644652 0.937733
v -0.249691 1.657216 0.866482
v -0.24986 1.658525 0.859058
v -0.252978 1.662061 0.839001
v -0.300696 1.670636 0.790373
v -0.321337 1.671098 0.787749
v -0.330982 1.671047 0.788042
v -0.25944 1.664916 0.822811
v -0.269243 1.667315 0.809207
v -0.327678 1.638661 0.971714
v -0.354171 1.639074 0.96937
v -0.364928 1.556971 1.435
v -0.227351 1.65101 0.901675
v -0.229812 1.650029 0.90724
v -0.237163 1.647099 0.92386
v -0.25206 1.643767 0.942753
v -0.25682 1.642986 0.947181
v -0.27591 1.64068 0.960261
v -0.222557 1.655616 0.875553
v -0.222127 1.657453 0.865139
v -0.225231 1.662726 0.835234
v -0.229812 1.664987 0.822408
v -0.305159 1.675041 0.765388
v -0.283141 1.674228 0.770002
v -0.229812 1.675058 0.765296
v -0.264005 1.672634 0.779039
v -0.247703 1.670249 0.792565
v -0.244516 1.66962 0.796132
v -0.232928 1.666525 0.813685
v -0.323795 1.675058 0.765296
v -0.317376 1.675156 0.764737
v -0.364928 1.685157 0.708021
v -0.306886 1.675058 0.765296
v -0.37394 1.668798 0.800796
v -0.373762 1.673167 0.776017
v -0.401507 1.675058 0.765296
v -0.37028 1.673463 0.774339
v -0.364928 1.675058 0.765296
v -0.364928 1.673761 0.772652
v -0.348394 1.67468 0.767439
v -0.520603 1.639494 0.966989
v -0.543079 1.639175 0.968798
v -0.493968 1.639175 0.968798
v -0.493968 1.654826 0.880034
v -0.514205 1.654851 0.879892
v -0.520437 1.643556 0.94395
v -0.51404 1.658895 0.856956
v -0.543079 1.675058 0.765296
v -0.493968 1.658871 0.857096
v -0.44131 1.658806 0.857464
v -0.493968 1.670751 0.789718
v -0.440825 1.670686 0.790089
v -0.493968 1.643523 0.944135
v -0.441937 1.643459 0.944499
v -0.441476 1.654762 0.8804
v -0.414408 1.67468 0.767439
v -0.493968 1.675058 0.765296
v -0.41585 1.639365 0.967721
v -0.493968 1.639461 0.967175
v -0.523952 1.670788 0.789509
v -0.523787 1.674814 0.766675
v -0.493968 1.674778 0.766883
v -0.353991 1.670327 0.792124
v -0.364928 1.669489 0.796879
v -0.372659 1.644715 0.93738
v -0.795473 1.639175 0.968798
v -0.817966 1.63986 0.964912
v -0.846039 1.639895 0.964716
v -0.733811 1.675058 0.765296
v -0.739113 1.675058 0.765296
v -0.795473 1.6499 0.90797
v -0.768192 1.675058 0.765296
v -0.768072 1.675115 0.764969
v -0.739064 1.67508 0.765171
v -0.795473 1.675058 0.765296
v -0.795473 1.665489 0.819561
v -0.788014 1.66548 0.819613
v -0.8727 1.665585 0.819021
v -0.892603 1.675058 0.765296
v -0.893048 1.675269 0.764096
v -0.922057 1.675305 0.763893
v -0.921525 1.675058 0.765296
v -0.986205 1.675058 0.765296
v -0.986205 1.639175 0.968798
v -0.389478 1.712259 0.554316
v -0.390594 1.710645 0.56347
v -0.393191 1.715309 0.537021
v -0.390466 1.71395 0.544729
v -0.388792 1.725222 0.480799
v -0.401507 1.726479 0.473673
v -0.401507 1.717117 0.526768
v -0.397902 1.726229 0.47509
v -0.400677 1.71702 0.527316
v -0.396541 1.716258 0.531637
v -0.427366 1.731308 0.446286
v -0.40631 1.730898 0.448609
v -0.401507 1.731308 0.446286
v -0.401507 1.730597 0.450314
v -0.364928 1.731308 0.446286
v -0.388606 1.72979 0.454893
v -0.493968 1.737182 0.412974
v -0.401507 1.737182 0.412974
v -0.427951 1.731319 0.446222
v -0.48071 1.706106 0.589212
v -0.480534 1.710403 0.564842
v -0.406021 1.706899 0.584716
v -0.412086 1.706259 0.588344
v -0.401507 1.685157 0.708021
v -0.485643 1.725725 0.477948
v -0.482436 1.727122 0.470025
v -0.477618 1.728282 0.463448
v -0.393741 1.709225 0.571521
v -0.39858 1.708037 0.578259
v -0.401507 1.70759 0.580798
v -0.425721 1.705354 0.593479
v -0.446341 1.704944 0.5958
v -0.493968 1.685157 0.708021
v -0.4642 1.705242 0.594114
v -0.478593 1.719754 0.511813
v -0.483303 1.72098 0.504859
v -0.485966 1.722288 0.497441
v -0.486948 1.723935 0.4881
v -0.47035 1.729367 0.457292
v -0.462996 1.730115 0.453049
v -0.443698 1.708534 0.575441
v -0.436154 1.708623 0.574937
v -0.415747 1.711894 0.556386
v -0.429327 1.708928 0.573209
v -0.423593 1.709448 0.570257
v -0.415955 1.712483 0.553047
v -0.416938 1.713171 0.549143
v -0.418749 1.71377 0.545746
v -0.421214 1.714248 0.543036
v -0.430155 1.715234 0.537444
v -0.461561 1.708936 0.573164
v -0.445871 1.716445 0.530576
v -0.475924 1.709926 0.567548
v -0.455706 1.71715 0.526576
v -0.472557 1.718805 0.517192
v -0.419726 1.710033 0.566939
v -0.417519 1.710594 0.563762
v -0.416237 1.711189 0.560383
v -0.413791 1.72733 0.468845
v -0.427752 1.719637 0.512475
v -0.412618 1.71841 0.519435
v -0.430594 1.727711 0.466683
v -0.431719 1.727711 0.466682
v -0.444429 1.720874 0.50546
v -0.444788 1.727473 0.468032
v -0.460781 1.724336 0.485826
v -0.460554 1.723785 0.488948
v -0.451378 1.727064 0.470355
v -0.45371 1.726822 0.471727
v -0.456652 1.726375 0.474262
v -0.458899 1.725806 0.477485
v -0.460219 1.725179 0.481043
v -0.459425 1.723093 0.492873
v -0.45748 1.722504 0.496213
v -0.454329 1.721926 0.49949
v -0.543079 1.731308 0.446286
v -0.543079 1.724591 0.484377
v -0.500955 1.705589 0.592142
v -0.529444 1.705624 0.591943
v -0.556904 1.730828 0.449007
v -0.555712 1.731308 0.446286
v -0.54554 1.7354 0.423078
v -0.539455 1.737182 0.412974
v -0.540456 1.73699 0.414059
v -0.543079 1.73617 0.418711
v -0.525555 1.738808 0.403751
v -0.531134 1.738446 0.405805
v -0.519297 1.738925 0.403088
v -0.535674 1.737904 0.408875
v -0.51065 1.73873 0.40419
v -0.504866 1.738401 0.406056
v -0.504705 1.742337 0.383734
v -0.540987 1.741919 0.386106
v -0.530851 1.742548 0.38254
v -0.543079 1.77804 0.181255
v -0.521118 1.742719 0.381572
v -0.493968 1.77804 0.181255
v -0.512206 1.742615 0.382159
v -0.566304 1.737182 0.412974
v -0.564633 1.737773 0.409618
v -0.733811 1.77804 0.181255
v -0.553573 1.740295 0.395315
v -0.549962 1.740875 0.392027
v -0.543079 1.741676 0.387486
v -0.581169 1.731308 0.446286
v -0.573278 1.734712 0.42698
v -0.733811 1.737182 0.412974
v 0.153792 1.666159 0.815763
v 0.114724 1.671954 0.782899
v -0.021016 1.675058 0.765296
v 0.305201 1.639175 0.968798
v 0.280625 1.642088 0.952275
v 0.233507 1.651672 0.897922
v 0.203353 1.66202 0.839235
v 0.196712 1.662416 0.836992
v 0.540785 1.731308 0.446286
v 0.552718 1.735261 0.423868
v -0.021016 1.737182 0.412974
v 0.067942 1.686808 0.698658
v 0.061548 1.695089 0.651693
v -0.021016 1.685157 0.708021
v 0.562247 1.704265 0.599652
v 0.367771 1.686928 0.697978
v 0.587265 1.70025 0.622425
v 0.617814 1.697353 0.638856
v 0.34642 1.729384 0.457195
v 0.356514 1.728396 0.462799
v 0.535749 1.72964 0.455746
v 0.364815 1.727011 0.470654
v 0.151791 1.693085 0.663057
v 0.158305 1.68825 0.690476
v 0.167681 1.685157 0.708021
v 0.890066 1.685157 0.708021
v 0.881501 1.698645 0.631528
v 0.863315 1.704103 0.600574
v 0.790524 1.706567 0.586599
v 0.837386 1.708719 0.57439
v 0.80694 1.711999 0.555791
v 0.358502 1.716116 0.53244
v 0.349362 1.715104 0.538185
v 0.32349 1.70029 0.622193
v 0.339285 1.714509 0.541559
v 0.736601 1.698344 0.633232
v 0.766362 1.701862 0.613283
v 0.892754 1.688792 0.687404
v 0.891354 1.692459 0.666608
v 0.086875 1.711918 0.556252
v 0.116022 1.718876 0.516788
v -0.021016 1.731308 0.446286
v 0.155415 1.72459 0.484383
v 0.199669 1.728294 0.463379
v 0.068459 1.703984 0.601245
v 0.329848 1.714344 0.542491
v 0.328442 1.714364 0.542381
v 0.324111 1.714536 0.541404
v 0.704552 1.696276 0.644959
v 0.670344 1.695595 0.648825
v 0.652644 1.6958 0.64766
v 0.248065 1.730013 0.453628
v 0.333376 1.729908 0.454224
v 0.336694 1.729845 0.454581
v 0.374991 1.722073 0.49866
v 0.374651 1.721172 0.503768
v 0.526682 1.718622 0.518233
v 0.371798 1.719259 0.51462
v 0.366254 1.717535 0.524398
v 0.370677 1.725401 0.479787
v 0.374047 1.72368 0.489542
v 0.527485 1.723432 0.490953
v 0.526785 1.721133 0.503993
v 0.181042 1.708463 0.575844
v 0.164989 1.704565 0.597954
v 0.154858 1.700101 0.62327
v 0.151207 1.69523 0.650895
v 0.321183 1.714606 0.541006
v 0.256115 1.714686 0.540552
v 0.230372 1.713868 0.545192
v 0.204746 1.711857 0.556597
v 0.183202 1.70886 0.573595
v 0.274759 1.675492 0.762834
v 0.875844 1.677221 0.753027
v 0.888332 1.682813 0.721313
v 0.263191 1.675506 0.762754
v 0.171509 1.683894 0.715184
v 0.188309 1.680583 0.73396
v 0.210636 1.67784 0.749519
v 0.235811 1.676125 0.759245
v 0.305909 1.660207 0.849517
v 0.338452 1.653432 0.887938
v 0.670652 1.667722 0.806897
v 0.341004 1.653025 0.890252
v 0.381388 1.648066 0.918376
v 0.648099 1.65977 0.851994
v 0.867115 1.675058 0.765296
v 0.681551 1.666676 0.812833
v 0.275297 1.675058 0.765296
v 0.283673 1.668303 0.803606
v 0.71391 1.664604 0.824579
v 0.747133 1.663862 0.828792
v 0.760383 1.663951 0.828288
v 0.615343 1.653089 0.889886
v 0.426581 1.644979 0.935881
v 0.57679 1.64827 0.917217
v 0.47591 1.643857 0.942246
v 0.529459 1.644994 0.935797
v 0.796246 1.665297 0.820649
v 0.828853 1.668164 0.804392
v 0.855718 1.672233 0.781316
v 0.102031 1.675058 0.765296
v 0.08541 1.679122 0.742246
v 0.071694 1.685157 0.708021
v -0.217652 1.685157 0.708021
v -0.217652 1.731308 0.446286
v -0.209608 1.6992 0.628378
v -0.209774 1.695138 0.651417
v -0.203211 1.714539 0.541384
v -0.130482 1.71445 0.541892
v -0.129997 1.72633 0.474517
v -0.213123 1.726432 0.473936
v -0.212959 1.730458 0.451103
v -0.103579 1.730324 0.451867
v -0.105021 1.695009 0.652148
v -0.203376 1.710495 0.56432
v -0.130647 1.710406 0.564828
v -0.131109 1.699103 0.628927
v -0.326977 1.638659 0.971721
v -0.229812 1.685157 0.708021
v -0.229812 1.731308 0.446286
v -0.2481 1.718481 0.51903
v -0.252315 1.71135 0.559473
v -0.242961 1.719742 0.511879
v -0.239406 1.721298 0.503055
v -0.336937 1.706438 0.587329
v -0.34371 1.707568 0.580918
v -0.302598 1.704767 0.596804
v -0.317707 1.705019 0.595378
v -0.328478 1.705593 0.592121
v -0.26676 1.730748 0.44946
v -0.257265 1.730054 0.453395
v -0.241484 1.727125 0.470006
v -0.238603 1.725594 0.478693
v -0.276438 1.705294 0.59382
v -0.257494 1.706556 0.586662
v -0.252491 1.707053 0.583842
v -0.328736 1.726701 0.472412
v -0.32806 1.7267 0.472417
v -0.322026 1.728184 0.464004
v -0.255951 1.717315 0.525642
v -0.26684 1.716363 0.531041
v -0.270152 1.709439 0.57031
v -0.286144 1.715562 0.535582
v -0.28615 1.708569 0.575244
v -0.348884 1.708996 0.572822
v -0.352818 1.710999 0.561464
v -0.354713 1.714401 0.542169
v -0.313659 1.729551 0.45625
v -0.307728 1.730194 0.452601
v -0.35405 1.730632 0.450117
v -0.249874 1.729114 0.458729
v -0.245961 1.728383 0.462874
v -0.329232 1.714568 0.541221
v -0.328567 1.712767 0.551436
v -0.326077 1.711125 0.560751
v -0.237616 1.723736 0.489227
v -0.237708 1.723206 0.492234
v -0.323186 1.710188 0.566061
v -0.319439 1.709456 0.570213
v -0.31503 1.708931 0.573191
v -0.309301 1.708551 0.575343
v -0.30006 1.708357 0.576445
v -0.278523 1.731107 0.447423
v -0.217652 1.737182 0.412974
v -0.229812 1.737182 0.412974
v -0.364928 1.737182 0.412974
v -0.217652 1.77804 0.181255
v -0.229812 1.77804 0.181255
v -0.364928 1.77804 0.181255
v -0.401507 1.77804 0.181255
v -0.722756 1.663318 0.831877
v -0.712613 1.66696 0.81122
v -0.727832 1.659186 0.855309
v -0.717759 1.648648 0.915072
v -0.725223 1.652012 0.895992
v -0.733811 1.639175 0.968798
v -0.728522 1.656957 0.867951
v -0.697313 1.670081 0.79352
v -0.693702 1.670631 0.790402
v -0.673696 1.672901 0.777529
v -0.621665 1.639618 0.966283
v -0.652662 1.640251 0.962697
v -0.677147 1.641837 0.953702
v -0.64991 1.674361 0.769246
v -0.618143 1.674931 0.766016
v -0.562205 1.674862 0.766407
v -0.563648 1.639547 0.966688
v -0.698362 1.644389 0.939226
v -0.705229 1.645567 0.932545
v -0.401507 1.556971 1.435
v -0.493968 1.556971 1.435
v -0.543079 1.556971 1.435
v -0.733811 1.556971 1.435
v -0.795473 1.556971 1.435
v -0.986205 1.556971 1.435
v -0.97515 1.719655 0.512371
v -0.965007 1.723298 0.491713
v -0.949707 1.726418 0.474014
v -0.946096 1.726968 0.470895
v -0.92609 1.729238 0.458023
v -0.902305 1.730699 0.44974
v -0.870537 1.731268 0.44651
v -0.8146 1.7312 0.4469
v -0.816042 1.695884 0.647182
v -0.874059 1.695956 0.646777
v -0.905056 1.696588 0.643191
v -0.929541 1.698174 0.634196
v -0.950756 1.700727 0.61972
v -0.957623 1.701905 0.613039
v -0.970153 1.704986 0.595565
v -0.977617 1.70835 0.576486
v -0.980916 1.713294 0.548445
v -0.980226 1.715523 0.535803
v -0.795473 1.737182 0.412974
v -1.173732 1.731308 0.446286
v -0.795473 1.77804 0.181255
v -0.986205 1.77804 0.181255
v -1.667225 1.77804 0.181255
v -2.12804 1.77804 0.181255
v 2.16 1.81 0.0
v -0.021016 1.81 0.0
v -0.217652 1.81 0.0
v -0.229812 1.81 0.0
v -0.364928 1.81 0.0
v -0.401507 1.81 0.0
v -0.493968 1.81 0.0
v -0.543079 1.81 0.0
v -0.733811 1.81 0.0
v -0.795473 1.81 0.0
v -0.986205 1.81 0.0
v -1.667225 1.81 0.0
v -2.16 1.81 0.0
v 2.16 -1.0 0.0
v 2.16 -1.81 0.0
v 2.119445 -1.0 -0.23
v 1.942236 -1.592236 -1.235
v 2.119445 1.0 -0.23
v 1.942236 1.592236 -1.235
v 2.16 1.0 -0.0
v -2.16 1.0 -0.0
v -2.119445 1.0 -0.23
v -1.942236 1.592236 -1.235
v -2.119445 -1.0 -0.23
v -1.942236 -1.592236 -1.235
v -2.16 -1.0 -0.0
v -2.16 -1.81 0.0
v 0.906971 -1.592236 -1.235
v -0.906971 -1.592236 -1.235
v -0.906971 -1.556971 -1.435
v 0.906971 -1.556971 -1.435
v 0.906971 1.556971 -1.435
v -0.906971 1.556971 -1.435
v -0.906971 1.592236 -1.235
v 0.906971 1.592236 -1.235
v 2.128561 1.778561 0.178299
v 1.906971 -1.556971 1.435
v -1.906971 -1.556971 1.435
v -2.128561 1.778561 0.178299
v -2.4 1.0 0.0
v -2.4 -1.0 0.0
newmtl 2
Ka 1.0 1.0 1.0
Kd 1.0 1.0 1.0
Ks 0.5019607843137255 0.5019607843137255 0.5019607843137255
d 0.0
endmtl
v -1.68 1.0 -1.305
v -2.4 1.0 -1.305
v -1.68 -1.0 -1.305
v -2.4 -1.0 -1.305
v -1.68 1.0 -1.535
v -1.68 -1.0 -1.535
v -2.4 1.0 -1.535
v -2.4 -1.0 -1.535
v -2.477646 -1.0 -1.524778
v -2.477646 1.0 -1.524778
v -2.55 -1.0 -1.494808
v -2.55 1.0 -1.494808
v -2.612132 -1.0 -1.447132
v -2.612132 1.0 -1.447132
v -2.659808 -1.0 -1.385
v -2.659808 1.0 -1.385
v -2.689778 -1.0 -1.312646
v -2.689778 1.0 -1.312646
v -2.7 -1.0 -1.235
v -2.7 1.0 -1.235
v -2.7 1.0 -0.3
v -2.7 -1.0 -0.3
v -2.689778 -1.0 -0.222354
v -2.689778 1.0 -0.222354
v -2.659808 -1.0 -0.15
v -2.659808 1.0 -0.15
v -2.612132 -1.0 -0.087868
v -2.612132 1.0 -0.087868
v -2.55 -1.0 -0.040192
v -2.55 1.0 -0.040192
v -2.477646 -1.0 -0.010222
v -2.477646 1.0 -0.010222
v -2.4 -1.0 -0.23
v -2.4 1.0 -0.23
v -2.418117 1.0 -0.232385
v -2.418117 -1.0 -0.232385
v -2.435 1.0 -0.239378
v -2.435 -1.0 -0.239378
v -2.449498 1.0 -0.250503
v -2.449498 -1.0 -0.250503
v -2.460622 1.0 -0.265
v -2.460622 -1.0 -0.265
v -2.467615 1.0 -0.281883
v -2.467615 -1.0 -0.281883
v -2.47 1.0 -0.3
v -2.47 -1.0 -0.3
v -2.47 1.0 -1.235
v -2.47 -1.0 -1.235
v -2.467615 1.0 -1.253117
v -2.467615 -1.0 -1.253117
v -2.460622 1.0 -1.27
v -2.460622 -1.0 -1.27
v -2.449498 1.0 -1.284497
v -2.449498 -1.0 -1.284497
v -2.435 1.0 -1.295622
v -2.435 -1.0 -1.295622
v -2.418117 1.0 -1.302615
v -2.418117 -1.0 -1.302615
v 2.4 -1.0 0.0
v 2.4 1.0 0.0
v 2.4 1.0 -1.305
v 1.68 1.0 -1.305
v 2.4 -1.0 -1.305
v 1.68 -1.0 -1.305
v 2.418117 1.0 -1.302615
v 2.418117 -1.0 -1.302615
v 2.435 1.0 -1.295622
v 2.435 -1.0 -1.295622
v 2.449498 1.0 -1.284497
v 2.449498 -1.0 -1.284497
v 2.460622 1.0 -1.27
v 2.460622 -1.0 -1.27
v 2.467615 1.0 -1.253117
v 2.467615 -1.0 -1.253117
v 2.47 1.0 -1.235
v 2.47 -1.0 -1.235
v 2.47 1.0 -0.3
v 2.47 -1.0 -0.3
v 2.467615 1.0 -0.281883
v 2.467615 -1.0 -0.281883
v 2.460622 1.0 -0.265
v 2.460622 -1.0 -0.265
v 2.449498 1.0 -0.250503
v 2.449498 -1.0 -0.250503
v 2.435 1.0 -0.239378
v 2.435 -1.0 -0.239378
v 2.418117 1.0 -0.232385
v 2.418117 -1.0 -0.232385
v 2.4 1.0 -0.23
v 2.4 -1.0 -0.23
v 2.477646 -1.0 -0.010222
v 2.477646 1.0 -0.010222
v 2.55 -1.0 -0.040192
v 2.55 1.0 -0.040192
v 2.612132 -1.0 -0.087868
v 2.612132 1.0 -0.087868
v 2.659808 -1.0 -0.15
v 2.659808 1.0 -0.15
v 2.689778 -1.0 -0.222354
v 2.689778 1.0 -0.222354
v 2.7 -1.0 -0.3
v 2.7 1.0 -0.3
v 2.7 1.0 -1.235
v 2.7 -1.0 -1.235
v 2.689778 -1.0 -1.312646
v 2.689778 1.0 -1.312646
v 2.659808 -1.0 -1.385
v 2.659808 1.0 -1.385
v 2.612132 -1.0 -1.447132
v 2.612132 1.0 -1.447132
v 2.55 -1.0 -1.494808
v 2.55 1.0 -1.494808
v 2.477646 -1.0 -1.524778
v 2.477646 1.0 -1.524778
v 2.4 -1.0 -1.535
v 2.4 1.0 -1.535
v 1.68 1.0 -1.535
v 1.68 -1.0 -1.535
v -0.21328 1.671391 0.791852
v -0.213115 1.675417 0.769018
newmtl 3
Ka 1.0 1.0 1.0
Kd 1.0 1.0 1.0
Ks 0.7019607843137254 0.7019607843137254 0.7019607843137254
d 0.0
endmtl
v -0.132285 1.671291 0.792418
v -0.133563 1.640002 0.969866
v -0.10731 1.63997 0.970049
v -0.105867 1.675285 0.769768
v -0.373762 1.674152 0.776191
v -0.37028 1.674448 0.774513
v -0.317376 1.676141 0.764911
v -0.348394 1.675665 0.767613
v -0.37394 1.669783 0.80097
v -0.353991 1.671312 0.792298
v -0.330982 1.672032 0.788215
v -0.321337 1.672083 0.787923
v -0.300696 1.671621 0.790547
v -0.286277 1.670624 0.796197
v -0.27309 1.668972 0.805571
v -0.269243 1.6683 0.809381
v -0.25944 1.665901 0.822984
v -0.252978 1.663046 0.839175
v -0.24986 1.65951 0.859232
v -0.249691 1.658201 0.866656
v -0.252673 1.653736 0.891975
v -0.259287 1.650605 0.909732
v -0.268903 1.648108 0.923892
v -0.271491 1.647611 0.926714
v -0.285471 1.645637 0.937907
v -0.301522 1.644373 0.945075
v -0.319248 1.643805 0.948296
v -0.327069 1.643761 0.948547
v -0.374915 1.645914 0.936334
v -0.372659 1.645699 0.937554
v -0.352086 1.644311 0.945428
v -0.37511 1.641148 0.963366
v -0.354171 1.640059 0.969543
v -0.327678 1.639645 0.971888
v -0.326977 1.639644 0.971894
v -0.297162 1.640246 0.968484
v -0.27591 1.641665 0.960435
v -0.25682 1.643971 0.947355
v -0.25206 1.644752 0.942927
v -0.237163 1.648083 0.924034
v -0.227351 1.651995 0.901849
v -0.222557 1.656601 0.875726
v -0.222127 1.658437 0.865313
v -0.225231 1.663711 0.835407
v -0.232928 1.66751 0.813858
v -0.244516 1.670605 0.796306
v -0.247703 1.671234 0.792738
v -0.305159 1.676026 0.765562
v -0.283141 1.675213 0.770175
v -0.264005 1.673619 0.779213
v -0.523952 1.671773 0.789682
v -0.523787 1.675799 0.766849
v -0.440825 1.671671 0.790263
v -0.44131 1.659791 0.857638
v -0.51404 1.65988 0.85713
v -0.514205 1.655836 0.880066
v -0.441476 1.655746 0.880574
v -0.441937 1.644444 0.944672
v -0.520437 1.644541 0.944124
v -0.520603 1.640478 0.967163
v -0.41585 1.64035 0.967894
v -0.414408 1.675665 0.767612
v -0.700149 1.660269 0.854926
v -0.727832 1.660171 0.855483
v -0.700912 1.658034 0.867601
v -0.728522 1.657942 0.868124
v -0.698573 1.653967 0.890663
v -0.725223 1.652997 0.896166
v -0.693209 1.651286 0.905871
v -0.717759 1.649633 0.915245
v -0.685661 1.649243 0.917455
v -0.705229 1.646552 0.932718
v -0.679016 1.648058 0.924175
v -0.698362 1.645374 0.9394
v -0.664246 1.646327 0.933994
v -0.677147 1.642821 0.953876
v -0.646656 1.6452 0.940389
v -0.652662 1.641235 0.96287
v -0.620459 1.644664 0.943426
v -0.621665 1.640603 0.966457
v -0.589735 1.644626 0.94364
v -0.563648 1.640532 0.966862
v -0.588623 1.671853 0.789231
v -0.562205 1.675847 0.76658
v -0.618151 1.671889 0.789024
v -0.618143 1.675916 0.766189
v -0.643997 1.671438 0.791581
v -0.64991 1.675346 0.769419
v -0.66144 1.670383 0.797567
v -0.673696 1.673885 0.777703
v -0.674977 1.668868 0.806156
v -0.693702 1.671616 0.790575
v -0.678762 1.66828 0.80949
v -0.697313 1.671066 0.793694
v -0.688966 1.666114 0.821778
v -0.712613 1.667945 0.811393
v -0.696073 1.6635 0.836603
v -0.722756 1.664302 0.832051
v -0.620459 1.643679 0.943252
v -0.589735 1.643641 0.943466
v -0.588623 1.670868 0.789057
v -0.618151 1.670904 0.788851
v -0.678762 1.667296 0.809317
v -0.674977 1.667884 0.805982
v -0.66144 1.669398 0.797393
v -0.643997 1.670454 0.791407
v -0.700912 1.657049 0.867427
v -0.700149 1.659284 0.854752
v -0.696073 1.662515 0.83643
v -0.688966 1.665129 0.821604
v -0.679016 1.647074 0.924002
v -0.685661 1.648258 0.917282
v -0.693209 1.650301 0.905698
v -0.698573 1.652983 0.890489
v -0.646656 1.644215 0.940215
v -0.664246 1.645342 0.93382
v -0.796495 1.662485 0.842357
v -0.827506 1.647844 0.925391
v -0.817966 1.640845 0.965086
v -0.739064 1.676064 0.765345
v -0.768072 1.6761 0.765142
v -0.788014 1.666465 0.819786
v -0.82931 1.646792 0.931356
v -0.830935 1.645375 0.939395
v -0.846039 1.640879 0.96489
v -0.831558 1.645375 0.939391
v -0.833141 1.646871 0.930907
v -0.834628 1.647853 0.925341
v -0.864753 1.662569 0.84188
v -0.922057 1.67629 0.764067
v -0.893048 1.676254 0.764269
v -0.8727 1.666569 0.819195
v -0.796495 1.6615 0.842184
v -0.864753 1.661584 0.841707
v -0.834628 1.646868 0.925167
v -0.831558 1.644391 0.939217
v -0.833141 1.645887 0.930733
v -0.830935 1.64439 0.939222
v -0.827506 1.646859 0.925217
v -0.82931 1.645808 0.931182
v -0.213123 1.727417 0.47411
v -0.212959 1.731443 0.451276
v -0.129997 1.727315 0.474691
v -0.130482 1.715435 0.542066
v -0.203211 1.715524 0.541558
v -0.203376 1.71148 0.564494
v -0.130647 1.71139 0.565002
v -0.131109 1.700088 0.6291
v -0.209608 1.700185 0.628552
v -0.209774 1.696122 0.65159
v -0.105021 1.695993 0.652322
v -0.103579 1.731309 0.45204
v -0.328577 1.731586 0.450469
v -0.35405 1.731617 0.450291
v -0.328736 1.727686 0.472586
v -0.354713 1.715386 0.542343
v -0.329232 1.715553 0.541394
v -0.273812 1.720753 0.511903
v -0.279949 1.720263 0.51468
v -0.32806 1.727685 0.47259
v -0.314608 1.727025 0.476331
v -0.322026 1.729168 0.464178
v -0.307365 1.727858 0.471609
v -0.295062 1.719682 0.517979
v -0.329094 1.718929 0.522247
v -0.328995 1.721349 0.508526
v -0.328903 1.721845 0.50571
v -0.327199 1.723637 0.495545
v -0.323368 1.725208 0.486638
v -0.317868 1.726481 0.47942
v -0.265715 1.726213 0.480935
v -0.245961 1.729367 0.463048
v -0.26858 1.726963 0.476686
v -0.249874 1.730098 0.458903
v -0.27073 1.727344 0.474527
v -0.257265 1.731039 0.453569
v -0.275782 1.727952 0.471077
v -0.26676 1.731733 0.449634
v -0.281529 1.728326 0.468955
v -0.278523 1.732092 0.447597
v -0.290127 1.728505 0.46794
v -0.328567 1.713752 0.551609
v -0.352818 1.711983 0.561638
v -0.326077 1.712109 0.560924
v -0.348884 1.709981 0.572996
v -0.323186 1.711173 0.566235
v -0.34371 1.708553 0.581092
v -0.319439 1.710441 0.570387
v -0.336937 1.707423 0.587502
v -0.31503 1.709916 0.573365
v -0.328478 1.706578 0.592295
v -0.309301 1.709536 0.575517
v -0.317707 1.706004 0.595552
v -0.30006 1.709342 0.576618
v -0.302598 1.705752 0.596978
v -0.28615 1.709554 0.575418
v -0.276438 1.706278 0.593994
v -0.270152 1.710424 0.570484
v -0.257494 1.70754 0.586836
v -0.252315 1.712335 0.559646
v -0.252491 1.708038 0.584016
v -0.283376 1.732126 0.447405
v -0.297544 1.731847 0.448986
v -0.299607 1.728334 0.46891
v -0.307728 1.731179 0.452775
v -0.313659 1.730536 0.456424
v -0.263713 1.72369 0.495249
v -0.237708 1.724191 0.492407
v -0.263468 1.724391 0.491269
v -0.237616 1.724721 0.489401
v -0.264074 1.725408 0.485505
v -0.238603 1.726578 0.478866
v -0.241484 1.72811 0.470179
v -0.286144 1.716547 0.535756
v -0.26684 1.717348 0.531215
v -0.270357 1.721204 0.509345
v -0.255951 1.7183 0.525815
v -0.267281 1.721856 0.505649
v -0.2481 1.719466 0.519203
v -0.265012 1.722678 0.500985
v -0.242961 1.720727 0.512053
v -0.239406 1.722283 0.503229
v -0.270357 1.720219 0.509171
v -0.273812 1.719768 0.511729
v -0.279949 1.719279 0.514506
v -0.295062 1.718697 0.517805
v -0.263468 1.723407 0.491095
v -0.263713 1.722705 0.495075
v -0.265012 1.721693 0.500812
v -0.267281 1.720871 0.505475
v -0.27073 1.726359 0.474353
v -0.26858 1.725978 0.476513
v -0.265715 1.725229 0.480762
v -0.264074 1.724423 0.485331
v -0.290127 1.72752 0.467767
v -0.281529 1.727341 0.468781
v -0.275782 1.726967 0.470904
v -0.317868 1.725496 0.479246
v -0.314608 1.726041 0.476158
v -0.307365 1.726873 0.471435
v -0.299607 1.727349 0.468736
v -0.328995 1.720364 0.508352
v -0.328903 1.72086 0.505536
v -0.327199 1.722653 0.495371
v -0.323368 1.724223 0.486464
v -0.329094 1.717944 0.522073
v -0.388792 1.726207 0.480973
v -0.397902 1.727214 0.475264
v -0.430594 1.728696 0.466857
v -0.413791 1.728315 0.469019
v -0.388606 1.730775 0.455067
v -0.40631 1.731883 0.448783
v -0.427951 1.732304 0.446395
v -0.449113 1.731936 0.448482
v -0.462996 1.7311 0.453222
v -0.47035 1.730352 0.457466
v -0.477618 1.729267 0.463622
v -0.482436 1.728107 0.470198
v -0.485643 1.72671 0.478122
v -0.486948 1.72492 0.488274
v -0.485966 1.723273 0.497614
v -0.483303 1.721965 0.505032
v -0.478593 1.720738 0.511987
v -0.472557 1.71979 0.517366
v -0.455706 1.718135 0.52675
v -0.445871 1.71743 0.530749
v -0.430155 1.716219 0.537617
v -0.421214 1.715233 0.543209
v -0.418749 1.714755 0.545919
v -0.416938 1.714156 0.549317
v -0.415955 1.713468 0.553221
v -0.415747 1.712879 0.556559
v -0.416237 1.712174 0.560557
v -0.417519 1.711578 0.563935
v -0.419726 1.711018 0.567113
v -0.423593 1.710433 0.570431
v -0.429327 1.709913 0.573382
v -0.436154 1.709608 0.575111
v -0.443698 1.709519 0.575615
v -0.461561 1.709921 0.573338
v -0.475924 1.710911 0.567722
v -0.480534 1.711388 0.565016
v -0.48071 1.707091 0.589385
v -0.4642 1.706226 0.594288
v -0.446341 1.705929 0.595974
v -0.425721 1.706339 0.593653
v -0.412086 1.707244 0.588518
v -0.406021 1.707884 0.584889
v -0.39858 1.709022 0.578432
v -0.393741 1.71021 0.571695
v -0.390594 1.71163 0.563644
v -0.389478 1.713244 0.55449
v -0.390466 1.714934 0.544902
v -0.393191 1.716293 0.537195
v -0.396541 1.717243 0.531811
v -0.427752 1.720622 0.512649
v -0.412618 1.719394 0.519609
v -0.400677 1.718005 0.527489
v -0.444429 1.721859 0.505633
v -0.454329 1.722911 0.499663
v -0.45748 1.723489 0.496386
v -0.459425 1.724078 0.493047
v -0.460554 1.72477 0.489122
v -0.460781 1.725321 0.485999
v -0.460219 1.726164 0.481217
v -0.458899 1.726791 0.477659
v -0.456652 1.72736 0.474436
v -0.45371 1.727807 0.471901
v -0.451378 1.728048 0.470529
v -0.444788 1.728458 0.468206
v -0.431719 1.728696 0.466856
v -0.613974 1.706713 0.591526
v -0.640383 1.706746 0.591342
v -0.573532 1.725658 0.484085
v -0.571535 1.726832 0.477431
v -0.57033 1.727694 0.472537
v -0.569654 1.727694 0.472541
v -0.566619 1.725613 0.484338
v -0.529444 1.706609 0.592117
v -0.500955 1.706574 0.592316
v -0.556904 1.731813 0.449181
v -0.54554 1.736385 0.423251
v -0.540456 1.737975 0.414233
v -0.535674 1.738889 0.409048
v -0.531134 1.73943 0.405979
v -0.525555 1.739793 0.403925
v -0.519297 1.739909 0.403262
v -0.51065 1.739715 0.404363
v -0.504866 1.739386 0.40623
v -0.504705 1.743322 0.383908
v -0.512206 1.7436 0.382333
v -0.521118 1.743703 0.381746
v -0.530851 1.743533 0.382714
v -0.540987 1.742904 0.38628
v -0.549962 1.74186 0.392201
v -0.573278 1.735697 0.427153
v -0.564633 1.738758 0.409791
v -0.553573 1.74128 0.395489
v -0.776346 1.728111 0.470176
v -0.776181 1.732137 0.447342
v -0.693219 1.728008 0.470757
v -0.693705 1.716128 0.538132
v -0.766434 1.716218 0.537624
v -0.766599 1.712174 0.56056
v -0.69387 1.712084 0.561068
v -0.694331 1.700782 0.625166
v -0.772831 1.700878 0.624618
v -0.772997 1.696816 0.647657
v -0.668244 1.696687 0.648388
v -0.666802 1.732002 0.448106
v -0.952543 1.716606 0.53542
v -0.980226 1.716508 0.535977
v -0.953306 1.714372 0.548094
v -0.980916 1.714279 0.548618
v -0.950968 1.710305 0.571157
v -0.977617 1.709335 0.57666
v -0.945603 1.707623 0.586365
v -0.970153 1.705971 0.595739
v -0.938055 1.705581 0.597949
v -0.957623 1.70289 0.613212
v -0.93141 1.704396 0.604669
v -0.950756 1.701711 0.619894
v -0.91664 1.702665 0.614488
v -0.929541 1.699159 0.634369
v -0.89905 1.701537 0.620882
v -0.905056 1.697573 0.643364
v -0.872853 1.701002 0.623919
v -0.874059 1.696941 0.646951
v -0.842129 1.700964 0.624134
v -0.816042 1.696869 0.647356
v -0.841017 1.72819 0.469724
v -0.8146 1.732184 0.447074
v -0.870546 1.728227 0.469518
v -0.870537 1.732253 0.446683
v -0.896392 1.727776 0.472074
v -0.902305 1.731684 0.449913
v -0.913834 1.72672 0.478061
v -0.92609 1.730223 0.458196
v -0.927371 1.725206 0.48665
v -0.946096 1.727953 0.471069
v -0.931156 1.724618 0.489984
v -0.949707 1.727403 0.474188
v -0.941361 1.722451 0.502272
v -0.965007 1.724283 0.491887
v -0.948467 1.719837 0.517097
v -0.97515 1.72064 0.512545
v -0.872853 1.700017 0.623746
v -0.842129 1.699979 0.62396
v -0.841017 1.727206 0.469551
v -0.870546 1.727242 0.469345
v -0.931156 1.723633 0.489811
v -0.927371 1.724221 0.486476
v -0.913834 1.725736 0.477887
v -0.896392 1.726791 0.471901
v -0.953306 1.713387 0.547921
v -0.952543 1.715622 0.535246
v -0.948467 1.718852 0.516923
v -0.941361 1.721467 0.502098
v -0.93141 1.703411 0.604495
v -0.938055 1.704596 0.597776
v -0.945603 1.706639 0.586191
v -0.950968 1.70932 0.570983
v -0.89905 1.700552 0.620709
v -0.91664 1.70168 0.614314
v -1.048889 1.718823 0.522851
v -1.0799 1.704182 0.605885
v -1.07036 1.697182 0.64558
v -0.991458 1.732402 0.445839
v -1.020466 1.732438 0.445636
v -1.040408 1.722803 0.50028
v -1.081704 1.70313 0.61185
v -1.083329 1.701712 0.619889
v -1.098433 1.697217 0.645383
v -1.083952 1.701713 0.619885
v -1.085536 1.703209 0.6114
v -1.087023 1.70419 0.605835
v -1.117147 1.718907 0.522374
v -1.174451 1.732627 0.444561
v -1.145442 1.732592 0.444763
v -1.125094 1.722907 0.499689
v -1.048889 1.717838 0.522677
v -1.117147 1.717922 0.522201
v -1.087023 1.703206 0.605661
v -1.083952 1.700728 0.619711
v -1.085536 1.702224 0.611227
v -1.083329 1.700727 0.619716
v -1.0799 1.703197 0.605711
v -1.081704 1.702145 0.611676
v 0.794864 1.73519 0.430026
v 0.773575 1.739828 0.403724
v 0.80694 1.712984 0.555965
v 0.32349 1.701275 0.622367
v 0.367771 1.687912 0.698151
v 0.562247 1.70525 0.599826
v 0.662687 1.712557 0.558387
v 0.649085 1.713313 0.554101
v 0.828853 1.669149 0.804565
v 0.796246 1.666282 0.820823
v 0.805169 1.650939 0.907836
v 0.714728 1.650323 0.911335
v 0.670652 1.668707 0.807071
v 0.648099 1.660755 0.852168
v 0.747964 1.649779 0.914415
v 0.637157 1.714613 0.546723
v 0.627516 1.716363 0.536801
v 0.526682 1.719606 0.518406
v 0.620836 1.718388 0.525314
v 0.617105 1.720677 0.512337
v 0.526785 1.722117 0.504166
v 0.616694 1.72311 0.498535
v 0.686119 1.712673 0.557726
v 0.704552 1.697261 0.645133
v 0.698815 1.713504 0.553017
v 0.736601 1.699329 0.633406
v 0.710236 1.714867 0.545285
v 0.766362 1.702847 0.613456
v 0.717333 1.716175 0.537867
v 0.790524 1.707552 0.586772
v 0.72458 1.718284 0.525904
v 0.728555 1.720664 0.512407
v 0.617814 1.698337 0.639029
v 0.652644 1.696785 0.647834
v 0.670344 1.696579 0.648999
v 0.274759 1.676477 0.763008
v 0.263191 1.676491 0.762927
v 0.203353 1.663005 0.839408
v 0.235811 1.677109 0.759419
v 0.196712 1.6634 0.837166
v 0.210636 1.678824 0.749693
v 0.153792 1.667144 0.815937
v 0.114724 1.672938 0.783073
v 0.684841 1.644364 0.945125
v 0.615343 1.654074 0.89006
v 0.650655 1.639353 0.973546
v 0.57679 1.649255 0.917391
v 0.615313 1.63561 0.994776
v 0.837386 1.709704 0.574563
v 0.827533 1.728819 0.466158
v 0.809073 1.729805 0.460568
v 0.760383 1.664935 0.828462
v 0.747133 1.664846 0.828966
v 0.731342 1.649957 0.913409
v 0.71391 1.665589 0.824753
v 0.681551 1.66766 0.813006
v 0.711038 1.729384 0.462954
v 0.699637 1.730798 0.454937
v 0.745461 1.743569 0.382506
v 0.686352 1.731694 0.449854
v 0.188309 1.681568 0.734134
v 0.171509 1.684879 0.715358
v 0.08541 1.680107 0.74242
v 0.158305 1.689235 0.69065
v 0.067942 1.687793 0.698832
v 0.061548 1.696074 0.651867
v 0.151791 1.69407 0.663231
v 0.151207 1.696214 0.651069
v 0.068459 1.704969 0.601419
v 0.154858 1.701086 0.623443
v 0.086875 1.712903 0.556425
v 0.164989 1.705549 0.598128
v 0.116022 1.719861 0.516962
v 0.672436 1.712396 0.559298
v 0.587265 1.701234 0.622599
v 0.280625 1.643073 0.952448
v 0.338452 1.654417 0.888112
v 0.233507 1.652657 0.898096
v 0.305909 1.661192 0.849691
v 0.283673 1.669287 0.80378
v 0.858868 1.654493 0.887683
v 0.905063 1.660057 0.856126
v 0.855718 1.673218 0.781489
v 0.914741 1.661627 0.847225
v 0.875844 1.678206 0.753201
v 0.949994 1.669372 0.803302
v 0.888332 1.683798 0.721487
v 0.720085 1.727535 0.473439
v 0.726046 1.725446 0.485289
v 0.728984 1.723113 0.498517
v 0.548464 1.631222 1.019661
v 0.529459 1.645979 0.935971
v 0.476741 1.629774 1.027869
v 0.47591 1.644841 0.94242
v 0.417183 1.630935 1.021286
v 0.426581 1.645964 0.936055
v 0.344802 1.635465 0.995597
v 0.381388 1.64905 0.918549
v 0.341004 1.654009 0.890426
v 0.973368 1.67839 0.752156
v 0.983384 1.687817 0.698695
v 0.892754 1.689777 0.687577
v 0.983869 1.690167 0.685366
v 0.891354 1.693444 0.666782
v 0.977184 1.700075 0.629174
v 0.881501 1.699629 0.631702
v 0.956757 1.709445 0.576037
v 0.863315 1.705087 0.600748
v 0.924257 1.71761 0.529727
v 0.879584 1.724326 0.491637
v 0.712216 1.74605 0.368439
v 0.678121 1.747022 0.362925
v 0.673236 1.731981 0.448227
v 0.672405 1.747048 0.362778
v 0.659356 1.731701 0.449813
v 0.637914 1.746365 0.366651
v 0.64674 1.730873 0.454511
v 0.605536 1.744276 0.378498
v 0.635623 1.729542 0.46206
v 0.576529 1.740852 0.397915
v 0.626354 1.727722 0.472383
v 0.552718 1.736245 0.424042
v 0.619857 1.725534 0.484792
v 0.535749 1.730624 0.45592
v 0.527485 1.724417 0.491126
v 0.374047 1.724665 0.489716
v 0.370677 1.726385 0.479961
v 0.328442 1.715348 0.542554
v 0.364815 1.727996 0.470828
v 0.374991 1.723058 0.498834
v 0.329848 1.715329 0.542664
v 0.374651 1.722157 0.503942
v 0.339285 1.715493 0.541733
v 0.349362 1.716088 0.538358
v 0.181042 1.709448 0.576018
v 0.183202 1.709844 0.573769
v 0.155415 1.725575 0.484556
v 0.204746 1.712842 0.556771
v 0.199669 1.729278 0.463553
v 0.230372 1.714853 0.545366
v 0.248065 1.730998 0.453802
v 0.256115 1.715671 0.540725
v 0.333376 1.730893 0.454398
v 0.321183 1.715591 0.54118
v 0.336694 1.73083 0.454755
v 0.324111 1.715521 0.541578
v 0.34642 1.730369 0.457369
v 0.356514 1.729381 0.462973
v 0.358502 1.717101 0.532614
v 0.366254 1.718519 0.524572
v 0.371798 1.720243 0.514794
v 0.672436 1.711411 0.559124
v 0.662687 1.711572 0.558214
v 0.649085 1.712328 0.553928
v 0.637157 1.713629 0.546549
v 0.627516 1.715378 0.536627
v 0.620836 1.717404 0.52514
v 0.617105 1.719692 0.512164
v 0.616694 1.722125 0.498361
v 0.619857 1.724549 0.484618
v 0.626354 1.726737 0.47221
v 0.635623 1.728557 0.461887
v 0.64674 1.729888 0.454338
v 0.659356 1.730717 0.449639
v 0.673236 1.730996 0.448053
v 0.686352 1.730709 0.44968
v 0.699637 1.729813 0.454763
v 0.711038 1.728399 0.46278
v 0.720085 1.726551 0.473265
v 0.726046 1.724461 0.485116
v 0.728984 1.722129 0.498343
v 0.728555 1.719679 0.512234
v 0.72458 1.717299 0.525731
v 0.717333 1.71519 0.537693
v 0.710236 1.713882 0.545111
v 0.698815 1.712519 0.552844
v 0.686119 1.711689 0.557552
usemtl 1
f 1// 2// 3//
f 4// 5// 6//
f 7// 8// 9//
f 10// 11// 12//
f 13// 14// 15//
f 16// 17// 18//
f 19// 20// 21//
f 22// 23// 24//
f 24// 23// 25//
f 25// 23// 26//
f 25// 26// 27//
f 28// 29// 30//
f 31// 30// 32//
f 32// 30// 29//
f 32// 29// 33//
f 30// 34// 28//
f 28// 34// 35//
f 28// 35// 36//
f 37// 38// 39//
f 20// 40// 41//
f 41// 40// 39//
f 41// 39// 42//
f 42// 39// 38//
f 42// 38// 43//
f 44// 45// 46//
f 46// 45// 47//
f 39// 48// 37//
f 37// 48// 49//
f 37// 49// 50//
f 51// 52// 53//
f 44// 46// 43//
f 43// 46// 54//
f 43// 54// 42//
f 42// 54// 55//
f 42// 55// 56//
f 56// 55// 57//
f 56// 57// 58//
f 59// 60// 61//
f 61// 60// 62//
f 61// 62// 63//
f 63// 62// 51//
f 63// 51// 64//
f 64// 51// 53//
f 65// 66// 6//
f 6// 66// 67//
f 67// 66// 68//
f 67// 68// 69//
f 70// 71// 72//
f 73// 74// 75//
f 73// 75// 76//
f 77// 78// 79//
f 79// 78// 80//
f 79// 80// 81//
f 81// 82// 79//
f 79// 82// 83//
f 79// 83// 73//
f 73// 83// 84//
f 73// 84// 74//
f 85// 86// 87//
f 87// 86// 76//
f 87// 76// 88//
f 88// 76// 75//
f 89// 90// 86//
f 85// 91// 86//
f 86// 91// 92//
f 86// 92// 89//
f 90// 93// 86//
f 86// 93// 94//
f 86// 94// 95//
f 95// 94// 96//
f 96// 97// 95//
f 95// 97// 98//
f 95// 98// 99//
f 100// 101// 102//
f 98// 103// 99//
f 99// 103// 104//
f 99// 104// 105//
f 105// 104// 106//
f 102// 101// 107//
f 107// 101// 108//
f 107// 108// 109//
f 106// 110// 105//
f 105// 110// 111//
f 105// 111// 112//
f 113// 114// 115//
f 114// 70// 115//
f 115// 70// 72//
f 115// 72// 5//
f 5// 72// 116//
f 5// 116// 6//
f 6// 116// 117//
f 6// 117// 65//
f 112// 100// 105//
f 105// 100// 102//
f 105// 102// 118//
f 118// 102// 119//
f 119// 120// 118//
f 118// 120// 121//
f 118// 121// 115//
f 115// 121// 122//
f 115// 122// 113//
f 16// 18// 123//
f 123// 18// 124//
f 123// 124// 125//
f 125// 124// 126//
f 125// 126// 127//
f 127// 126// 128//
f 127// 128// 129//
f 129// 128// 32//
f 129// 32// 130//
f 14// 13// 131//
f 131// 13// 132//
f 131// 132// 133//
f 134// 135// 136//
f 137// 138// 134//
f 134// 138// 139//
f 134// 139// 140//
f 137// 141// 138//
f 138// 141// 142//
f 138// 142// 143//
f 143// 142// 144//
f 143// 144// 145//
f 140// 146// 134//
f 134// 146// 147//
f 134// 147// 148//
f 136// 149// 134//
f 134// 149// 150//
f 134// 150// 151//
f 148// 152// 134//
f 134// 152// 153//
f 134// 153// 135//
f 154// 155// 156//
f 157// 158// 12//
f 12// 158// 159//
f 12// 159// 160//
f 160// 161// 12//
f 12// 161// 162//
f 12// 162// 10//
f 163// 6// 164//
f 164// 6// 67//
f 164// 67// 165//
f 165// 67// 166//
f 167// 168// 169//
f 169// 168// 170//
f 169// 170// 171//
f 171// 172// 169//
f 169// 172// 173//
f 169// 173// 166//
f 174// 175// 176//
f 176// 175// 177//
f 178// 179// 180//
f 180// 179// 181//
f 180// 181// 182//
f 182// 181// 183//
f 182// 183// 184//
f 185// 186// 187//
f 188// 189// 190//
f 191// 192// 189//
f 189// 192// 186//
f 189// 186// 190//
f 190// 186// 185//
f 193// 194// 195//
f 195// 194// 196//
f 190// 197// 188//
f 188// 197// 198//
f 188// 198// 199//
f 200// 180// 201//
f 131// 202// 187//
f 187// 202// 203//
f 187// 203// 185//
f 193// 195// 191//
f 191// 195// 204//
f 191// 204// 192//
f 192// 204// 205//
f 192// 205// 201//
f 201// 205// 206//
f 201// 206// 200//
f 151// 207// 134//
f 134// 207// 208//
f 134// 208// 209//
f 209// 208// 178//
f 209// 178// 133//
f 133// 178// 180//
f 133// 180// 131//
f 131// 180// 200//
f 131// 200// 202//
f 210// 211// 212//
f 213// 214// 215//
f 216// 217// 41//
f 20// 41// 21//
f 21// 41// 217//
f 21// 217// 218//
f 41// 219// 216//
f 216// 219// 220//
f 216// 220// 221//
f 222// 220// 223//
f 223// 220// 219//
f 223// 219// 224//
f 224// 219// 41//
f 224// 41// 225//
f 225// 41// 25//
f 225// 25// 226//
f 226// 25// 227//
f 226// 227// 212//
f 212// 227// 228//
f 212// 228// 210//
f 229// 230// 176//
f 231// 232// 233//
f 234// 235// 236//
f 236// 235// 237//
f 236// 237// 233//
f 233// 237// 238//
f 233// 238// 231//
f 239// 240// 241//
f 241// 240// 242//
f 241// 242// 243//
f 243// 242// 244//
f 243// 244// 233//
f 245// 9// 246//
f 246// 9// 8//
f 246// 8// 247//
f 248// 249// 9//
f 250// 251// 252//
f 253// 254// 9//
f 9// 254// 255//
f 230// 256// 176//
f 176// 256// 257//
f 176// 257// 252//
f 252// 257// 258//
f 252// 258// 250//
f 251// 259// 252//
f 252// 259// 260//
f 252// 260// 261//
f 261// 260// 262//
f 261// 262// 248//
f 263// 264// 249//
f 249// 264// 265//
f 249// 265// 9//
f 9// 265// 266//
f 9// 266// 253//
f 255// 267// 9//
f 9// 267// 268//
f 9// 268// 7//
f 269// 270// 271//
f 271// 270// 272//
f 271// 272// 273//
f 271// 274// 269//
f 269// 274// 275//
f 269// 275// 276//
f 276// 277// 269//
f 269// 277// 278//
f 269// 278// 279//
f 279// 278// 280//
f 279// 280// 281//
f 281// 280// 282//
f 281// 282// 249//
f 249// 282// 283//
f 249// 283// 263//
f 284// 285// 273//
f 273// 285// 286//
f 273// 286// 271//
f 287// 288// 234//
f 234// 288// 289//
f 234// 289// 235//
f 287// 290// 288//
f 288// 290// 291//
f 288// 291// 292//
f 292// 291// 293//
f 292// 294// 295//
f 293// 296// 292//
f 292// 296// 297//
f 292// 297// 298//
f 298// 299// 292//
f 292// 299// 300//
f 292// 300// 294//
f 295// 301// 292//
f 292// 301// 302//
f 292// 302// 303//
f 304// 305// 9//
f 9// 305// 306//
f 248// 9// 261//
f 261// 9// 306//
f 261// 306// 60//
f 60// 306// 307//
f 60// 307// 62//
f 308// 305// 309//
f 309// 305// 304//
f 309// 304// 310//
f 245// 311// 9//
f 9// 311// 312//
f 9// 312// 304//
f 304// 312// 313//
f 304// 313// 310//
f 314// 315// 316//
f 316// 315// 317//
f 316// 317// 318//
f 318// 317// 311//
f 318// 311// 319//
f 319// 311// 245//
f 319// 245// 320//
f 321// 322// 323//
f 323// 322// 324//
f 323// 324// 325//
f 325// 324// 326//
f 327// 328// 329//
f 328// 330// 329//
f 329// 330// 331//
f 329// 331// 323//
f 323// 331// 332//
f 323// 332// 321//
f 333// 334// 335//
f 336// 337// 70//
f 70// 337// 338//
f 114// 339// 70//
f 70// 339// 340//
f 70// 340// 341//
f 341// 342// 70//
f 70// 342// 343//
f 70// 343// 336//
f 344// 345// 346//
f 347// 348// 349//
f 350// 351// 352//
f 352// 351// 353//
f 354// 355// 356//
f 356// 355// 357//
f 358// 359// 351//
f 351// 359// 360//
f 351// 360// 361//
f 362// 363// 364//
f 364// 363// 365//
f 364// 365// 366//
f 367// 368// 369//
f 369// 368// 370//
f 371// 361// 372//
f 372// 361// 373//
f 372// 373// 364//
f 364// 373// 374//
f 364// 374// 362//
f 375// 376// 377//
f 377// 376// 378//
f 377// 378// 379//
f 349// 348// 377//
f 377// 348// 380//
f 377// 380// 375//
f 370// 381// 369//
f 369// 381// 382//
f 369// 382// 383//
f 371// 384// 361//
f 361// 384// 385//
f 361// 385// 351//
f 351// 385// 386//
f 351// 386// 353//
f 379// 387// 377//
f 377// 387// 388//
f 377// 388// 356//
f 356// 388// 389//
f 356// 389// 354//
f 390// 391// 392//
f 392// 391// 393//
f 392// 393// 369//
f 369// 393// 394//
f 369// 394// 367//
f 357// 395// 356//
f 356// 395// 396//
f 356// 396// 397//
f 397// 396// 390//
f 397// 390// 398//
f 398// 390// 392//
f 399// 400// 369//
f 369// 400// 401//
f 369// 401// 351//
f 351// 401// 402//
f 351// 402// 358//
f 383// 403// 369//
f 369// 403// 404//
f 369// 404// 405//
f 405// 406// 369//
f 369// 406// 407//
f 369// 407// 399//
f 408// 409// 410//
f 410// 361// 408//
f 408// 361// 360//
f 408// 360// 411//
f 411// 360// 412//
f 412// 413// 411//
f 411// 413// 414//
f 411// 414// 415//
f 416// 417// 418//
f 417// 419// 418//
f 418// 419// 420//
f 418// 420// 421//
f 422// 418// 423//
f 409// 408// 422//
f 422// 408// 424//
f 422// 424// 418//
f 418// 424// 425//
f 418// 425// 416//
f 423// 426// 422//
f 422// 426// 427//
f 422// 427// 428//
f 421// 420// 429//
f 429// 420// 430//
f 429// 430// 431//
f 431// 430// 432//
f 431// 432// 433//
f 434// 435// 428//
f 428// 435// 436//
f 428// 436// 422//
f 337// 437// 338//
f 338// 437// 438//
f 338// 438// 349//
f 349// 438// 439//
f 349// 439// 347//
f 71// 70// 69//
f 69// 70// 338//
f 69// 338// 67//
f 67// 338// 349//
f 67// 349// 440//
f 441// 440// 442//
f 442// 440// 443//
f 444// 445// 446//
f 447// 448// 441//
f 441// 448// 449//
f 443// 440// 450//
f 450// 440// 349//
f 450// 349// 449//
f 449// 349// 377//
f 449// 377// 441//
f 446// 447// 444//
f 444// 447// 441//
f 444// 441// 451//
f 451// 441// 442//
f 451// 442// 452//
f 452// 442// 453//
f 163// 157// 6//
f 6// 157// 12//
f 6// 12// 4//
f 4// 12// 11//
f 4// 11// 156//
f 156// 11// 454//
f 156// 454// 154//
f 166// 67// 169//
f 169// 67// 440//
f 169// 440// 455//
f 455// 440// 441//
f 455// 441// 456//
f 457// 458// 459//
f 459// 458// 460//
f 176// 461// 462//
f 463// 464// 176//
f 176// 464// 465//
f 176// 465// 461//
f 466// 467// 456//
f 456// 468// 469//
f 470// 455// 471//
f 471// 455// 472//
f 167// 169// 177//
f 177// 169// 455//
f 177// 455// 176//
f 176// 455// 470//
f 176// 470// 463//
f 473// 474// 3//
f 3// 474// 475//
f 457// 476// 458//
f 458// 476// 477//
f 458// 477// 478//
f 478// 477// 479//
f 478// 479// 480//
f 462// 481// 176//
f 176// 481// 482//
f 176// 482// 483//
f 475// 484// 3//
f 3// 484// 485//
f 3// 485// 1//
f 232// 229// 233//
f 233// 229// 176//
f 233// 176// 243//
f 243// 176// 483//
f 243// 483// 486//
f 467// 487// 456//
f 456// 487// 488//
f 456// 488// 468//
f 489// 490// 479//
f 479// 490// 491//
f 469// 492// 456//
f 456// 492// 493//
f 456// 493// 455//
f 455// 493// 460//
f 455// 460// 472//
f 472// 460// 458//
f 491// 494// 479//
f 479// 494// 495//
f 479// 495// 496//
f 496// 497// 479//
f 479// 497// 498//
f 479// 498// 480//
f 486// 3// 243//
f 243// 3// 2//
f 243// 2// 456//
f 456// 2// 499//
f 456// 499// 466//
f 356// 344// 377//
f 377// 344// 346//
f 377// 346// 441//
f 441// 346// 500//
f 441// 500// 456//
f 456// 500// 501//
f 456// 501// 243//
f 243// 501// 502//
f 243// 502// 241//
f 241// 502// 246//
f 241// 246// 239//
f 239// 246// 247//
f 345// 77// 346//
f 346// 77// 79//
f 346// 79// 500//
f 500// 79// 503//
f 500// 503// 501//
f 501// 503// 504//
f 501// 504// 502//
f 502// 504// 505//
f 502// 505// 246//
f 246// 505// 506//
f 246// 506// 245//
f 245// 506// 325//
f 245// 325// 320//
f 320// 325// 326//
f 184// 174// 182//
f 182// 174// 176//
f 182// 176// 180//
f 180// 176// 252//
f 180// 252// 201//
f 201// 252// 261//
f 201// 261// 192//
f 192// 261// 60//
f 192// 60// 213//
f 507// 508// 213//
f 507// 213// 509//
f 510// 511// 512//
f 512// 511// 513//
f 508// 514// 213//
f 213// 514// 515//
f 213// 515// 516//
f 186// 517// 512//
f 512// 517// 518//
f 512// 518// 519//
f 516// 520// 213//
f 213// 520// 521//
f 213// 521// 192//
f 192// 521// 522//
f 192// 522// 186//
f 186// 522// 523//
f 186// 523// 517//
f 519// 524// 512//
f 512// 524// 525//
f 512// 525// 510//
f 211// 210// 215//
f 215// 210// 512//
f 215// 512// 213//
f 213// 512// 513//
f 213// 513// 509//
f 155// 15// 156//
f 156// 15// 14//
f 156// 14// 526//
f 526// 14// 131//
f 526// 131// 527//
f 527// 131// 187//
f 527// 187// 528//
f 528// 187// 186//
f 528// 186// 529//
f 529// 186// 512//
f 529// 512// 530//
f 530// 512// 210//
f 530// 210// 531//
f 531// 210// 228//
f 532// 533// 24//
f 533// 534// 24//
f 24// 534// 535//
f 24// 535// 536//
f 536// 537// 24//
f 24// 537// 538//
f 24// 538// 42//
f 42// 538// 539//
f 42// 539// 41//
f 539// 540// 41//
f 41// 540// 541//
f 41// 541// 25//
f 25// 541// 542//
f 25// 542// 543//
f 543// 544// 25//
f 25// 544// 545//
f 25// 545// 546//
f 546// 547// 25//
f 25// 547// 548//
f 25// 548// 24//
f 24// 548// 549//
f 24// 549// 532//
f 29// 22// 33//
f 33// 22// 24//
f 33// 24// 550//
f 550// 24// 42//
f 550// 42// 335//
f 335// 42// 56//
f 335// 56// 333//
f 333// 56// 58//
f 333// 58// 59//
f 59// 58// 19//
f 59// 19// 60//
f 60// 19// 21//
f 60// 21// 213//
f 213// 21// 218//
f 213// 218// 214//
f 31// 32// 551//
f 551// 32// 128//
f 551// 128// 27//
f 27// 128// 126//
f 27// 126// 25//
f 25// 126// 124//
f 25// 124// 227//
f 227// 124// 18//
f 227// 18// 228//
f 228// 18// 17//
f 228// 17// 531//
f 334// 327// 335//
f 335// 327// 329//
f 335// 329// 550//
f 550// 329// 552//
f 550// 552// 33//
f 33// 552// 553//
f 33// 553// 32//
f 32// 553// 554//
f 32// 554// 130//
f 130// 554// 555//
f 73// 556// 79//
f 79// 556// 557//
f 79// 557// 503//
f 503// 557// 558//
f 503// 558// 504//
f 504// 558// 559//
f 504// 559// 505//
f 505// 559// 560//
f 505// 560// 506//
f 506// 560// 561//
f 506// 561// 325//
f 325// 561// 562//
f 325// 562// 323//
f 323// 562// 563//
f 323// 563// 329//
f 329// 563// 564//
f 329// 564// 552//
f 552// 564// 565//
f 552// 565// 553//
f 553// 565// 566//
f 553// 566// 554//
f 554// 566// 567//
f 554// 567// 555//
f 555// 567// 568//
f 569// 570// 571//
f 571// 570// 572//
f 571// 572// 573//
f 573// 572// 574//
f 573// 574// 575//
f 575// 574// 556//
f 576// 568// 577//
f 577// 568// 578//
f 577// 578// 579//
f 579// 578// 580//
f 579// 580// 581//
f 581// 580// 582//
f 583// 572// 570//
f 582// 580// 584//
f 585// 586// 584//
f 584// 586// 583//
f 584// 583// 582//
f 582// 583// 570//
f 587// 588// 589//
f 578// 568// 567//
f 587// 589// 590//
f 556// 574// 557//
f 557// 574// 590//
f 557// 590// 558//
f 578// 567// 589//
f 589// 567// 566//
f 589// 566// 565//
f 565// 564// 589//
f 589// 564// 563//
f 589// 563// 562//
f 562// 561// 589//
f 589// 561// 560//
f 589// 560// 590//
f 590// 560// 559//
f 590// 559// 558//
f 585// 588// 586//
f 586// 588// 587//
f 575// 556// 591//
f 591// 118// 575//
f 575// 118// 592//
f 575// 592// 569//
f 569// 592// 570//
f 582// 593// 581//
f 581// 593// 16//
f 581// 16// 576//
f 576// 16// 594//
f 576// 594// 568//
f 592// 593// 570//
f 570// 593// 582//
f 16// 593// 528//
f 528// 593// 592//
f 528// 592// 118//
f 589// 588// 584//
f 584// 588// 585//
f 589// 584// 578//
f 578// 584// 580//
f 590// 583// 587//
f 587// 583// 586//
f 574// 572// 590//
f 590// 572// 583//
usemtl 2
f 595// 596// 576//
f 576// 596// 581//
f 597// 598// 599//
f 599// 598// 600//
f 601// 597// 602//
f 602// 597// 599//
f 603// 601// 604//
f 604// 601// 602//
f 603// 604// 605//
f 603// 605// 606//
f 606// 605// 607//
f 606// 607// 608//
f 608// 607// 609//
f 608// 609// 610//
f 610// 609// 611//
f 610// 611// 612//
f 612// 611// 613//
f 612// 613// 614//
f 614// 613// 615//
f 614// 615// 616//
f 617// 616// 618//
f 618// 616// 615//
f 617// 618// 619//
f 617// 619// 620//
f 620// 619// 621//
f 620// 621// 622//
f 622// 621// 623//
f 622// 623// 624//
f 624// 623// 625//
f 624// 625// 626//
f 626// 625// 627//
f 626// 627// 628//
f 628// 627// 596//
f 628// 596// 595//
f 629// 630// 579//
f 579// 630// 577//
f 630// 629// 631//
f 631// 629// 632//
f 631// 632// 633//
f 633// 632// 634//
f 633// 634// 635//
f 635// 634// 636//
f 635// 636// 637//
f 637// 636// 638//
f 637// 638// 639//
f 639// 638// 640//
f 639// 640// 641//
f 641// 640// 642//
f 643// 641// 644//
f 644// 641// 642//
f 643// 644// 645//
f 645// 644// 646//
f 645// 646// 647//
f 647// 646// 648//
f 647// 648// 649//
f 649// 648// 650//
f 649// 650// 651//
f 651// 650// 652//
f 651// 652// 653//
f 653// 652// 654//
f 653// 654// 598//
f 598// 654// 600//
f 597// 601// 598//
f 598// 601// 603//
f 598// 603// 653//
f 653// 603// 606//
f 653// 606// 651//
f 651// 606// 608//
f 651// 608// 649//
f 649// 608// 610//
f 649// 610// 647//
f 647// 610// 612//
f 647// 612// 645//
f 645// 612// 614//
f 645// 614// 643//
f 643// 614// 616//
f 643// 616// 641//
f 641// 616// 617//
f 641// 617// 639//
f 639// 617// 620//
f 639// 620// 637//
f 637// 620// 622//
f 637// 622// 635//
f 635// 622// 624//
f 635// 624// 633//
f 633// 624// 626//
f 633// 626// 631//
f 631// 626// 628//
f 631// 628// 630//
f 630// 628// 595//
f 630// 595// 577//
f 577// 595// 576//
f 579// 581// 629//
f 629// 581// 596//
f 629// 596// 632//
f 632// 596// 627//
f 632// 627// 634//
f 634// 627// 625//
f 634// 625// 636//
f 636// 625// 623//
f 636// 623// 638//
f 638// 623// 621//
f 638// 621// 640//
f 640// 621// 619//
f 640// 619// 642//
f 642// 619// 618//
f 642// 618// 644//
f 644// 618// 615//
f 644// 615// 646//
f 646// 615// 613//
f 646// 613// 648//
f 648// 613// 611//
f 648// 611// 650//
f 650// 611// 609//
f 650// 609// 652//
f 652// 609// 607//
f 652// 607// 654//
f 654// 607// 605//
f 654// 605// 600//
f 600// 605// 604//
f 600// 604// 599//
f 599// 604// 602//
f 569// 655// 575//
f 575// 655// 656//
f 657// 658// 659//
f 659// 658// 660//
f 657// 659// 661//
f 661// 659// 662//
f 661// 662// 663//
f 663// 662// 664//
f 663// 664// 665//
f 665// 664// 666//
f 665// 666// 667//
f 667// 666// 668//
f 667// 668// 669//
f 669// 668// 670//
f 669// 670// 671//
f 671// 670// 672//
f 673// 671// 674//
f 674// 671// 672//
f 673// 674// 675//
f 675// 674// 676//
f 675// 676// 677//
f 677// 676// 678//
f 677// 678// 679//
f 679// 678// 680//
f 679// 680// 681//
f 681// 680// 682//
f 681// 682// 683//
f 683// 682// 684//
f 683// 684// 685//
f 685// 684// 686//
f 573// 685// 571//
f 571// 685// 686//
f 656// 655// 687//
f 656// 687// 688//
f 688// 687// 689//
f 688// 689// 690//
f 690// 689// 691//
f 690// 691// 692//
f 692// 691// 693//
f 692// 693// 694//
f 694// 693// 695//
f 694// 695// 696//
f 696// 695// 697//
f 696// 697// 698//
f 699// 698// 700//
f 700// 698// 697//
f 699// 700// 701//
f 699// 701// 702//
f 702// 701// 703//
f 702// 703// 704//
f 704// 703// 705//
f 704// 705// 706//
f 706// 705// 707//
f 706// 707// 708//
f 708// 707// 709//
f 708// 709// 710//
f 710// 709// 711//
f 710// 711// 712//
f 713// 712// 714//
f 714// 712// 711//
f 658// 713// 660//
f 660// 713// 714//
f 573// 575// 685//
f 685// 575// 656//
f 685// 656// 683//
f 683// 656// 688//
f 683// 688// 681//
f 681// 688// 690//
f 681// 690// 679//
f 679// 690// 692//
f 679// 692// 677//
f 677// 692// 694//
f 677// 694// 675//
f 675// 694// 696//
f 675// 696// 673//
f 673// 696// 698//
f 673// 698// 671//
f 671// 698// 699//
f 671// 699// 669//
f 669// 699// 702//
f 669// 702// 667//
f 667// 702// 704//
f 667// 704// 665//
f 665// 704// 706//
f 665// 706// 663//
f 663// 706// 708//
f 663// 708// 661//
f 661// 708// 710//
f 661// 710// 657//
f 657// 710// 712//
f 657// 712// 658//
f 658// 712// 713//
f 660// 714// 659//
f 659// 714// 711//
f 659// 711// 662//
f 662// 711// 709//
f 662// 709// 664//
f 664// 709// 707//
f 664// 707// 666//
f 666// 707// 705//
f 666// 705// 668//
f 668// 705// 703//
f 668// 703// 670//
f 670// 703// 701//
f 670// 701// 672//
f 672// 701// 700//
f 672// 700// 674//
f 674// 700// 697//
f 674// 697// 676//
f 676// 697// 695//
f 676// 695// 678//
f 678// 695// 693//
f 678// 693// 680//
f 680// 693// 691//
f 680// 691// 682//
f 682// 691// 689//
f 682// 689// 684//
f 684// 689// 687//
f 684// 687// 686//
f 686// 687// 655//
f 686// 655// 571//
f 571// 655// 569//
usemtl 3
f 715// 716// 66//
f 66// 716// 68//
f 717// 715// 65//
f 65// 715// 66//
f 717// 65// 718//
f 718// 65// 117//
f 718// 117// 116//
f 719// 718// 72//
f 72// 718// 116//
f 69// 720// 71//
f 71// 720// 719//
f 71// 719// 72//
f 716// 720// 68//
f 68// 720// 69//
f 718// 719// 717//
f 717// 719// 720//
f 717// 720// 715//
f 715// 720// 716//
f 179// 721// 722//
f 723// 175// 174//
f 723// 174// 724//
f 174// 184// 724//
f 724// 184// 183//
f 724// 183// 722//
f 722// 183// 181//
f 722// 181// 179//
f 725// 721// 178//
f 178// 721// 179//
f 725// 178// 208//
f 725// 208// 726//
f 208// 207// 726//
f 726// 207// 151//
f 726// 151// 727//
f 727// 151// 150//
f 727// 150// 728//
f 728// 150// 149//
f 728// 149// 729//
f 729// 149// 136//
f 729// 136// 730//
f 730// 136// 135//
f 730// 135// 731//
f 731// 135// 153//
f 731// 153// 732//
f 732// 153// 152//
f 732// 152// 733//
f 733// 152// 148//
f 733// 148// 734//
f 734// 148// 147//
f 734// 147// 735//
f 735// 147// 146//
f 735// 146// 736//
f 736// 146// 140//
f 736// 140// 737//
f 737// 140// 139//
f 737// 139// 738//
f 738// 139// 138//
f 738// 138// 739//
f 739// 138// 143//
f 739// 143// 740//
f 740// 143// 145//
f 740// 145// 741//
f 741// 145// 144//
f 741// 144// 742//
f 742// 144// 142//
f 742// 142// 743//
f 743// 142// 141//
f 743// 141// 744//
f 133// 745// 746//
f 744// 141// 137//
f 744// 137// 747//
f 747// 137// 134//
f 747// 134// 746//
f 746// 134// 209//
f 746// 209// 133//
f 748// 745// 132//
f 132// 745// 133//
f 15// 749// 13//
f 13// 749// 748//
f 13// 748// 132//
f 15// 155// 749//
f 749// 155// 154//
f 749// 154// 750//
f 750// 154// 454//
f 750// 454// 751//
f 752// 751// 11//
f 11// 751// 454//
f 11// 10// 752//
f 752// 10// 162//
f 752// 162// 753//
f 753// 162// 161//
f 753// 161// 754//
f 754// 161// 160//
f 754// 160// 755//
f 755// 160// 159//
f 755// 159// 756//
f 756// 159// 158//
f 756// 158// 757//
f 158// 157// 757//
f 757// 157// 163//
f 757// 163// 758//
f 758// 163// 164//
f 758// 164// 759//
f 759// 164// 165//
f 759// 165// 760//
f 760// 165// 166//
f 760// 166// 761//
f 166// 173// 761//
f 761// 173// 172//
f 761// 172// 762//
f 762// 172// 171//
f 762// 171// 763//
f 175// 723// 177//
f 177// 723// 764//
f 177// 764// 167//
f 167// 764// 765//
f 167// 765// 168//
f 168// 765// 766//
f 168// 766// 170//
f 170// 766// 763//
f 170// 763// 171//
f 746// 745// 748//
f 737// 738// 756//
f 746// 748// 747//
f 747// 748// 749//
f 747// 749// 744//
f 744// 749// 750//
f 744// 750// 743//
f 743// 750// 751//
f 743// 751// 742//
f 742// 751// 752//
f 742// 752// 741//
f 721// 725// 722//
f 722// 725// 726//
f 722// 726// 724//
f 724// 726// 727//
f 724// 727// 723//
f 723// 727// 728//
f 723// 728// 764//
f 764// 728// 729//
f 764// 729// 765//
f 765// 729// 730//
f 765// 730// 766//
f 766// 730// 731//
f 766// 731// 763//
f 763// 731// 732//
f 763// 732// 762//
f 762// 732// 733//
f 762// 733// 761//
f 756// 738// 755//
f 752// 753// 741//
f 741// 753// 754//
f 741// 754// 740//
f 740// 754// 755//
f 740// 755// 739//
f 739// 755// 738//
f 759// 736// 758//
f 758// 736// 737//
f 758// 737// 757//
f 757// 737// 756//
f 761// 733// 760//
f 760// 733// 734//
f 760// 734// 759//
f 759// 734// 735//
f 759// 735// 736//
f 767// 768// 204//
f 204// 768// 205//
f 196// 769// 195//
f 195// 769// 767//
f 195// 767// 204//
f 770// 769// 194//
f 194// 769// 196//
f 191// 771// 193//
f 193// 771// 770//
f 193// 770// 194//
f 772// 771// 189//
f 189// 771// 191//
f 199// 773// 188//
f 188// 773// 772//
f 188// 772// 189//
f 774// 773// 198//
f 198// 773// 199//
f 190// 775// 197//
f 197// 775// 774//
f 197// 774// 198//
f 776// 775// 185//
f 185// 775// 190//
f 202// 777// 203//
f 203// 777// 776//
f 203// 776// 185//
f 778// 777// 200//
f 200// 777// 202//
f 205// 768// 206//
f 206// 768// 778//
f 206// 778// 200//
f 775// 776// 774//
f 774// 776// 777//
f 774// 777// 773//
f 768// 767// 778//
f 778// 767// 769//
f 778// 769// 770//
f 771// 772// 770//
f 770// 772// 773//
f 770// 773// 778//
f 778// 773// 777//
f 779// 780// 781//
f 781// 780// 782//
f 781// 782// 783//
f 783// 782// 784//
f 783// 784// 785//
f 785// 784// 786//
f 785// 786// 787//
f 787// 786// 788//
f 787// 788// 789//
f 789// 788// 790//
f 789// 790// 791//
f 791// 790// 792//
f 791// 792// 793//
f 793// 792// 794//
f 793// 794// 795//
f 795// 794// 796//
f 795// 796// 797//
f 797// 796// 798//
f 797// 798// 799//
f 799// 798// 800//
f 799// 800// 801//
f 801// 800// 802//
f 801// 802// 803//
f 803// 802// 804//
f 803// 804// 805//
f 805// 804// 806//
f 805// 806// 807//
f 807// 806// 808//
f 807// 808// 809//
f 809// 808// 810//
f 809// 810// 811//
f 811// 810// 812//
f 811// 812// 813//
f 813// 812// 814//
f 813// 814// 779//
f 779// 814// 780//
f 802// 800// 521//
f 521// 800// 522//
f 802// 521// 520//
f 802// 520// 804//
f 804// 520// 516//
f 804// 516// 806//
f 806// 516// 515//
f 806// 515// 808//
f 808// 515// 514//
f 808// 514// 810//
f 810// 514// 508//
f 810// 508// 812//
f 812// 508// 507//
f 812// 507// 814//
f 814// 507// 509//
f 814// 509// 780//
f 780// 509// 513//
f 780// 513// 782//
f 782// 513// 511//
f 782// 511// 784//
f 784// 511// 510//
f 784// 510// 786//
f 786// 510// 525//
f 786// 525// 788//
f 788// 525// 524//
f 788// 524// 790//
f 790// 524// 519//
f 790// 519// 792//
f 792// 519// 518//
f 792// 518// 794//
f 794// 518// 517//
f 794// 517// 796//
f 798// 796// 523//
f 523// 796// 517//
f 800// 798// 522//
f 522// 798// 523//
f 795// 797// 815//
f 815// 797// 816//
f 797// 799// 816//
f 816// 799// 817//
f 799// 801// 817//
f 817// 801// 818//
f 809// 819// 820//
f 809// 820// 807//
f 807// 820// 821//
f 807// 821// 805//
f 805// 821// 822//
f 805// 822// 803//
f 803// 822// 818//
f 803// 818// 801//
f 781// 823// 824//
f 781// 824// 779//
f 779// 824// 825//
f 779// 825// 813//
f 813// 825// 826//
f 813// 826// 811//
f 811// 826// 819//
f 811// 819// 809//
f 789// 827// 828//
f 789// 828// 787//
f 787// 828// 829//
f 787// 829// 785//
f 785// 829// 830//
f 785// 830// 783//
f 783// 830// 823//
f 783// 823// 781//
f 795// 815// 831//
f 795// 831// 793//
f 793// 831// 832//
f 793// 832// 791//
f 791// 832// 827//
f 791// 827// 789//
usemtl 1
f 816// 817// 815//
f 815// 817// 818//
f 815// 818// 822//
f 822// 821// 815//
f 815// 821// 820//
f 815// 820// 819//
f 819// 826// 815//
f 815// 826// 825//
f 815// 825// 824//
f 824// 823// 815//
f 815// 823// 830//
f 815// 830// 829//
f 829// 828// 815//
f 815// 828// 827//
f 815// 827// 831//
f 831// 827// 832//
usemtl 3
f 833// 834// 835//
f 836// 837// 838//
f 834// 839// 835//
f 835// 839// 840//
f 835// 840// 841//
f 841// 840// 842//
f 841// 842// 843//
f 843// 844// 841//
f 841// 844// 845//
f 841// 845// 846//
f 847// 846// 848//
f 848// 846// 845//
f 848// 845// 838//
f 838// 845// 833//
f 838// 833// 836//
f 836// 833// 835//
f 212// 841// 226//
f 226// 841// 846//
f 226// 846// 225//
f 835// 841// 211//
f 211// 841// 212//
f 214// 218// 836//
f 214// 836// 215//
f 215// 836// 835//
f 215// 835// 211//
f 837// 836// 217//
f 217// 836// 218//
f 221// 838// 216//
f 216// 838// 837//
f 216// 837// 217//
f 222// 848// 220//
f 220// 848// 838//
f 220// 838// 221//
f 848// 222// 847//
f 847// 222// 223//
f 847// 223// 224//
f 846// 847// 225//
f 225// 847// 224//
f 833// 845// 849//
f 849// 845// 850//
f 845// 844// 850//
f 850// 844// 851//
f 842// 852// 853//
f 842// 853// 843//
f 843// 853// 851//
f 843// 851// 844//
f 842// 840// 852//
f 852// 840// 854//
f 834// 855// 856//
f 834// 856// 839//
f 839// 856// 854//
f 839// 854// 840//
f 834// 833// 855//
f 855// 833// 849//
usemtl 1
f 852// 854// 853//
f 853// 854// 856//
f 853// 856// 851//
f 851// 856// 855//
f 851// 855// 850//
f 850// 855// 849//
usemtl 3
f 857// 858// 447//
f 447// 858// 448//
f 859// 857// 446//
f 446// 857// 447//
f 860// 859// 445//
f 445// 859// 446//
f 861// 860// 444//
f 444// 860// 445//
f 862// 861// 451//
f 451// 861// 444//
f 863// 862// 452//
f 452// 862// 451//
f 864// 863// 453//
f 453// 863// 452//
f 865// 864// 442//
f 442// 864// 453//
f 866// 865// 443//
f 443// 865// 442//
f 867// 866// 450//
f 450// 866// 443//
f 868// 867// 449//
f 449// 867// 450//
f 858// 868// 448//
f 448// 868// 449//
f 868// 858// 857//
f 857// 859// 868//
f 868// 859// 860//
f 868// 860// 867//
f 865// 866// 864//
f 864// 866// 867//
f 864// 867// 863//
f 863// 867// 860//
f 863// 860// 862//
f 862// 860// 861//
f 869// 870// 871//
f 871// 870// 872//
f 873// 874// 875//
f 876// 877// 878//
f 878// 877// 879//
f 880// 881// 872//
f 872// 881// 882//
f 882// 883// 872//
f 872// 883// 884//
f 872// 884// 871//
f 871// 884// 885//
f 871// 885// 876//
f 876// 885// 886//
f 876// 886// 877//
f 887// 888// 889//
f 889// 888// 890//
f 889// 890// 891//
f 891// 890// 892//
f 891// 892// 893//
f 893// 892// 894//
f 893// 894// 895//
f 895// 894// 896//
f 895// 896// 897//
f 875// 880// 873//
f 873// 880// 872//
f 873// 872// 898//
f 898// 872// 899//
f 898// 899// 900//
f 900// 899// 901//
f 900// 901// 902//
f 902// 901// 903//
f 902// 903// 904//
f 904// 903// 905//
f 904// 905// 906//
f 906// 905// 907//
f 906// 907// 908//
f 908// 907// 909//
f 908// 909// 910//
f 910// 909// 911//
f 910// 911// 912//
f 912// 911// 913//
f 912// 913// 914//
f 914// 913// 915//
f 914// 915// 916//
f 916// 915// 917//
f 896// 918// 897//
f 897// 918// 919//
f 897// 919// 920//
f 920// 919// 921//
f 920// 921// 879//
f 879// 921// 922//
f 879// 922// 878//
f 923// 924// 925//
f 925// 924// 926//
f 925// 926// 927//
f 927// 926// 928//
f 927// 928// 887//
f 887// 928// 929//
f 887// 929// 888//
f 873// 930// 874//
f 874// 930// 931//
f 874// 931// 932//
f 932// 931// 933//
f 932// 933// 934//
f 934// 933// 935//
f 934// 935// 936//
f 936// 935// 937//
f 936// 937// 923//
f 923// 937// 938//
f 923// 938// 924//
f 911// 463// 470//
f 911// 470// 913//
f 913// 470// 471//
f 913// 471// 915//
f 915// 471// 472//
f 915// 472// 917//
f 916// 917// 458//
f 458// 917// 472//
f 916// 458// 478//
f 916// 478// 914//
f 914// 478// 480//
f 914// 480// 912//
f 912// 480// 498//
f 912// 498// 910//
f 910// 498// 497//
f 910// 497// 908//
f 908// 497// 496//
f 908// 496// 906//
f 906// 496// 495//
f 906// 495// 904//
f 904// 495// 494//
f 904// 494// 902//
f 902// 494// 491//
f 902// 491// 900//
f 900// 491// 490//
f 900// 490// 898//
f 898// 490// 489//
f 898// 489// 873//
f 930// 873// 479//
f 479// 873// 489//
f 930// 479// 477//
f 930// 477// 931//
f 931// 477// 476//
f 931// 476// 933//
f 933// 476// 457//
f 933// 457// 935//
f 935// 457// 459//
f 935// 459// 937//
f 937// 459// 460//
f 937// 460// 938//
f 938// 460// 493//
f 938// 493// 924//
f 924// 493// 492//
f 924// 492// 926//
f 926// 492// 469//
f 926// 469// 928//
f 928// 469// 468//
f 928// 468// 929//
f 929// 468// 488//
f 929// 488// 888//
f 888// 488// 487//
f 888// 487// 890//
f 890// 487// 467//
f 890// 467// 892//
f 892// 467// 466//
f 892// 466// 894//
f 894// 466// 499//
f 894// 499// 896//
f 896// 499// 2//
f 896// 2// 918//
f 918// 2// 1//
f 918// 1// 919//
f 919// 1// 485//
f 919// 485// 921//
f 921// 485// 484//
f 921// 484// 922//
f 922// 484// 475//
f 922// 475// 878//
f 878// 475// 474//
f 878// 474// 876//
f 871// 876// 473//
f 473// 876// 474//
f 869// 871// 3//
f 3// 871// 473//
f 870// 869// 486//
f 486// 869// 3//
f 872// 870// 483//
f 483// 870// 486//
f 872// 483// 482//
f 872// 482// 899//
f 899// 482// 481//
f 899// 481// 901//
f 901// 481// 462//
f 901// 462// 903//
f 903// 462// 461//
f 903// 461// 905//
f 905// 461// 465//
f 905// 465// 907//
f 907// 465// 464//
f 907// 464// 909//
f 909// 464// 463//
f 909// 463// 911//
f 932// 939// 940//
f 932// 940// 874//
f 874// 940// 941//
f 874// 941// 875//
f 875// 941// 942//
f 875// 942// 880//
f 925// 943// 944//
f 925// 944// 923//
f 923// 944// 945//
f 923// 945// 936//
f 936// 945// 946//
f 936// 946// 934//
f 934// 946// 939//
f 934// 939// 932//
f 891// 947// 948//
f 891// 948// 889//
f 889// 948// 949//
f 889// 949// 887//
f 887// 949// 950//
f 887// 950// 927//
f 927// 950// 943//
f 927// 943// 925//
f 897// 951// 952//
f 897// 952// 895//
f 895// 952// 953//
f 895// 953// 893//
f 893// 953// 947//
f 893// 947// 891//
f 886// 954// 955//
f 886// 955// 877//
f 877// 955// 956//
f 877// 956// 879//
f 879// 956// 957//
f 879// 957// 920//
f 920// 957// 951//
f 920// 951// 897//
f 882// 958// 959//
f 882// 959// 883//
f 883// 959// 960//
f 883// 960// 884//
f 884// 960// 961//
f 884// 961// 885//
f 885// 961// 954//
f 885// 954// 886//
f 882// 881// 958//
f 958// 881// 962//
f 881// 880// 962//
f 962// 880// 942//
usemtl 1
f 962// 942// 958//
f 958// 942// 941//
f 941// 940// 958//
f 958// 940// 939//
f 958// 939// 959//
f 959// 939// 960//
f 960// 939// 946//
f 960// 946// 961//
f 948// 947// 955//
f 948// 955// 949//
f 956// 955// 957//
f 957// 955// 951//
f 946// 945// 961//
f 961// 945// 944//
f 961// 944// 954//
f 954// 944// 943//
f 954// 943// 955//
f 955// 943// 950//
f 955// 950// 949//
f 947// 953// 955//
f 955// 953// 952//
f 955// 952// 951//
usemtl 3
f 233// 963// 964//
f 965// 290// 287//
f 965// 287// 966//
f 966// 287// 234//
f 966// 234// 964//
f 964// 234// 236//
f 964// 236// 233//
f 967// 963// 244//
f 244// 963// 233//
f 967// 244// 242//
f 967// 242// 968//
f 968// 242// 240//
f 968// 240// 969//
f 969// 240// 239//
f 969// 239// 247//
f 969// 247// 8//
f 969// 8// 970//
f 8// 7// 970//
f 970// 7// 268//
f 970// 268// 971//
f 971// 268// 267//
f 971// 267// 972//
f 972// 267// 255//
f 972// 255// 973//
f 973// 255// 254//
f 973// 254// 974//
f 974// 254// 253//
f 974// 253// 975//
f 975// 253// 266//
f 975// 266// 976//
f 976// 266// 265//
f 976// 265// 977//
f 977// 265// 264//
f 977// 264// 978//
f 978// 264// 263//
f 978// 263// 979//
f 979// 263// 283//
f 979// 283// 980//
f 980// 283// 282//
f 980// 282// 981//
f 981// 282// 280//
f 981// 280// 982//
f 982// 280// 278//
f 982// 278// 983//
f 983// 278// 277//
f 983// 277// 984//
f 984// 277// 276//
f 984// 276// 985//
f 985// 276// 275//
f 985// 275// 986//
f 986// 275// 274//
f 986// 274// 987//
f 987// 274// 271//
f 987// 271// 988//
f 988// 271// 286//
f 988// 286// 989//
f 989// 286// 285//
f 989// 285// 990//
f 990// 285// 284//
f 990// 284// 991//
f 991// 284// 273//
f 991// 273// 992//
f 992// 273// 272//
f 992// 272// 993//
f 993// 272// 270//
f 993// 270// 994//
f 994// 270// 269//
f 994// 269// 995//
f 995// 269// 279//
f 995// 279// 996//
f 996// 279// 281//
f 996// 281// 997//
f 997// 281// 249//
f 997// 249// 998//
f 999// 998// 248//
f 248// 998// 249//
f 999// 248// 262//
f 999// 262// 1000//
f 1000// 262// 260//
f 1000// 260// 1001//
f 1001// 260// 259//
f 1001// 259// 1002//
f 1002// 259// 251//
f 1002// 251// 1003//
f 1003// 251// 250//
f 1003// 250// 1004//
f 1005// 1004// 258//
f 258// 1004// 250//
f 258// 257// 1005//
f 1005// 257// 256//
f 1005// 256// 1006//
f 1006// 256// 230//
f 1006// 230// 1007//
f 1007// 230// 229//
f 1007// 229// 1008//
f 1008// 229// 232//
f 1008// 232// 1009//
f 1009// 232// 231//
f 1009// 231// 1010//
f 1010// 231// 238//
f 1010// 238// 1011//
f 288// 1012// 1013//
f 1011// 238// 237//
f 1011// 237// 1014//
f 1014// 237// 235//
f 1014// 235// 1013//
f 1013// 235// 289//
f 1013// 289// 288//
f 1012// 288// 292//
f 1012// 292// 1015//
f 1015// 292// 303//
f 1015// 303// 1016//
f 1016// 303// 302//
f 1016// 302// 1017//
f 1017// 302// 301//
f 1017// 301// 1018//
f 1018// 301// 295//
f 1018// 295// 1019//
f 1019// 295// 294//
f 1019// 294// 1020//
f 1020// 294// 300//
f 1020// 300// 1021//
f 1021// 300// 299//
f 1021// 299// 1022//
f 1022// 299// 298//
f 1022// 298// 1023//
f 1023// 298// 297//
f 1023// 297// 1024//
f 1024// 297// 296//
f 1024// 296// 1025//
f 1025// 296// 293//
f 1025// 293// 1026//
f 1026// 293// 291//
f 1026// 291// 1027//
f 1027// 291// 290//
f 1027// 290// 965//
f 991// 992// 1003//
f 1003// 992// 1002//
f 1015// 982// 1012//
f 1012// 982// 983//
f 971// 972// 1023//
f 1023// 972// 973//
f 1023// 973// 1022//
f 1022// 973// 974//
f 1022// 974// 1021//
f 1021// 974// 975//
f 1021// 975// 1020//
f 1020// 975// 976//
f 1020// 976// 1019//
f 1019// 976// 977//
f 1019// 977// 1018//
f 1018// 977// 978//
f 1018// 978// 1017//
f 1017// 978// 979//
f 1017// 979// 1016//
f 1016// 979// 980//
f 1016// 980// 1015//
f 1015// 980// 981//
f 1015// 981// 982//
f 969// 965// 968//
f 968// 965// 966//
f 968// 966// 967//
f 967// 966// 964//
f 967// 964// 963//
f 992// 993// 1002//
f 1002// 993// 994//
f 1002// 994// 1001//
f 1001// 994// 995//
f 1001// 995// 1000//
f 1000// 995// 996//
f 1000// 996// 999//
f 999// 996// 997//
f 999// 997// 998//
f 1023// 1024// 971//
f 971// 1024// 1025//
f 971// 1025// 970//
f 970// 1025// 1026//
f 970// 1026// 969//
f 969// 1026// 1027//
f 969// 1027// 965//
f 1003// 1004// 991//
f 991// 1004// 1005//
f 991// 1005// 990//
f 990// 1005// 1006//
f 990// 1006// 989//
f 989// 1006// 1007//
f 989// 1007// 988//
f 988// 1007// 1008//
f 988// 1008// 987//
f 987// 1008// 1009//
f 987// 1009// 986//
f 986// 1009// 1010//
f 986// 1010// 985//
f 985// 1010// 1011//
f 985// 1011// 984//
f 984// 1011// 1014//
f 984// 1014// 983//
f 983// 1014// 1013//
f 983// 1013// 1012//
f 1028// 1029// 61//
f 61// 1029// 59//
f 1030// 1028// 63//
f 63// 1028// 61//
f 1030// 63// 64//
f 1030// 64// 1031//
f 1031// 64// 53//
f 1031// 53// 1032//
f 1033// 1032// 52//
f 52// 1032// 53//
f 1034// 1033// 51//
f 51// 1033// 52//
f 307// 1035// 62//
f 62// 1035// 1034//
f 62// 1034// 51//
f 1036// 1035// 306//
f 306// 1035// 307//
f 308// 1037// 305//
f 305// 1037// 1036//
f 305// 1036// 306//
f 310// 1038// 309//
f 309// 1038// 1037//
f 309// 1037// 308//
f 1038// 310// 313//
f 1038// 313// 1039//
f 313// 312// 1039//
f 1039// 312// 311//
f 1039// 311// 1040//
f 311// 317// 1040//
f 1040// 317// 315//
f 1040// 315// 1041//
f 1041// 315// 314//
f 1041// 314// 1042//
f 1042// 314// 316//
f 1042// 316// 1043//
f 1043// 316// 318//
f 1043// 318// 1044//
f 1044// 318// 319//
f 1044// 319// 1045//
f 1046// 1045// 320//
f 320// 1045// 319//
f 1046// 320// 326//
f 1046// 326// 1047//
f 1047// 326// 324//
f 1047// 324// 1048//
f 1048// 324// 322//
f 1048// 322// 1049//
f 1049// 322// 321//
f 1049// 321// 1050//
f 1050// 321// 332//
f 1050// 332// 1051//
f 334// 1052// 327//
f 327// 1052// 1053//
f 327// 1053// 328//
f 328// 1053// 1054//
f 328// 1054// 330//
f 330// 1054// 1051//
f 330// 1051// 331//
f 331// 1051// 332//
f 59// 1029// 333//
f 333// 1029// 1052//
f 333// 1052// 334//
f 1031// 1032// 1052//
f 1029// 1028// 1052//
f 1052// 1028// 1030//
f 1052// 1030// 1031//
f 1035// 1036// 1034//
f 1034// 1036// 1037//
f 1034// 1037// 1033//
f 1045// 1046// 1044//
f 1044// 1046// 1047//
f 1044// 1047// 1043//
f 1043// 1047// 1048//
f 1043// 1048// 1042//
f 1042// 1048// 1049//
f 1042// 1049// 1041//
f 1041// 1049// 1050//
f 1041// 1050// 1040//
f 1040// 1050// 1051//
f 1040// 1051// 1039//
f 1039// 1051// 1054//
f 1039// 1054// 1038//
f 1038// 1054// 1053//
f 1038// 1053// 1037//
f 1037// 1053// 1052//
f 1037// 1052// 1033//
f 1033// 1052// 1032//
f 1055// 1056// 54//
f 54// 1056// 55//
f 47// 1057// 46//
f 46// 1057// 1055//
f 46// 1055// 54//
f 1058// 1057// 45//
f 45// 1057// 47//
f 43// 1059// 44//
f 44// 1059// 1058//
f 44// 1058// 45//
f 1060// 1059// 38//
f 38// 1059// 43//
f 50// 1061// 37//
f 37// 1061// 1060//
f 37// 1060// 38//
f 1062// 1061// 49//
f 49// 1061// 50//
f 39// 1063// 48//
f 48// 1063// 1062//
f 48// 1062// 49//
f 1064// 1063// 40//
f 40// 1063// 39//
f 19// 1065// 20//
f 20// 1065// 1064//
f 20// 1064// 40//
f 1066// 1065// 58//
f 58// 1065// 19//
f 55// 1056// 57//
f 57// 1056// 1066//
f 57// 1066// 58//
f 1059// 1060// 1058//
f 1058// 1060// 1061//
f 1056// 1055// 1066//
f 1066// 1055// 1057//
f 1063// 1064// 1062//
f 1062// 1064// 1065//
f 1062// 1065// 1061//
f 1061// 1065// 1066//
f 1061// 1066// 1058//
f 1058// 1066// 1057//
f 1067// 1068// 1069//
f 1069// 1068// 1070//
f 1069// 1070// 1071//
f 1071// 1070// 1072//
f 1071// 1072// 1073//
f 1073// 1072// 1074//
f 1073// 1074// 1075//
f 1075// 1074// 1076//
f 1075// 1076// 1077//
f 1077// 1076// 1078//
f 1077// 1078// 1079//
f 1079// 1078// 1080//
f 1079// 1080// 1081//
f 1081// 1080// 1082//
f 1081// 1082// 1083//
f 1083// 1082// 1084//
f 1083// 1084// 1085//
f 1085// 1084// 1086//
f 1085// 1086// 1087//
f 1087// 1086// 1088//
f 1087// 1088// 1089//
f 1089// 1088// 1090//
f 1089// 1090// 1091//
f 1091// 1090// 1092//
f 1091// 1092// 1093//
f 1093// 1092// 1094//
f 1093// 1094// 1095//
f 1095// 1094// 1096//
f 1095// 1096// 1097//
f 1097// 1096// 1098//
f 1097// 1098// 1099//
f 1099// 1098// 1100//
f 1099// 1100// 1101//
f 1101// 1100// 1102//
f 1101// 1102// 1067//
f 1067// 1102// 1068//
f 1090// 1088// 538//
f 538// 1088// 539//
f 1090// 538// 537//
f 1090// 537// 1092//
f 1092// 537// 536//
f 1092// 536// 1094//
f 1094// 536// 535//
f 1094// 535// 1096//
f 1096// 535// 534//
f 1096// 534// 1098//
f 1098// 534// 533//
f 1098// 533// 1100//
f 1100// 533// 532//
f 1100// 532// 1102//
f 1102// 532// 549//
f 1102// 549// 1068//
f 1068// 549// 548//
f 1068// 548// 1070//
f 1070// 548// 547//
f 1070// 547// 1072//
f 1072// 547// 546//
f 1072// 546// 1074//
f 1074// 546// 545//
f 1074// 545// 1076//
f 1076// 545// 544//
f 1076// 544// 1078//
f 1078// 544// 543//
f 1078// 543// 1080//
f 1080// 543// 542//
f 1080// 542// 1082//
f 1082// 542// 541//
f 1082// 541// 1084//
f 1086// 1084// 540//
f 540// 1084// 541//
f 1088// 1086// 539//
f 539// 1086// 540//
f 1083// 1085// 1103//
f 1103// 1085// 1104//
f 1085// 1087// 1104//
f 1104// 1087// 1105//
f 1087// 1089// 1105//
f 1105// 1089// 1106//
f 1097// 1107// 1108//
f 1097// 1108// 1095//
f 1095// 1108// 1109//
f 1095// 1109// 1093//
f 1093// 1109// 1110//
f 1093// 1110// 1091//
f 1091// 1110// 1106//
f 1091// 1106// 1089//
f 1069// 1111// 1112//
f 1069// 1112// 1067//
f 1067// 1112// 1113//
f 1067// 1113// 1101//
f 1101// 1113// 1114//
f 1101// 1114// 1099//
f 1099// 1114// 1107//
f 1099// 1107// 1097//
f 1077// 1115// 1116//
f 1077// 1116// 1075//
f 1075// 1116// 1117//
f 1075// 1117// 1073//
f 1073// 1117// 1118//
f 1073// 1118// 1071//
f 1071// 1118// 1111//
f 1071// 1111// 1069//
f 1083// 1103// 1119//
f 1083// 1119// 1081//
f 1081// 1119// 1120//
f 1081// 1120// 1079//
f 1079// 1120// 1115//
f 1079// 1115// 1077//
usemtl 1
f 1104// 1105// 1103//
f 1103// 1105// 1106//
f 1103// 1106// 1110//
f 1110// 1109// 1103//
f 1103// 1109// 1108//
f 1103// 1108// 1107//
f 1107// 1114// 1103//
f 1103// 1114// 1113//
f 1103// 1113// 1112//
f 1112// 1111// 1103//
f 1103// 1111// 1118//
f 1103// 1118// 1117//
f 1117// 1116// 1103//
f 1103// 1116// 1115//
f 1103// 1115// 1119//
f 1119// 1115// 1120//
usemtl 3
f 1121// 1122// 1123//
f 1124// 1125// 1126//
f 1122// 1127// 1123//
f 1123// 1127// 1128//
f 1123// 1128// 1129//
f 1129// 1128// 1130//
f 1129// 1130// 1131//
f 1131// 1132// 1129//
f 1129// 1132// 1133//
f 1129// 1133// 1134//
f 1135// 1134// 1136//
f 1136// 1134// 1133//
f 1136// 1133// 1126//
f 1126// 1133// 1121//
f 1126// 1121// 1124//
f 1124// 1121// 1123//
f 27// 1129// 551//
f 551// 1129// 1134//
f 551// 1134// 31//
f 1123// 1129// 26//
f 26// 1129// 27//
f 1123// 26// 1124//
f 1124// 26// 23//
f 1124// 23// 22//
f 1125// 1124// 29//
f 29// 1124// 22//
f 36// 1126// 28//
f 28// 1126// 1125//
f 28// 1125// 29//
f 1136// 1126// 35//
f 35// 1126// 36//
f 1136// 35// 1135//
f 1135// 35// 34//
f 1135// 34// 30//
f 1134// 1135// 31//
f 31// 1135// 30//
f 1121// 1133// 1137//
f 1137// 1133// 1138//
f 1133// 1132// 1138//
f 1138// 1132// 1139//
f 1130// 1140// 1141//
f 1130// 1141// 1131//
f 1131// 1141// 1139//
f 1131// 1139// 1132//
f 1130// 1128// 1140//
f 1140// 1128// 1142//
f 1122// 1143// 1144//
f 1122// 1144// 1127//
f 1127// 1144// 1142//
f 1127// 1142// 1128//
f 1122// 1121// 1143//
f 1143// 1121// 1137//
usemtl 1
f 1140// 1142// 1141//
f 1141// 1142// 1144//
f 1141// 1144// 1139//
f 1139// 1144// 1143//
f 1139// 1143// 1138//
f 1138// 1143// 1137//
usemtl 3
f 1145// 1146// 1147//
f 1148// 1149// 1150//
f 1151// 1152// 1148//
f 1153// 1154// 1155//
f 1156// 1157// 1158//
f 1155// 1154// 1159//
f 1152// 1160// 1148//
f 1148// 1160// 1161//
f 1148// 1161// 1162//
f 1161// 1163// 1162//
f 1162// 1163// 1164//
f 1162// 1164// 1165//
f 1165// 1164// 1166//
f 1167// 1168// 1169//
f 1169// 1168// 1170//
f 1169// 1170// 1171//
f 1171// 1170// 1172//
f 1171// 1172// 1173//
f 1173// 1172// 1174//
f 1173// 1174// 1175//
f 1175// 1174// 1147//
f 1175// 1147// 1176//
f 1177// 1178// 1167//
f 1167// 1178// 1179//
f 1167// 1179// 1168//
f 1180// 1181// 1182//
f 1182// 1181// 1183//
f 1182// 1183// 1184//
f 1184// 1183// 1185//
f 1184// 1185// 1186//
f 1186// 1185// 1187//
f 1156// 1158// 1188//
f 1188// 1158// 1189//
f 1188// 1189// 1190//
f 1190// 1189// 1191//
f 1190// 1191// 1192//
f 1193// 1194// 1147//
f 1147// 1194// 1195//
f 1147// 1195// 1145//
f 1154// 1196// 1159//
f 1159// 1196// 1197//
f 1159// 1197// 1198//
f 1198// 1197// 1199//
f 1198// 1199// 1156//
f 1156// 1199// 1200//
f 1156// 1200// 1157//
f 1201// 1146// 1202//
f 1202// 1146// 1203//
f 1202// 1203// 1204//
f 1185// 1205// 1187//
f 1187// 1205// 1206//
f 1187// 1206// 1207//
f 1207// 1206// 1208//
f 1207// 1208// 1209//
f 1209// 1208// 1210//
f 1208// 1211// 1210//
f 1210// 1211// 1212//
f 1210// 1212// 1213//
f 1213// 1212// 1214//
f 1213// 1214// 1215//
f 1215// 1214// 1216//
f 1215// 1216// 1217//
f 1151// 1148// 1218//
f 1218// 1148// 1150//
f 1218// 1150// 1167//
f 1167// 1150// 1219//
f 1167// 1219// 1177//
f 1220// 1221// 1222//
f 1222// 1221// 1223//
f 1222// 1223// 1182//
f 1182// 1223// 1224//
f 1182// 1224// 1180//
f 1155// 1225// 1153//
f 1153// 1225// 1226//
f 1153// 1226// 1227//
f 1227// 1226// 1228//
f 1227// 1228// 1229//
f 1229// 1228// 1230//
f 1229// 1230// 1231//
f 1201// 1232// 1146//
f 1146// 1232// 1233//
f 1146// 1233// 1147//
f 1147// 1233// 1234//
f 1147// 1234// 1176//
f 1192// 1191// 1235//
f 1235// 1191// 1236//
f 1235// 1236// 1237//
f 1237// 1236// 1238//
f 1237// 1238// 1239//
f 1239// 1238// 1240//
f 1239// 1240// 1241//
f 1241// 1240// 1242//
f 1241// 1242// 1220//
f 1220// 1242// 1243//
f 1220// 1243// 1221//
f 1230// 1244// 1231//
f 1231// 1244// 1245//
f 1231// 1245// 1246//
f 1246// 1245// 1247//
f 1246// 1247// 1248//
f 1248// 1247// 1249//
f 1248// 1249// 1250//
f 1250// 1249// 1251//
f 1250// 1251// 1252//
f 1252// 1251// 1253//
f 1252// 1253// 1193//
f 1193// 1253// 1254//
f 1193// 1254// 1194//
f 1203// 1255// 1204//
f 1204// 1255// 1256//
f 1204// 1256// 1257//
f 1257// 1256// 1258//
f 1257// 1258// 1259//
f 1259// 1258// 1260//
f 1259// 1260// 1261//
f 1261// 1260// 1262//
f 1261// 1262// 1263//
f 1263// 1262// 1264//
f 1263// 1264// 1265//
f 1265// 1264// 1266//
f 1265// 1266// 1267//
f 1267// 1266// 1268//
f 1267// 1268// 1166//
f 1166// 1268// 1269//
f 1166// 1269// 1165//
f 1270// 1271// 1272//
f 1272// 1271// 1273//
f 1270// 1272// 1274//
f 1274// 1272// 1275//
f 1274// 1275// 1276//
f 1276// 1275// 1277//
f 1276// 1277// 1278//
f 1216// 1279// 1217//
f 1217// 1279// 1280//
f 1217// 1280// 1281//
f 1281// 1280// 1282//
f 1281// 1282// 1283//
f 1283// 1282// 1284//
f 1283// 1284// 1285//
f 1285// 1284// 1286//
f 1285// 1286// 1287//
f 1287// 1286// 1288//
f 1287// 1288// 1289//
f 1289// 1288// 1290//
f 1289// 1290// 1291//
f 1291// 1290// 1272//
f 1291// 1272// 1292//
f 1292// 1272// 1273//
f 1278// 1293// 1276//
f 1276// 1293// 1294//
f 1276// 1294// 1295//
f 1210// 348// 347//
f 437// 1187// 1207//
f 1210// 347// 1209//
f 1209// 347// 439//
f 1209// 439// 1207//
f 1207// 439// 438//
f 1207// 438// 437//
f 437// 337// 1187//
f 1187// 337// 336//
f 1187// 336// 1186//
f 1186// 336// 343//
f 1186// 343// 1184//
f 1184// 343// 342//
f 1184// 342// 1182//
f 1182// 342// 341//
f 1182// 341// 1222//
f 1222// 341// 340//
f 1222// 340// 1220//
f 1220// 340// 339//
f 1220// 339// 1241//
f 339// 114// 1241//
f 1241// 114// 113//
f 1241// 113// 1239//
f 1239// 113// 122//
f 1239// 122// 1237//
f 1237// 122// 121//
f 1237// 121// 1235//
f 1235// 121// 120//
f 1235// 120// 1192//
f 1192// 120// 119//
f 1192// 119// 1190//
f 109// 1156// 1188//
f 1190// 119// 102//
f 1190// 102// 1188//
f 1188// 102// 107//
f 1188// 107// 109//
f 1156// 109// 108//
f 1156// 108// 1198//
f 1198// 108// 101//
f 1198// 101// 1159//
f 1159// 101// 100//
f 1159// 100// 1155//
f 1155// 100// 112//
f 1155// 112// 1225//
f 1225// 112// 111//
f 1225// 111// 1226//
f 1226// 111// 110//
f 1226// 110// 1228//
f 96// 1247// 1245//
f 1228// 110// 106//
f 1228// 106// 1230//
f 1230// 106// 104//
f 1230// 104// 1244//
f 104// 103// 1244//
f 1244// 103// 98//
f 1244// 98// 1245//
f 1245// 98// 97//
f 1245// 97// 96//
f 1247// 96// 94//
f 1247// 94// 1249//
f 1249// 94// 93//
f 1249// 93// 1251//
f 1251// 93// 90//
f 1251// 90// 1253//
f 1253// 90// 89//
f 1253// 89// 1254//
f 1254// 89// 92//
f 1254// 92// 1194//
f 1194// 92// 91//
f 1194// 91// 1195//
f 1195// 91// 85//
f 88// 1146// 1145//
f 1195// 85// 1145//
f 1145// 85// 87//
f 1145// 87// 88//
f 88// 75// 1146//
f 1146// 75// 74//
f 1146// 74// 1203//
f 1203// 74// 84//
f 1203// 84// 1255//
f 1255// 84// 83//
f 1255// 83// 1256//
f 1256// 83// 82//
f 1256// 82// 1258//
f 1258// 82// 81//
f 344// 1268// 1266//
f 1258// 81// 1260//
f 1260// 81// 80//
f 1260// 80// 1262//
f 1262// 80// 78//
f 1262// 78// 1264//
f 1264// 78// 77//
f 1264// 77// 1266//
f 1266// 77// 345//
f 1266// 345// 344//
f 344// 356// 1268//
f 1268// 356// 397//
f 1268// 397// 1269//
f 1269// 397// 398//
f 1269// 398// 1165//
f 1162// 1165// 392//
f 392// 1165// 398//
f 1148// 1162// 369//
f 369// 1162// 392//
f 1149// 1148// 351//
f 351// 1148// 369//
f 1150// 1149// 350//
f 350// 1149// 351//
f 1150// 350// 352//
f 1150// 352// 1219//
f 1219// 352// 353//
f 1219// 353// 1177//
f 1177// 353// 386//
f 1177// 386// 1178//
f 1178// 386// 385//
f 1178// 385// 1179//
f 1179// 385// 384//
f 1179// 384// 1168//
f 1168// 384// 371//
f 1168// 371// 1170//
f 1170// 371// 372//
f 1170// 372// 1172//
f 1172// 372// 364//
f 1172// 364// 1174//
f 1174// 364// 366//
f 1174// 366// 1147//
f 1147// 366// 365//
f 1147// 365// 1193//
f 1193// 365// 363//
f 1193// 363// 1252//
f 1252// 363// 362//
f 1252// 362// 1250//
f 1250// 362// 374//
f 1250// 374// 1248//
f 1248// 374// 373//
f 1248// 373// 1246//
f 1231// 1246// 361//
f 361// 1246// 373//
f 361// 410// 1231//
f 1231// 410// 409//
f 1231// 409// 1229//
f 1229// 409// 422//
f 1229// 422// 1227//
f 422// 436// 1227//
f 1227// 436// 435//
f 1227// 435// 1153//
f 1153// 435// 434//
f 1153// 434// 1154//
f 1154// 434// 428//
f 1154// 428// 1196//
f 1196// 428// 427//
f 1196// 427// 1197//
f 1197// 427// 426//
f 1197// 426// 1199//
f 1199// 426// 423//
f 1199// 423// 1200//
f 1200// 423// 418//
f 1200// 418// 1157//
f 1157// 418// 421//
f 1157// 421// 1158//
f 1158// 421// 429//
f 1158// 429// 1189//
f 1189// 429// 431//
f 1189// 431// 1191//
f 1191// 431// 433//
f 1191// 433// 1236//
f 1236// 433// 432//
f 1236// 432// 1238//
f 1238// 432// 430//
f 1238// 430// 1240//
f 1240// 430// 420//
f 1240// 420// 1242//
f 1242// 420// 419//
f 1242// 419// 1243//
f 1243// 419// 417//
f 1243// 417// 1221//
f 1221// 417// 416//
f 1221// 416// 1223//
f 1223// 416// 425//
f 1223// 425// 1224//
f 1224// 425// 1180//
f 1180// 425// 424//
f 1180// 424// 408//
f 1181// 1180// 411//
f 411// 1180// 408//
f 1181// 411// 415//
f 1181// 415// 1183//
f 1183// 415// 414//
f 1183// 414// 1185//
f 1185// 414// 413//
f 1185// 413// 1205//
f 1205// 413// 412//
f 1205// 412// 1206//
f 1206// 412// 360//
f 1206// 360// 1208//
f 360// 359// 1208//
f 1208// 359// 358//
f 1208// 358// 1211//
f 1211// 358// 402//
f 1211// 402// 1212//
f 1212// 402// 401//
f 1212// 401// 1214//
f 1214// 401// 400//
f 1214// 400// 1216//
f 1216// 400// 399//
f 1216// 399// 1279//
f 1279// 399// 407//
f 1279// 407// 1280//
f 1280// 407// 406//
f 1280// 406// 1282//
f 1282// 406// 405//
f 1282// 405// 1284//
f 1284// 405// 404//
f 1284// 404// 1286//
f 1288// 1286// 403//
f 403// 1286// 404//
f 1288// 403// 383//
f 1288// 383// 1290//
f 1290// 383// 382//
f 1290// 382// 1272//
f 1272// 382// 381//
f 1272// 381// 1275//
f 1275// 381// 370//
f 1275// 370// 1277//
f 1277// 370// 368//
f 1277// 368// 1278//
f 1278// 368// 367//
f 1278// 367// 1293//
f 1293// 367// 394//
f 1293// 394// 1294//
f 1294// 394// 393//
f 1294// 393// 1295//
f 1295// 393// 391//
f 1295// 391// 1276//
f 1276// 391// 390//
f 1276// 390// 1274//
f 1274// 390// 396//
f 1274// 396// 1270//
f 1270// 396// 395//
f 1270// 395// 1271//
f 1271// 395// 357//
f 1271// 357// 1273//
f 1273// 357// 355//
f 1273// 355// 1292//
f 1292// 355// 354//
f 1292// 354// 1291//
f 1291// 354// 389//
f 1291// 389// 1289//
f 1289// 389// 388//
f 1289// 388// 1287//
f 1285// 1287// 387//
f 387// 1287// 388//
f 1285// 387// 379//
f 1285// 379// 1283//
f 1283// 379// 378//
f 1283// 378// 1281//
f 1281// 378// 376//
f 1281// 376// 1217//
f 1217// 376// 375//
f 1217// 375// 1215//
f 1215// 375// 380//
f 1215// 380// 1213//
f 1213// 380// 348//
f 1213// 348// 1210//
f 1218// 1296// 1297//
f 1218// 1297// 1151//
f 1151// 1297// 1298//
f 1151// 1298// 1152//
f 1152// 1298// 1299//
f 1152// 1299// 1160//
f 1160// 1299// 1300//
f 1160// 1300// 1161//
f 1161// 1300// 1301//
f 1161// 1301// 1163//
f 1163// 1301// 1302//
f 1163// 1302// 1164//
f 1164// 1302// 1303//
f 1164// 1303// 1166//
f 1166// 1303// 1304//
f 1166// 1304// 1267//
f 1267// 1304// 1305//
f 1267// 1305// 1265//
f 1265// 1305// 1306//
f 1265// 1306// 1263//
f 1263// 1306// 1307//
f 1263// 1307// 1261//
f 1261// 1307// 1308//
f 1261// 1308// 1259//
f 1259// 1308// 1309//
f 1259// 1309// 1257//
f 1257// 1309// 1310//
f 1257// 1310// 1204//
f 1204// 1310// 1311//
f 1204// 1311// 1202//
f 1202// 1311// 1312//
f 1202// 1312// 1201//
f 1201// 1312// 1313//
f 1201// 1313// 1232//
f 1232// 1313// 1314//
f 1232// 1314// 1233//
f 1233// 1314// 1315//
f 1233// 1315// 1234//
f 1234// 1315// 1316//
f 1234// 1316// 1176//
f 1176// 1316// 1317//
f 1176// 1317// 1175//
f 1175// 1317// 1318//
f 1175// 1318// 1173//
f 1173// 1318// 1319//
f 1173// 1319// 1171//
f 1171// 1319// 1320//
f 1171// 1320// 1169//
f 1169// 1320// 1321//
f 1169// 1321// 1167//
f 1167// 1321// 1296//
f 1167// 1296// 1218//
usemtl 1
f 1309// 1319// 1318//
f 1296// 1309// 1297//
f 1297// 1309// 1308//
f 1296// 1321// 1309//
f 1309// 1321// 1320//
f 1309// 1320// 1319//
f 1306// 1300// 1299//
f 1314// 1313// 1318//
f 1318// 1313// 1312//
f 1308// 1307// 1297//
f 1297// 1307// 1306//
f 1297// 1306// 1298//
f 1298// 1306// 1299//
f 1317// 1316// 1318//
f 1318// 1316// 1315//
f 1318// 1315// 1314//
f 1312// 1311// 1318//
f 1318// 1311// 1310//
f 1318// 1310// 1309//
f 1304// 1303// 1305//
f 1305// 1303// 1302//
f 1305// 1302// 1306//
f 1306// 1302// 1301//
f 1306// 1301// 1300//
